<?xml version="1.0" encoding="UTF-8" standalone="no"?>
<!DOCTYPE svg PUBLIC "-//W3C//DTD SVG 1.1//EN"
 "http://www.w3.org/Graphics/SVG/1.1/DTD/svg11.dtd">
<!-- Generated by graphviz version 2.47.3 (20210619.1520)
 -->
<!-- Title: dependencies Pages: 1 -->
<svg width="693pt" height="174pt"
 viewBox="0.00 0.00 693.00 173.80" xmlns="http://www.w3.org/2000/svg" xmlns:xlink="http://www.w3.org/1999/xlink">
<g id="graph0" class="graph" transform="scale(1 1) rotate(0) translate(4 169.8)">
<title>dependencies</title>
<polygon fill="white" stroke="transparent" points="-4,4 -4,-169.8 689,-169.8 689,4 -4,4"/>
<text text-anchor="middle" x="342.5" y="-8.2" font-family="sans-serif" font-size="14.00">dependencies</text>
<g id="clust1" class="cluster">
<title>cluster_OptionsPageModule</title>
<polygon fill="none" stroke="black" stroke-dasharray="1,5" points="8,-32.8 8,-157.8 677,-157.8 677,-32.8 8,-32.8"/>
</g>
<g id="clust4" class="cluster">
<title>cluster_OptionsPageModule_imports</title>
<polygon fill="none" stroke="black" points="128,-40.8 128,-92.8 669,-92.8 669,-40.8 128,-40.8"/>
</g>
<g id="clust2" class="cluster">
<title>cluster_OptionsPageModule_declarations</title>
<polygon fill="none" stroke="black" points="16,-40.8 16,-92.8 120,-92.8 120,-40.8 16,-40.8"/>
</g>
<!-- OptionsPage -->
<g id="node1" class="node">
<title>OptionsPage</title>
<polygon fill="#ffffb3" stroke="black" points="111.55,-84.8 24.45,-84.8 24.45,-48.8 111.55,-48.8 111.55,-84.8"/>
<text text-anchor="middle" x="68" y="-62.6" font-family="Times,serif" font-size="14.00">OptionsPage</text>
</g>
<!-- OptionsPageModule -->
<g id="node2" class="node">
<title>OptionsPageModule</title>
<polygon fill="#8dd3c7" stroke="black" points="439.59,-149.8 436.59,-153.8 415.59,-153.8 412.59,-149.8 308.41,-149.8 308.41,-113.8 439.59,-113.8 439.59,-149.8"/>
<text text-anchor="middle" x="374" y="-127.6" font-family="Times,serif" font-size="14.00">OptionsPageModule</text>
</g>
<!-- OptionsPage&#45;&gt;OptionsPageModule -->
<g id="edge1" class="edge">
<title>OptionsPage&#45;&gt;OptionsPageModule</title>
<path fill="none" stroke="black" d="M68,-84.91C68,-104.14 68,-131.8 68,-131.8 68,-131.8 298.36,-131.8 298.36,-131.8"/>
<polygon fill="black" stroke="black" points="298.36,-135.3 308.36,-131.8 298.36,-128.3 298.36,-135.3"/>
</g>
<!-- CommonModule -->
<g id="node3" class="node">
<title>CommonModule</title>
<polygon fill="#8dd3c7" stroke="black" points="660.67,-84.8 657.67,-88.8 636.67,-88.8 633.67,-84.8 549.33,-84.8 549.33,-48.8 660.67,-48.8 660.67,-84.8"/>
<text text-anchor="middle" x="605" y="-62.6" font-family="Times,serif" font-size="14.00">CommonModule</text>
</g>
<!-- CommonModule&#45;&gt;OptionsPageModule -->
<g id="edge2" class="edge">
<title>CommonModule&#45;&gt;OptionsPageModule</title>
<path fill="none" stroke="black" d="M605,-84.91C605,-104.14 605,-131.8 605,-131.8 605,-131.8 449.58,-131.8 449.58,-131.8"/>
<polygon fill="black" stroke="black" points="449.58,-128.3 439.58,-131.8 449.58,-135.3 449.58,-128.3"/>
</g>
<!-- FormsModule -->
<g id="node4" class="node">
<title>FormsModule</title>
<polygon fill="#8dd3c7" stroke="black" points="531.83,-84.8 528.83,-88.8 507.83,-88.8 504.83,-84.8 436.17,-84.8 436.17,-48.8 531.83,-48.8 531.83,-84.8"/>
<text text-anchor="middle" x="484" y="-62.6" font-family="Times,serif" font-size="14.00">FormsModule</text>
</g>
<!-- FormsModule&#45;&gt;OptionsPageModule -->
<g id="edge3" class="edge">
<title>FormsModule&#45;&gt;OptionsPageModule</title>
<path fill="none" stroke="black" d="M436.11,-66.8C430.79,-66.8 427.25,-66.8 427.25,-66.8 427.25,-66.8 427.25,-103.69 427.25,-103.69"/>
<polygon fill="black" stroke="black" points="423.75,-103.69 427.25,-113.69 430.75,-103.69 423.75,-103.69"/>
</g>
<!-- IonicModule -->
<g id="node5" class="node">
<title>IonicModule</title>
<polygon fill="#8dd3c7" stroke="black" points="418.32,-84.8 415.32,-88.8 394.32,-88.8 391.32,-84.8 329.68,-84.8 329.68,-48.8 418.32,-48.8 418.32,-84.8"/>
<text text-anchor="middle" x="374" y="-62.6" font-family="Times,serif" font-size="14.00">IonicModule</text>
</g>
<!-- IonicModule&#45;&gt;OptionsPageModule -->
<g id="edge4" class="edge">
<title>IonicModule&#45;&gt;OptionsPageModule</title>
<path fill="none" stroke="black" d="M374,-84.91C374,-84.91 374,-103.79 374,-103.79"/>
<polygon fill="black" stroke="black" points="370.5,-103.79 374,-113.79 377.5,-103.79 370.5,-103.79"/>
</g>
<!-- OptionsPageRoutingModule -->
<g id="node6" class="node">
<title>OptionsPageRoutingModule</title>
<polygon fill="#8dd3c7" stroke="black" points="312.21,-84.8 309.21,-88.8 288.21,-88.8 285.21,-84.8 135.79,-84.8 135.79,-48.8 312.21,-48.8 312.21,-84.8"/>
<text text-anchor="middle" x="224" y="-62.6" font-family="Times,serif" font-size="14.00">OptionsPageRoutingModule</text>
</g>
<!-- OptionsPageRoutingModule&#45;&gt;OptionsPageModule -->
<g id="edge5" class="edge">
<title>OptionsPageRoutingModule&#45;&gt;OptionsPageModule</title>
<path fill="none" stroke="black" d="M312.37,-66.8C317.71,-66.8 320.97,-66.8 320.97,-66.8 320.97,-66.8 320.97,-103.69 320.97,-103.69"/>
<polygon fill="black" stroke="black" points="317.47,-103.69 320.97,-113.69 324.47,-103.69 317.47,-103.69"/>
</g>
</g>
</svg>
