<?xml version="1.0" encoding="UTF-8" standalone="no"?>
<!DOCTYPE svg PUBLIC "-//W3C//DTD SVG 1.1//EN"
 "http://www.w3.org/Graphics/SVG/1.1/DTD/svg11.dtd">
<!-- Generated by graphviz version 2.47.3 (20210619.1520)
 -->
<!-- Title: dependencies Pages: 1 -->
<svg width="344pt" height="174pt"
 viewBox="0.00 0.00 344.00 173.80" xmlns="http://www.w3.org/2000/svg" xmlns:xlink="http://www.w3.org/1999/xlink">
<g id="graph0" class="graph" transform="scale(1 1) rotate(0) translate(4 169.8)">
<title>dependencies</title>
<polygon fill="white" stroke="transparent" points="-4,4 -4,-169.8 340,-169.8 340,4 -4,4"/>
<text text-anchor="middle" x="168" y="-8.2" font-family="sans-serif" font-size="14.00">dependencies</text>
<g id="clust1" class="cluster">
<title>cluster_OptionsPageModule</title>
<polygon fill="none" stroke="black" stroke-dasharray="1,5" points="8,-32.8 8,-157.8 328,-157.8 328,-32.8 8,-32.8"/>
</g>
<g id="clust4" class="cluster">
<title>cluster_OptionsPageModule_imports</title>
<polygon fill="none" stroke="black" points="128,-40.8 128,-92.8 320,-92.8 320,-40.8 128,-40.8"/>
</g>
<g id="clust2" class="cluster">
<title>cluster_OptionsPageModule_declarations</title>
<polygon fill="none" stroke="black" points="16,-40.8 16,-92.8 120,-92.8 120,-40.8 16,-40.8"/>
</g>
<!-- OptionsPage -->
<g id="node1" class="node">
<title>OptionsPage</title>
<polygon fill="#ffffb3" stroke="black" points="111.55,-84.8 24.45,-84.8 24.45,-48.8 111.55,-48.8 111.55,-84.8"/>
<text text-anchor="middle" x="68" y="-62.6" font-family="Times,serif" font-size="14.00">OptionsPage</text>
</g>
<!-- OptionsPageModule -->
<g id="node2" class="node">
<title>OptionsPageModule</title>
<polygon fill="#8dd3c7" stroke="black" points="218.59,-149.8 215.59,-153.8 194.59,-153.8 191.59,-149.8 87.41,-149.8 87.41,-113.8 218.59,-113.8 218.59,-149.8"/>
<text text-anchor="middle" x="153" y="-127.6" font-family="Times,serif" font-size="14.00">OptionsPageModule</text>
</g>
<!-- OptionsPage&#45;&gt;OptionsPageModule -->
<g id="edge1" class="edge">
<title>OptionsPage&#45;&gt;OptionsPageModule</title>
<path fill="none" stroke="black" d="M99.61,-84.91C99.61,-84.91 99.61,-103.79 99.61,-103.79"/>
<polygon fill="black" stroke="black" points="96.11,-103.79 99.61,-113.79 103.11,-103.79 96.11,-103.79"/>
</g>
<!-- OptionsPageRoutingModule -->
<g id="node3" class="node">
<title>OptionsPageRoutingModule</title>
<polygon fill="#8dd3c7" stroke="black" points="312.21,-84.8 309.21,-88.8 288.21,-88.8 285.21,-84.8 135.79,-84.8 135.79,-48.8 312.21,-48.8 312.21,-84.8"/>
<text text-anchor="middle" x="224" y="-62.6" font-family="Times,serif" font-size="14.00">OptionsPageRoutingModule</text>
</g>
<!-- OptionsPageRoutingModule&#45;&gt;OptionsPageModule -->
<g id="edge2" class="edge">
<title>OptionsPageRoutingModule&#45;&gt;OptionsPageModule</title>
<path fill="none" stroke="black" d="M177.22,-84.91C177.22,-84.91 177.22,-103.79 177.22,-103.79"/>
<polygon fill="black" stroke="black" points="173.72,-103.79 177.22,-113.79 180.72,-103.79 173.72,-103.79"/>
</g>
</g>
</svg>
