<?xml version="1.0" encoding="UTF-8" standalone="no"?>
<!DOCTYPE svg PUBLIC "-//W3C//DTD SVG 1.1//EN"
 "http://www.w3.org/Graphics/SVG/1.1/DTD/svg11.dtd">
<!-- Generated by graphviz version 2.47.3 (20210619.1520)
 -->
<!-- Title: dependencies Pages: 1 -->
<svg width="362pt" height="174pt"
 viewBox="0.00 0.00 362.00 173.80" xmlns="http://www.w3.org/2000/svg" xmlns:xlink="http://www.w3.org/1999/xlink">
<g id="graph0" class="graph" transform="scale(1 1) rotate(0) translate(4 169.8)">
<title>dependencies</title>
<polygon fill="white" stroke="transparent" points="-4,4 -4,-169.8 358,-169.8 358,4 -4,4"/>
<text text-anchor="middle" x="177" y="-8.2" font-family="sans-serif" font-size="14.00">dependencies</text>
<g id="clust1" class="cluster">
<title>cluster_PasswordPageModule</title>
<polygon fill="none" stroke="black" stroke-dasharray="1,5" points="8,-32.8 8,-157.8 346,-157.8 346,-32.8 8,-32.8"/>
</g>
<g id="clust2" class="cluster">
<title>cluster_PasswordPageModule_declarations</title>
<polygon fill="none" stroke="black" points="226,-40.8 226,-92.8 338,-92.8 338,-40.8 226,-40.8"/>
</g>
<g id="clust4" class="cluster">
<title>cluster_PasswordPageModule_imports</title>
<polygon fill="none" stroke="black" points="16,-40.8 16,-92.8 218,-92.8 218,-40.8 16,-40.8"/>
</g>
<!-- PasswordPage -->
<g id="node1" class="node">
<title>PasswordPage</title>
<polygon fill="#ffffb3" stroke="black" points="330.37,-84.8 233.63,-84.8 233.63,-48.8 330.37,-48.8 330.37,-84.8"/>
<text text-anchor="middle" x="282" y="-62.6" font-family="Times,serif" font-size="14.00">PasswordPage</text>
</g>
<!-- PasswordPageModule -->
<g id="node2" class="node">
<title>PasswordPageModule</title>
<polygon fill="#8dd3c7" stroke="black" points="262.42,-149.8 259.42,-153.8 238.42,-153.8 235.42,-149.8 121.58,-149.8 121.58,-113.8 262.42,-113.8 262.42,-149.8"/>
<text text-anchor="middle" x="192" y="-127.6" font-family="Times,serif" font-size="14.00">PasswordPageModule</text>
</g>
<!-- PasswordPage&#45;&gt;PasswordPageModule -->
<g id="edge1" class="edge">
<title>PasswordPage&#45;&gt;PasswordPageModule</title>
<path fill="none" stroke="black" d="M247.89,-84.91C247.89,-84.91 247.89,-103.79 247.89,-103.79"/>
<polygon fill="black" stroke="black" points="244.39,-103.79 247.89,-113.79 251.39,-103.79 244.39,-103.79"/>
</g>
<!-- PasswordPageRoutingModule -->
<g id="node3" class="node">
<title>PasswordPageRoutingModule</title>
<polygon fill="#8dd3c7" stroke="black" points="209.53,-84.8 206.53,-88.8 185.53,-88.8 182.53,-84.8 24.47,-84.8 24.47,-48.8 209.53,-48.8 209.53,-84.8"/>
<text text-anchor="middle" x="117" y="-62.6" font-family="Times,serif" font-size="14.00">PasswordPageRoutingModule</text>
</g>
<!-- PasswordPageRoutingModule&#45;&gt;PasswordPageModule -->
<g id="edge2" class="edge">
<title>PasswordPageRoutingModule&#45;&gt;PasswordPageModule</title>
<path fill="none" stroke="black" d="M165.78,-84.91C165.78,-84.91 165.78,-103.79 165.78,-103.79"/>
<polygon fill="black" stroke="black" points="162.28,-103.79 165.78,-113.79 169.28,-103.79 162.28,-103.79"/>
</g>
</g>
</svg>
