<?xml version="1.0" encoding="UTF-8" standalone="no"?>
<!DOCTYPE svg PUBLIC "-//W3C//DTD SVG 1.1//EN"
 "http://www.w3.org/Graphics/SVG/1.1/DTD/svg11.dtd">
<!-- Generated by graphviz version 2.47.3 (20210619.1520)
 -->
<!-- Title: dependencies Pages: 1 -->
<svg width="711pt" height="174pt"
 viewBox="0.00 0.00 711.00 173.80" xmlns="http://www.w3.org/2000/svg" xmlns:xlink="http://www.w3.org/1999/xlink">
<g id="graph0" class="graph" transform="scale(1 1) rotate(0) translate(4 169.8)">
<title>dependencies</title>
<polygon fill="white" stroke="transparent" points="-4,4 -4,-169.8 707,-169.8 707,4 -4,4"/>
<text text-anchor="middle" x="351.5" y="-8.2" font-family="sans-serif" font-size="14.00">dependencies</text>
<g id="clust1" class="cluster">
<title>cluster_PasswordPageModule</title>
<polygon fill="none" stroke="black" stroke-dasharray="1,5" points="8,-32.8 8,-157.8 695,-157.8 695,-32.8 8,-32.8"/>
</g>
<g id="clust2" class="cluster">
<title>cluster_PasswordPageModule_declarations</title>
<polygon fill="none" stroke="black" points="575,-40.8 575,-92.8 687,-92.8 687,-40.8 575,-40.8"/>
</g>
<g id="clust4" class="cluster">
<title>cluster_PasswordPageModule_imports</title>
<polygon fill="none" stroke="black" points="16,-40.8 16,-92.8 567,-92.8 567,-40.8 16,-40.8"/>
</g>
<!-- PasswordPage -->
<g id="node1" class="node">
<title>PasswordPage</title>
<polygon fill="#ffffb3" stroke="black" points="679.37,-84.8 582.63,-84.8 582.63,-48.8 679.37,-48.8 679.37,-84.8"/>
<text text-anchor="middle" x="631" y="-62.6" font-family="Times,serif" font-size="14.00">PasswordPage</text>
</g>
<!-- PasswordPageModule -->
<g id="node2" class="node">
<title>PasswordPageModule</title>
<polygon fill="#8dd3c7" stroke="black" points="452.42,-149.8 449.42,-153.8 428.42,-153.8 425.42,-149.8 311.58,-149.8 311.58,-113.8 452.42,-113.8 452.42,-149.8"/>
<text text-anchor="middle" x="382" y="-127.6" font-family="Times,serif" font-size="14.00">PasswordPageModule</text>
</g>
<!-- PasswordPage&#45;&gt;PasswordPageModule -->
<g id="edge1" class="edge">
<title>PasswordPage&#45;&gt;PasswordPageModule</title>
<path fill="none" stroke="black" d="M631,-84.91C631,-104.14 631,-131.8 631,-131.8 631,-131.8 462.35,-131.8 462.35,-131.8"/>
<polygon fill="black" stroke="black" points="462.36,-128.3 452.35,-131.8 462.35,-135.3 462.36,-128.3"/>
</g>
<!-- CommonModule -->
<g id="node3" class="node">
<title>CommonModule</title>
<polygon fill="#8dd3c7" stroke="black" points="558.67,-84.8 555.67,-88.8 534.67,-88.8 531.67,-84.8 447.33,-84.8 447.33,-48.8 558.67,-48.8 558.67,-84.8"/>
<text text-anchor="middle" x="503" y="-62.6" font-family="Times,serif" font-size="14.00">CommonModule</text>
</g>
<!-- CommonModule&#45;&gt;PasswordPageModule -->
<g id="edge2" class="edge">
<title>CommonModule&#45;&gt;PasswordPageModule</title>
<path fill="none" stroke="black" d="M447.13,-66.8C441.85,-66.8 438.42,-66.8 438.42,-66.8 438.42,-66.8 438.42,-103.69 438.42,-103.69"/>
<polygon fill="black" stroke="black" points="434.92,-103.69 438.42,-113.69 441.92,-103.69 434.92,-103.69"/>
</g>
<!-- FormsModule -->
<g id="node4" class="node">
<title>FormsModule</title>
<polygon fill="#8dd3c7" stroke="black" points="429.83,-84.8 426.83,-88.8 405.83,-88.8 402.83,-84.8 334.17,-84.8 334.17,-48.8 429.83,-48.8 429.83,-84.8"/>
<text text-anchor="middle" x="382" y="-62.6" font-family="Times,serif" font-size="14.00">FormsModule</text>
</g>
<!-- FormsModule&#45;&gt;PasswordPageModule -->
<g id="edge3" class="edge">
<title>FormsModule&#45;&gt;PasswordPageModule</title>
<path fill="none" stroke="black" d="M382,-84.91C382,-84.91 382,-103.79 382,-103.79"/>
<polygon fill="black" stroke="black" points="378.5,-103.79 382,-113.79 385.5,-103.79 378.5,-103.79"/>
</g>
<!-- IonicModule -->
<g id="node5" class="node">
<title>IonicModule</title>
<polygon fill="#8dd3c7" stroke="black" points="316.32,-84.8 313.32,-88.8 292.32,-88.8 289.32,-84.8 227.68,-84.8 227.68,-48.8 316.32,-48.8 316.32,-84.8"/>
<text text-anchor="middle" x="272" y="-62.6" font-family="Times,serif" font-size="14.00">IonicModule</text>
</g>
<!-- IonicModule&#45;&gt;PasswordPageModule -->
<g id="edge4" class="edge">
<title>IonicModule&#45;&gt;PasswordPageModule</title>
<path fill="none" stroke="black" d="M316.45,-66.8C321.71,-66.8 325.25,-66.8 325.25,-66.8 325.25,-66.8 325.25,-103.69 325.25,-103.69"/>
<polygon fill="black" stroke="black" points="321.75,-103.69 325.25,-113.69 328.75,-103.69 321.75,-103.69"/>
</g>
<!-- PasswordPageRoutingModule -->
<g id="node6" class="node">
<title>PasswordPageRoutingModule</title>
<polygon fill="#8dd3c7" stroke="black" points="209.53,-84.8 206.53,-88.8 185.53,-88.8 182.53,-84.8 24.47,-84.8 24.47,-48.8 209.53,-48.8 209.53,-84.8"/>
<text text-anchor="middle" x="117" y="-62.6" font-family="Times,serif" font-size="14.00">PasswordPageRoutingModule</text>
</g>
<!-- PasswordPageRoutingModule&#45;&gt;PasswordPageModule -->
<g id="edge5" class="edge">
<title>PasswordPageRoutingModule&#45;&gt;PasswordPageModule</title>
<path fill="none" stroke="black" d="M117,-84.91C117,-104.14 117,-131.8 117,-131.8 117,-131.8 301.68,-131.8 301.68,-131.8"/>
<polygon fill="black" stroke="black" points="301.68,-135.3 311.68,-131.8 301.68,-128.3 301.68,-135.3"/>
</g>
</g>
</svg>
