<?xml version="1.0" encoding="UTF-8" standalone="no"?>
<!DOCTYPE svg PUBLIC "-//W3C//DTD SVG 1.1//EN"
 "http://www.w3.org/Graphics/SVG/1.1/DTD/svg11.dtd">
<!-- Generated by graphviz version 2.47.3 (20210619.1520)
 -->
<!-- Title: dependencies Pages: 1 -->
<svg width="406pt" height="174pt"
 viewBox="0.00 0.00 406.00 173.80" xmlns="http://www.w3.org/2000/svg" xmlns:xlink="http://www.w3.org/1999/xlink">
<g id="graph0" class="graph" transform="scale(1 1) rotate(0) translate(4 169.8)">
<title>dependencies</title>
<polygon fill="white" stroke="transparent" points="-4,4 -4,-169.8 402,-169.8 402,4 -4,4"/>
<text text-anchor="middle" x="199" y="-8.2" font-family="sans-serif" font-size="14.00">dependencies</text>
<g id="clust1" class="cluster">
<title>cluster_GroupDetailsPageModule</title>
<polygon fill="none" stroke="black" stroke-dasharray="1,5" points="8,-32.8 8,-157.8 390,-157.8 390,-32.8 8,-32.8"/>
</g>
<g id="clust2" class="cluster">
<title>cluster_GroupDetailsPageModule_declarations</title>
<polygon fill="none" stroke="black" points="248,-40.8 248,-92.8 382,-92.8 382,-40.8 248,-40.8"/>
</g>
<g id="clust4" class="cluster">
<title>cluster_GroupDetailsPageModule_imports</title>
<polygon fill="none" stroke="black" points="16,-40.8 16,-92.8 240,-92.8 240,-40.8 16,-40.8"/>
</g>
<!-- GroupDetailsPage -->
<g id="node1" class="node">
<title>GroupDetailsPage</title>
<polygon fill="#ffffb3" stroke="black" points="374.13,-84.8 255.87,-84.8 255.87,-48.8 374.13,-48.8 374.13,-84.8"/>
<text text-anchor="middle" x="315" y="-62.6" font-family="Times,serif" font-size="14.00">GroupDetailsPage</text>
</g>
<!-- GroupDetailsPageModule -->
<g id="node2" class="node">
<title>GroupDetailsPageModule</title>
<polygon fill="#8dd3c7" stroke="black" points="295.18,-149.8 292.18,-153.8 271.18,-153.8 268.18,-149.8 132.82,-149.8 132.82,-113.8 295.18,-113.8 295.18,-149.8"/>
<text text-anchor="middle" x="214" y="-127.6" font-family="Times,serif" font-size="14.00">GroupDetailsPageModule</text>
</g>
<!-- GroupDetailsPage&#45;&gt;GroupDetailsPageModule -->
<g id="edge1" class="edge">
<title>GroupDetailsPage&#45;&gt;GroupDetailsPageModule</title>
<path fill="none" stroke="black" d="M275.39,-84.91C275.39,-84.91 275.39,-103.79 275.39,-103.79"/>
<polygon fill="black" stroke="black" points="271.89,-103.79 275.39,-113.79 278.89,-103.79 271.89,-103.79"/>
</g>
<!-- GroupDetailsPageRoutingModule -->
<g id="node3" class="node">
<title>GroupDetailsPageRoutingModule</title>
<polygon fill="#8dd3c7" stroke="black" points="231.8,-84.8 228.8,-88.8 207.8,-88.8 204.8,-84.8 24.2,-84.8 24.2,-48.8 231.8,-48.8 231.8,-84.8"/>
<text text-anchor="middle" x="128" y="-62.6" font-family="Times,serif" font-size="14.00">GroupDetailsPageRoutingModule</text>
</g>
<!-- GroupDetailsPageRoutingModule&#45;&gt;GroupDetailsPageModule -->
<g id="edge2" class="edge">
<title>GroupDetailsPageRoutingModule&#45;&gt;GroupDetailsPageModule</title>
<path fill="none" stroke="black" d="M182.28,-84.91C182.28,-84.91 182.28,-103.79 182.28,-103.79"/>
<polygon fill="black" stroke="black" points="178.78,-103.79 182.28,-113.79 185.78,-103.79 178.78,-103.79"/>
</g>
</g>
</svg>
