<?xml version="1.0" encoding="UTF-8" standalone="no"?>
<!DOCTYPE svg PUBLIC "-//W3C//DTD SVG 1.1//EN"
 "http://www.w3.org/Graphics/SVG/1.1/DTD/svg11.dtd">
<!-- Generated by graphviz version 2.47.3 (20210619.1520)
 -->
<!-- Title: dependencies Pages: 1 -->
<svg width="755pt" height="174pt"
 viewBox="0.00 0.00 755.00 173.80" xmlns="http://www.w3.org/2000/svg" xmlns:xlink="http://www.w3.org/1999/xlink">
<g id="graph0" class="graph" transform="scale(1 1) rotate(0) translate(4 169.8)">
<title>dependencies</title>
<polygon fill="white" stroke="transparent" points="-4,4 -4,-169.8 751,-169.8 751,4 -4,4"/>
<text text-anchor="middle" x="373.5" y="-8.2" font-family="sans-serif" font-size="14.00">dependencies</text>
<g id="clust1" class="cluster">
<title>cluster_GroupDetailsPageModule</title>
<polygon fill="none" stroke="black" stroke-dasharray="1,5" points="8,-32.8 8,-157.8 739,-157.8 739,-32.8 8,-32.8"/>
</g>
<g id="clust2" class="cluster">
<title>cluster_GroupDetailsPageModule_declarations</title>
<polygon fill="none" stroke="black" points="597,-40.8 597,-92.8 731,-92.8 731,-40.8 597,-40.8"/>
</g>
<g id="clust4" class="cluster">
<title>cluster_GroupDetailsPageModule_imports</title>
<polygon fill="none" stroke="black" points="16,-40.8 16,-92.8 589,-92.8 589,-40.8 16,-40.8"/>
</g>
<!-- GroupDetailsPage -->
<g id="node1" class="node">
<title>GroupDetailsPage</title>
<polygon fill="#ffffb3" stroke="black" points="723.13,-84.8 604.87,-84.8 604.87,-48.8 723.13,-48.8 723.13,-84.8"/>
<text text-anchor="middle" x="664" y="-62.6" font-family="Times,serif" font-size="14.00">GroupDetailsPage</text>
</g>
<!-- GroupDetailsPageModule -->
<g id="node2" class="node">
<title>GroupDetailsPageModule</title>
<polygon fill="#8dd3c7" stroke="black" points="485.18,-149.8 482.18,-153.8 461.18,-153.8 458.18,-149.8 322.82,-149.8 322.82,-113.8 485.18,-113.8 485.18,-149.8"/>
<text text-anchor="middle" x="404" y="-127.6" font-family="Times,serif" font-size="14.00">GroupDetailsPageModule</text>
</g>
<!-- GroupDetailsPage&#45;&gt;GroupDetailsPageModule -->
<g id="edge1" class="edge">
<title>GroupDetailsPage&#45;&gt;GroupDetailsPageModule</title>
<path fill="none" stroke="black" d="M664,-84.91C664,-104.14 664,-131.8 664,-131.8 664,-131.8 495.2,-131.8 495.2,-131.8"/>
<polygon fill="black" stroke="black" points="495.2,-128.3 485.2,-131.8 495.2,-135.3 495.2,-128.3"/>
</g>
<!-- CommonModule -->
<g id="node3" class="node">
<title>CommonModule</title>
<polygon fill="#8dd3c7" stroke="black" points="580.67,-84.8 577.67,-88.8 556.67,-88.8 553.67,-84.8 469.33,-84.8 469.33,-48.8 580.67,-48.8 580.67,-84.8"/>
<text text-anchor="middle" x="525" y="-62.6" font-family="Times,serif" font-size="14.00">CommonModule</text>
</g>
<!-- CommonModule&#45;&gt;GroupDetailsPageModule -->
<g id="edge2" class="edge">
<title>CommonModule&#45;&gt;GroupDetailsPageModule</title>
<path fill="none" stroke="black" d="M477.13,-84.91C477.13,-84.91 477.13,-103.79 477.13,-103.79"/>
<polygon fill="black" stroke="black" points="473.63,-103.79 477.13,-113.79 480.63,-103.79 473.63,-103.79"/>
</g>
<!-- FormsModule -->
<g id="node4" class="node">
<title>FormsModule</title>
<polygon fill="#8dd3c7" stroke="black" points="451.83,-84.8 448.83,-88.8 427.83,-88.8 424.83,-84.8 356.17,-84.8 356.17,-48.8 451.83,-48.8 451.83,-84.8"/>
<text text-anchor="middle" x="404" y="-62.6" font-family="Times,serif" font-size="14.00">FormsModule</text>
</g>
<!-- FormsModule&#45;&gt;GroupDetailsPageModule -->
<g id="edge3" class="edge">
<title>FormsModule&#45;&gt;GroupDetailsPageModule</title>
<path fill="none" stroke="black" d="M404,-84.91C404,-84.91 404,-103.79 404,-103.79"/>
<polygon fill="black" stroke="black" points="400.5,-103.79 404,-113.79 407.5,-103.79 400.5,-103.79"/>
</g>
<!-- IonicModule -->
<g id="node5" class="node">
<title>IonicModule</title>
<polygon fill="#8dd3c7" stroke="black" points="338.32,-84.8 335.32,-88.8 314.32,-88.8 311.32,-84.8 249.68,-84.8 249.68,-48.8 338.32,-48.8 338.32,-84.8"/>
<text text-anchor="middle" x="294" y="-62.6" font-family="Times,serif" font-size="14.00">IonicModule</text>
</g>
<!-- IonicModule&#45;&gt;GroupDetailsPageModule -->
<g id="edge4" class="edge">
<title>IonicModule&#45;&gt;GroupDetailsPageModule</title>
<path fill="none" stroke="black" d="M330.53,-84.91C330.53,-84.91 330.53,-103.79 330.53,-103.79"/>
<polygon fill="black" stroke="black" points="327.03,-103.79 330.53,-113.79 334.03,-103.79 327.03,-103.79"/>
</g>
<!-- GroupDetailsPageRoutingModule -->
<g id="node6" class="node">
<title>GroupDetailsPageRoutingModule</title>
<polygon fill="#8dd3c7" stroke="black" points="231.8,-84.8 228.8,-88.8 207.8,-88.8 204.8,-84.8 24.2,-84.8 24.2,-48.8 231.8,-48.8 231.8,-84.8"/>
<text text-anchor="middle" x="128" y="-62.6" font-family="Times,serif" font-size="14.00">GroupDetailsPageRoutingModule</text>
</g>
<!-- GroupDetailsPageRoutingModule&#45;&gt;GroupDetailsPageModule -->
<g id="edge5" class="edge">
<title>GroupDetailsPageRoutingModule&#45;&gt;GroupDetailsPageModule</title>
<path fill="none" stroke="black" d="M128,-84.91C128,-104.14 128,-131.8 128,-131.8 128,-131.8 312.68,-131.8 312.68,-131.8"/>
<polygon fill="black" stroke="black" points="312.68,-135.3 322.68,-131.8 312.68,-128.3 312.68,-135.3"/>
</g>
</g>
</svg>
