<?xml version="1.0" encoding="UTF-8" standalone="no"?>
<!DOCTYPE svg PUBLIC "-//W3C//DTD SVG 1.1//EN"
 "http://www.w3.org/Graphics/SVG/1.1/DTD/svg11.dtd">
<!-- Generated by graphviz version 2.47.3 (20210619.1520)
 -->
<!-- Title: dependencies Pages: 1 -->
<svg width="705pt" height="174pt"
 viewBox="0.00 0.00 705.00 173.80" xmlns="http://www.w3.org/2000/svg" xmlns:xlink="http://www.w3.org/1999/xlink">
<g id="graph0" class="graph" transform="scale(1 1) rotate(0) translate(4 169.8)">
<title>dependencies</title>
<polygon fill="white" stroke="transparent" points="-4,4 -4,-169.8 701,-169.8 701,4 -4,4"/>
<text text-anchor="middle" x="348.5" y="-8.2" font-family="sans-serif" font-size="14.00">dependencies</text>
<g id="clust1" class="cluster">
<title>cluster_StatisticsPageModule</title>
<polygon fill="none" stroke="black" stroke-dasharray="1,5" points="8,-32.8 8,-157.8 689,-157.8 689,-32.8 8,-32.8"/>
</g>
<g id="clust4" class="cluster">
<title>cluster_StatisticsPageModule_imports</title>
<polygon fill="none" stroke="black" points="134,-40.8 134,-92.8 681,-92.8 681,-40.8 134,-40.8"/>
</g>
<g id="clust2" class="cluster">
<title>cluster_StatisticsPageModule_declarations</title>
<polygon fill="none" stroke="black" points="16,-40.8 16,-92.8 126,-92.8 126,-40.8 16,-40.8"/>
</g>
<!-- StatisticsPage -->
<g id="node1" class="node">
<title>StatisticsPage</title>
<polygon fill="#ffffb3" stroke="black" points="117.77,-84.8 24.23,-84.8 24.23,-48.8 117.77,-48.8 117.77,-84.8"/>
<text text-anchor="middle" x="71" y="-62.6" font-family="Times,serif" font-size="14.00">StatisticsPage</text>
</g>
<!-- StatisticsPageModule -->
<g id="node2" class="node">
<title>StatisticsPageModule</title>
<polygon fill="#8dd3c7" stroke="black" points="454.82,-149.8 451.82,-153.8 430.82,-153.8 427.82,-149.8 317.18,-149.8 317.18,-113.8 454.82,-113.8 454.82,-149.8"/>
<text text-anchor="middle" x="386" y="-127.6" font-family="Times,serif" font-size="14.00">StatisticsPageModule</text>
</g>
<!-- StatisticsPage&#45;&gt;StatisticsPageModule -->
<g id="edge1" class="edge">
<title>StatisticsPage&#45;&gt;StatisticsPageModule</title>
<path fill="none" stroke="black" d="M71,-84.91C71,-104.14 71,-131.8 71,-131.8 71,-131.8 307.26,-131.8 307.26,-131.8"/>
<polygon fill="black" stroke="black" points="307.26,-135.3 317.26,-131.8 307.26,-128.3 307.26,-135.3"/>
</g>
<!-- CommonModule -->
<g id="node3" class="node">
<title>CommonModule</title>
<polygon fill="#8dd3c7" stroke="black" points="672.67,-84.8 669.67,-88.8 648.67,-88.8 645.67,-84.8 561.33,-84.8 561.33,-48.8 672.67,-48.8 672.67,-84.8"/>
<text text-anchor="middle" x="617" y="-62.6" font-family="Times,serif" font-size="14.00">CommonModule</text>
</g>
<!-- CommonModule&#45;&gt;StatisticsPageModule -->
<g id="edge2" class="edge">
<title>CommonModule&#45;&gt;StatisticsPageModule</title>
<path fill="none" stroke="black" d="M617,-84.91C617,-104.14 617,-131.8 617,-131.8 617,-131.8 464.68,-131.8 464.68,-131.8"/>
<polygon fill="black" stroke="black" points="464.68,-128.3 454.68,-131.8 464.68,-135.3 464.68,-128.3"/>
</g>
<!-- FormsModule -->
<g id="node4" class="node">
<title>FormsModule</title>
<polygon fill="#8dd3c7" stroke="black" points="543.83,-84.8 540.83,-88.8 519.83,-88.8 516.83,-84.8 448.17,-84.8 448.17,-48.8 543.83,-48.8 543.83,-84.8"/>
<text text-anchor="middle" x="496" y="-62.6" font-family="Times,serif" font-size="14.00">FormsModule</text>
</g>
<!-- FormsModule&#45;&gt;StatisticsPageModule -->
<g id="edge3" class="edge">
<title>FormsModule&#45;&gt;StatisticsPageModule</title>
<path fill="none" stroke="black" d="M448.11,-66.8C442.79,-66.8 439.25,-66.8 439.25,-66.8 439.25,-66.8 439.25,-103.69 439.25,-103.69"/>
<polygon fill="black" stroke="black" points="435.75,-103.69 439.25,-113.69 442.75,-103.69 435.75,-103.69"/>
</g>
<!-- IonicModule -->
<g id="node5" class="node">
<title>IonicModule</title>
<polygon fill="#8dd3c7" stroke="black" points="430.32,-84.8 427.32,-88.8 406.32,-88.8 403.32,-84.8 341.68,-84.8 341.68,-48.8 430.32,-48.8 430.32,-84.8"/>
<text text-anchor="middle" x="386" y="-62.6" font-family="Times,serif" font-size="14.00">IonicModule</text>
</g>
<!-- IonicModule&#45;&gt;StatisticsPageModule -->
<g id="edge4" class="edge">
<title>IonicModule&#45;&gt;StatisticsPageModule</title>
<path fill="none" stroke="black" d="M386,-84.91C386,-84.91 386,-103.79 386,-103.79"/>
<polygon fill="black" stroke="black" points="382.5,-103.79 386,-113.79 389.5,-103.79 382.5,-103.79"/>
</g>
<!-- StatisticsPageRoutingModule -->
<g id="node6" class="node">
<title>StatisticsPageRoutingModule</title>
<polygon fill="#8dd3c7" stroke="black" points="324.43,-84.8 321.43,-88.8 300.43,-88.8 297.43,-84.8 141.57,-84.8 141.57,-48.8 324.43,-48.8 324.43,-84.8"/>
<text text-anchor="middle" x="233" y="-62.6" font-family="Times,serif" font-size="14.00">StatisticsPageRoutingModule</text>
</g>
<!-- StatisticsPageRoutingModule&#45;&gt;StatisticsPageModule -->
<g id="edge5" class="edge">
<title>StatisticsPageRoutingModule&#45;&gt;StatisticsPageModule</title>
<path fill="none" stroke="black" d="M324.5,-66.8C329.8,-66.8 333.03,-66.8 333.03,-66.8 333.03,-66.8 333.03,-103.69 333.03,-103.69"/>
<polygon fill="black" stroke="black" points="329.53,-103.69 333.03,-113.69 336.53,-103.69 329.53,-103.69"/>
</g>
</g>
</svg>
