<?xml version="1.0" encoding="UTF-8" standalone="no"?>
<!DOCTYPE svg PUBLIC "-//W3C//DTD SVG 1.1//EN"
 "http://www.w3.org/Graphics/SVG/1.1/DTD/svg11.dtd">
<!-- Generated by graphviz version 2.47.3 (20210619.1520)
 -->
<!-- Title: dependencies Pages: 1 -->
<svg width="881pt" height="174pt"
 viewBox="0.00 0.00 881.00 173.80" xmlns="http://www.w3.org/2000/svg" xmlns:xlink="http://www.w3.org/1999/xlink">
<g id="graph0" class="graph" transform="scale(1 1) rotate(0) translate(4 169.8)">
<title>dependencies</title>
<polygon fill="white" stroke="transparent" points="-4,4 -4,-169.8 877,-169.8 877,4 -4,4"/>
<text text-anchor="middle" x="436.5" y="-8.2" font-family="sans-serif" font-size="14.00">dependencies</text>
<g id="clust1" class="cluster">
<title>cluster_HomePageModule</title>
<polygon fill="none" stroke="black" stroke-dasharray="1,5" points="8,-32.8 8,-157.8 865,-157.8 865,-32.8 8,-32.8"/>
</g>
<g id="clust4" class="cluster">
<title>cluster_HomePageModule_imports</title>
<polygon fill="none" stroke="black" points="118,-40.8 118,-92.8 857,-92.8 857,-40.8 118,-40.8"/>
</g>
<g id="clust2" class="cluster">
<title>cluster_HomePageModule_declarations</title>
<polygon fill="none" stroke="black" points="16,-40.8 16,-92.8 110,-92.8 110,-40.8 16,-40.8"/>
</g>
<!-- HomePage -->
<g id="node1" class="node">
<title>HomePage</title>
<polygon fill="#ffffb3" stroke="black" points="101.92,-84.8 24.08,-84.8 24.08,-48.8 101.92,-48.8 101.92,-84.8"/>
<text text-anchor="middle" x="63" y="-62.6" font-family="Times,serif" font-size="14.00">HomePage</text>
</g>
<!-- HomePageModule -->
<g id="node2" class="node">
<title>HomePageModule</title>
<polygon fill="#8dd3c7" stroke="black" points="549.47,-149.8 546.47,-153.8 525.47,-153.8 522.47,-149.8 428.53,-149.8 428.53,-113.8 549.47,-113.8 549.47,-149.8"/>
<text text-anchor="middle" x="489" y="-127.6" font-family="Times,serif" font-size="14.00">HomePageModule</text>
</g>
<!-- HomePage&#45;&gt;HomePageModule -->
<g id="edge1" class="edge">
<title>HomePage&#45;&gt;HomePageModule</title>
<path fill="none" stroke="black" d="M63,-85.08C63,-106.12 63,-137.8 63,-137.8 63,-137.8 418.42,-137.8 418.42,-137.8"/>
<polygon fill="black" stroke="black" points="418.42,-141.3 428.42,-137.8 418.42,-134.3 418.42,-141.3"/>
</g>
<!-- CommonModule -->
<g id="node3" class="node">
<title>CommonModule</title>
<polygon fill="#8dd3c7" stroke="black" points="848.67,-84.8 845.67,-88.8 824.67,-88.8 821.67,-84.8 737.33,-84.8 737.33,-48.8 848.67,-48.8 848.67,-84.8"/>
<text text-anchor="middle" x="793" y="-62.6" font-family="Times,serif" font-size="14.00">CommonModule</text>
</g>
<!-- CommonModule&#45;&gt;HomePageModule -->
<g id="edge2" class="edge">
<title>CommonModule&#45;&gt;HomePageModule</title>
<path fill="none" stroke="black" d="M793,-85.08C793,-106.12 793,-137.8 793,-137.8 793,-137.8 559.79,-137.8 559.79,-137.8"/>
<polygon fill="black" stroke="black" points="559.79,-134.3 549.79,-137.8 559.79,-141.3 559.79,-134.3"/>
</g>
<!-- FormsModule -->
<g id="node4" class="node">
<title>FormsModule</title>
<polygon fill="#8dd3c7" stroke="black" points="719.83,-84.8 716.83,-88.8 695.83,-88.8 692.83,-84.8 624.17,-84.8 624.17,-48.8 719.83,-48.8 719.83,-84.8"/>
<text text-anchor="middle" x="672" y="-62.6" font-family="Times,serif" font-size="14.00">FormsModule</text>
</g>
<!-- FormsModule&#45;&gt;HomePageModule -->
<g id="edge3" class="edge">
<title>FormsModule&#45;&gt;HomePageModule</title>
<path fill="none" stroke="black" d="M672,-84.82C672,-102.17 672,-125.8 672,-125.8 672,-125.8 559.68,-125.8 559.68,-125.8"/>
<polygon fill="black" stroke="black" points="559.68,-122.3 549.68,-125.8 559.68,-129.3 559.68,-122.3"/>
</g>
<!-- IonicModule -->
<g id="node5" class="node">
<title>IonicModule</title>
<polygon fill="#8dd3c7" stroke="black" points="606.32,-84.8 603.32,-88.8 582.32,-88.8 579.32,-84.8 517.68,-84.8 517.68,-48.8 606.32,-48.8 606.32,-84.8"/>
<text text-anchor="middle" x="562" y="-62.6" font-family="Times,serif" font-size="14.00">IonicModule</text>
</g>
<!-- IonicModule&#45;&gt;HomePageModule -->
<g id="edge4" class="edge">
<title>IonicModule&#45;&gt;HomePageModule</title>
<path fill="none" stroke="black" d="M533.66,-84.91C533.66,-84.91 533.66,-103.79 533.66,-103.79"/>
<polygon fill="black" stroke="black" points="530.16,-103.79 533.66,-113.79 537.16,-103.79 530.16,-103.79"/>
</g>
<!-- HomePageRoutingModule -->
<g id="node6" class="node">
<title>HomePageRoutingModule</title>
<polygon fill="#8dd3c7" stroke="black" points="500.09,-84.8 497.09,-88.8 476.09,-88.8 473.09,-84.8 333.91,-84.8 333.91,-48.8 500.09,-48.8 500.09,-84.8"/>
<text text-anchor="middle" x="417" y="-62.6" font-family="Times,serif" font-size="14.00">HomePageRoutingModule</text>
</g>
<!-- HomePageRoutingModule&#45;&gt;HomePageModule -->
<g id="edge5" class="edge">
<title>HomePageRoutingModule&#45;&gt;HomePageModule</title>
<path fill="none" stroke="black" d="M464.28,-84.91C464.28,-84.91 464.28,-103.79 464.28,-103.79"/>
<polygon fill="black" stroke="black" points="460.78,-103.79 464.28,-113.79 467.78,-103.79 460.78,-103.79"/>
</g>
<!-- TransactionCreatePageModule -->
<g id="node7" class="node">
<title>TransactionCreatePageModule</title>
<polygon fill="#8dd3c7" stroke="black" points="315.88,-84.8 312.88,-88.8 291.88,-88.8 288.88,-84.8 126.12,-84.8 126.12,-48.8 315.88,-48.8 315.88,-84.8"/>
<text text-anchor="middle" x="221" y="-62.6" font-family="Times,serif" font-size="14.00">TransactionCreatePageModule</text>
</g>
<!-- TransactionCreatePageModule&#45;&gt;HomePageModule -->
<g id="edge6" class="edge">
<title>TransactionCreatePageModule&#45;&gt;HomePageModule</title>
<path fill="none" stroke="black" d="M221,-84.82C221,-102.17 221,-125.8 221,-125.8 221,-125.8 418.52,-125.8 418.52,-125.8"/>
<polygon fill="black" stroke="black" points="418.52,-129.3 428.52,-125.8 418.52,-122.3 418.52,-129.3"/>
</g>
</g>
</svg>
