<?xml version="1.0" encoding="UTF-8" standalone="no"?>
<!DOCTYPE svg PUBLIC "-//W3C//DTD SVG 1.1//EN"
 "http://www.w3.org/Graphics/SVG/1.1/DTD/svg11.dtd">
<!-- Generated by graphviz version 2.47.3 (20210619.1520)
 -->
<!-- Title: dependencies Pages: 1 -->
<svg width="532pt" height="174pt"
 viewBox="0.00 0.00 532.00 173.80" xmlns="http://www.w3.org/2000/svg" xmlns:xlink="http://www.w3.org/1999/xlink">
<g id="graph0" class="graph" transform="scale(1 1) rotate(0) translate(4 169.8)">
<title>dependencies</title>
<polygon fill="white" stroke="transparent" points="-4,4 -4,-169.8 528,-169.8 528,4 -4,4"/>
<text text-anchor="middle" x="262" y="-8.2" font-family="sans-serif" font-size="14.00">dependencies</text>
<g id="clust1" class="cluster">
<title>cluster_HomePageModule</title>
<polygon fill="none" stroke="black" stroke-dasharray="1,5" points="8,-32.8 8,-157.8 516,-157.8 516,-32.8 8,-32.8"/>
</g>
<g id="clust4" class="cluster">
<title>cluster_HomePageModule_imports</title>
<polygon fill="none" stroke="black" points="118,-40.8 118,-92.8 508,-92.8 508,-40.8 118,-40.8"/>
</g>
<g id="clust2" class="cluster">
<title>cluster_HomePageModule_declarations</title>
<polygon fill="none" stroke="black" points="16,-40.8 16,-92.8 110,-92.8 110,-40.8 16,-40.8"/>
</g>
<!-- HomePage -->
<g id="node1" class="node">
<title>HomePage</title>
<polygon fill="#ffffb3" stroke="black" points="101.92,-84.8 24.08,-84.8 24.08,-48.8 101.92,-48.8 101.92,-84.8"/>
<text text-anchor="middle" x="63" y="-62.6" font-family="Times,serif" font-size="14.00">HomePage</text>
</g>
<!-- HomePageModule -->
<g id="node2" class="node">
<title>HomePageModule</title>
<polygon fill="#8dd3c7" stroke="black" points="281.47,-149.8 278.47,-153.8 257.47,-153.8 254.47,-149.8 160.53,-149.8 160.53,-113.8 281.47,-113.8 281.47,-149.8"/>
<text text-anchor="middle" x="221" y="-127.6" font-family="Times,serif" font-size="14.00">HomePageModule</text>
</g>
<!-- HomePage&#45;&gt;HomePageModule -->
<g id="edge1" class="edge">
<title>HomePage&#45;&gt;HomePageModule</title>
<path fill="none" stroke="black" d="M63,-84.91C63,-104.14 63,-131.8 63,-131.8 63,-131.8 150.36,-131.8 150.36,-131.8"/>
<polygon fill="black" stroke="black" points="150.36,-135.3 160.36,-131.8 150.36,-128.3 150.36,-135.3"/>
</g>
<!-- HomePageRoutingModule -->
<g id="node3" class="node">
<title>HomePageRoutingModule</title>
<polygon fill="#8dd3c7" stroke="black" points="500.09,-84.8 497.09,-88.8 476.09,-88.8 473.09,-84.8 333.91,-84.8 333.91,-48.8 500.09,-48.8 500.09,-84.8"/>
<text text-anchor="middle" x="417" y="-62.6" font-family="Times,serif" font-size="14.00">HomePageRoutingModule</text>
</g>
<!-- HomePageRoutingModule&#45;&gt;HomePageModule -->
<g id="edge2" class="edge">
<title>HomePageRoutingModule&#45;&gt;HomePageModule</title>
<path fill="none" stroke="black" d="M417,-84.91C417,-104.14 417,-131.8 417,-131.8 417,-131.8 291.67,-131.8 291.67,-131.8"/>
<polygon fill="black" stroke="black" points="291.67,-128.3 281.67,-131.8 291.67,-135.3 291.67,-128.3"/>
</g>
<!-- TransactionCreatePageModule -->
<g id="node4" class="node">
<title>TransactionCreatePageModule</title>
<polygon fill="#8dd3c7" stroke="black" points="315.88,-84.8 312.88,-88.8 291.88,-88.8 288.88,-84.8 126.12,-84.8 126.12,-48.8 315.88,-48.8 315.88,-84.8"/>
<text text-anchor="middle" x="221" y="-62.6" font-family="Times,serif" font-size="14.00">TransactionCreatePageModule</text>
</g>
<!-- TransactionCreatePageModule&#45;&gt;HomePageModule -->
<g id="edge3" class="edge">
<title>TransactionCreatePageModule&#45;&gt;HomePageModule</title>
<path fill="none" stroke="black" d="M221,-84.91C221,-84.91 221,-103.79 221,-103.79"/>
<polygon fill="black" stroke="black" points="217.5,-103.79 221,-113.79 224.5,-103.79 217.5,-103.79"/>
</g>
</g>
</svg>
