<?xml version="1.0" encoding="UTF-8" standalone="no"?>
<!DOCTYPE svg PUBLIC "-//W3C//DTD SVG 1.1//EN"
 "http://www.w3.org/Graphics/SVG/1.1/DTD/svg11.dtd">
<!-- Generated by graphviz version 2.47.3 (20210619.1520)
 -->
<!-- Title: dependencies Pages: 1 -->
<svg width="520pt" height="174pt"
 viewBox="0.00 0.00 520.00 173.80" xmlns="http://www.w3.org/2000/svg" xmlns:xlink="http://www.w3.org/1999/xlink">
<g id="graph0" class="graph" transform="scale(1 1) rotate(0) translate(4 169.8)">
<title>dependencies</title>
<polygon fill="white" stroke="transparent" points="-4,4 -4,-169.8 516,-169.8 516,4 -4,4"/>
<text text-anchor="middle" x="256" y="-8.2" font-family="sans-serif" font-size="14.00">dependencies</text>
<g id="clust1" class="cluster">
<title>cluster_TransactionParticipantsPageModule</title>
<polygon fill="none" stroke="black" stroke-dasharray="1,5" points="8,-32.8 8,-157.8 504,-157.8 504,-32.8 8,-32.8"/>
</g>
<g id="clust2" class="cluster">
<title>cluster_TransactionParticipantsPageModule_declarations</title>
<polygon fill="none" stroke="black" points="304,-40.8 304,-92.8 496,-92.8 496,-40.8 304,-40.8"/>
</g>
<g id="clust4" class="cluster">
<title>cluster_TransactionParticipantsPageModule_imports</title>
<polygon fill="none" stroke="black" points="16,-40.8 16,-92.8 296,-92.8 296,-40.8 16,-40.8"/>
</g>
<!-- TransactionParticipantsPage -->
<g id="node1" class="node">
<title>TransactionParticipantsPage</title>
<polygon fill="#ffffb3" stroke="black" points="487.89,-84.8 312.11,-84.8 312.11,-48.8 487.89,-48.8 487.89,-84.8"/>
<text text-anchor="middle" x="400" y="-62.6" font-family="Times,serif" font-size="14.00">TransactionParticipantsPage</text>
</g>
<!-- TransactionParticipantsPageModule -->
<g id="node2" class="node">
<title>TransactionParticipantsPageModule</title>
<polygon fill="#8dd3c7" stroke="black" points="380.44,-149.8 377.44,-153.8 356.44,-153.8 353.44,-149.8 161.56,-149.8 161.56,-113.8 380.44,-113.8 380.44,-149.8"/>
<text text-anchor="middle" x="271" y="-127.6" font-family="Times,serif" font-size="14.00">TransactionParticipantsPageModule</text>
</g>
<!-- TransactionParticipantsPage&#45;&gt;TransactionParticipantsPageModule -->
<g id="edge1" class="edge">
<title>TransactionParticipantsPage&#45;&gt;TransactionParticipantsPageModule</title>
<path fill="none" stroke="black" d="M346.39,-84.91C346.39,-84.91 346.39,-103.79 346.39,-103.79"/>
<polygon fill="black" stroke="black" points="342.89,-103.79 346.39,-113.79 349.89,-103.79 342.89,-103.79"/>
</g>
<!-- TransactionParticipantsPageRoutingModule -->
<g id="node3" class="node">
<title>TransactionParticipantsPageRoutingModule</title>
<polygon fill="#8dd3c7" stroke="black" points="288.06,-84.8 285.06,-88.8 264.06,-88.8 261.06,-84.8 23.94,-84.8 23.94,-48.8 288.06,-48.8 288.06,-84.8"/>
<text text-anchor="middle" x="156" y="-62.6" font-family="Times,serif" font-size="14.00">TransactionParticipantsPageRoutingModule</text>
</g>
<!-- TransactionParticipantsPageRoutingModule&#45;&gt;TransactionParticipantsPageModule -->
<g id="edge2" class="edge">
<title>TransactionParticipantsPageRoutingModule&#45;&gt;TransactionParticipantsPageModule</title>
<path fill="none" stroke="black" d="M224.78,-84.91C224.78,-84.91 224.78,-103.79 224.78,-103.79"/>
<polygon fill="black" stroke="black" points="221.28,-103.79 224.78,-113.79 228.28,-103.79 221.28,-103.79"/>
</g>
</g>
</svg>
