<?xml version="1.0" encoding="UTF-8" standalone="no"?>
<!DOCTYPE svg PUBLIC "-//W3C//DTD SVG 1.1//EN"
 "http://www.w3.org/Graphics/SVG/1.1/DTD/svg11.dtd">
<!-- Generated by graphviz version 2.47.3 (20210619.1520)
 -->
<!-- Title: dependencies Pages: 1 -->
<svg width="869pt" height="174pt"
 viewBox="0.00 0.00 869.00 173.80" xmlns="http://www.w3.org/2000/svg" xmlns:xlink="http://www.w3.org/1999/xlink">
<g id="graph0" class="graph" transform="scale(1 1) rotate(0) translate(4 169.8)">
<title>dependencies</title>
<polygon fill="white" stroke="transparent" points="-4,4 -4,-169.8 865,-169.8 865,4 -4,4"/>
<text text-anchor="middle" x="430.5" y="-8.2" font-family="sans-serif" font-size="14.00">dependencies</text>
<g id="clust1" class="cluster">
<title>cluster_TransactionParticipantsPageModule</title>
<polygon fill="none" stroke="black" stroke-dasharray="1,5" points="8,-32.8 8,-157.8 853,-157.8 853,-32.8 8,-32.8"/>
</g>
<g id="clust2" class="cluster">
<title>cluster_TransactionParticipantsPageModule_declarations</title>
<polygon fill="none" stroke="black" points="653,-40.8 653,-92.8 845,-92.8 845,-40.8 653,-40.8"/>
</g>
<g id="clust4" class="cluster">
<title>cluster_TransactionParticipantsPageModule_imports</title>
<polygon fill="none" stroke="black" points="16,-40.8 16,-92.8 645,-92.8 645,-40.8 16,-40.8"/>
</g>
<!-- TransactionParticipantsPage -->
<g id="node1" class="node">
<title>TransactionParticipantsPage</title>
<polygon fill="#ffffb3" stroke="black" points="836.89,-84.8 661.11,-84.8 661.11,-48.8 836.89,-48.8 836.89,-84.8"/>
<text text-anchor="middle" x="749" y="-62.6" font-family="Times,serif" font-size="14.00">TransactionParticipantsPage</text>
</g>
<!-- TransactionParticipantsPageModule -->
<g id="node2" class="node">
<title>TransactionParticipantsPageModule</title>
<polygon fill="#8dd3c7" stroke="black" points="569.44,-149.8 566.44,-153.8 545.44,-153.8 542.44,-149.8 350.56,-149.8 350.56,-113.8 569.44,-113.8 569.44,-149.8"/>
<text text-anchor="middle" x="460" y="-127.6" font-family="Times,serif" font-size="14.00">TransactionParticipantsPageModule</text>
</g>
<!-- TransactionParticipantsPage&#45;&gt;TransactionParticipantsPageModule -->
<g id="edge1" class="edge">
<title>TransactionParticipantsPage&#45;&gt;TransactionParticipantsPageModule</title>
<path fill="none" stroke="black" d="M749,-84.91C749,-104.14 749,-131.8 749,-131.8 749,-131.8 579.67,-131.8 579.67,-131.8"/>
<polygon fill="black" stroke="black" points="579.67,-128.3 569.67,-131.8 579.67,-135.3 579.67,-128.3"/>
</g>
<!-- CommonModule -->
<g id="node3" class="node">
<title>CommonModule</title>
<polygon fill="#8dd3c7" stroke="black" points="636.67,-84.8 633.67,-88.8 612.67,-88.8 609.67,-84.8 525.33,-84.8 525.33,-48.8 636.67,-48.8 636.67,-84.8"/>
<text text-anchor="middle" x="581" y="-62.6" font-family="Times,serif" font-size="14.00">CommonModule</text>
</g>
<!-- CommonModule&#45;&gt;TransactionParticipantsPageModule -->
<g id="edge2" class="edge">
<title>CommonModule&#45;&gt;TransactionParticipantsPageModule</title>
<path fill="none" stroke="black" d="M547.32,-84.91C547.32,-84.91 547.32,-103.79 547.32,-103.79"/>
<polygon fill="black" stroke="black" points="543.82,-103.79 547.32,-113.79 550.82,-103.79 543.82,-103.79"/>
</g>
<!-- FormsModule -->
<g id="node4" class="node">
<title>FormsModule</title>
<polygon fill="#8dd3c7" stroke="black" points="507.83,-84.8 504.83,-88.8 483.83,-88.8 480.83,-84.8 412.17,-84.8 412.17,-48.8 507.83,-48.8 507.83,-84.8"/>
<text text-anchor="middle" x="460" y="-62.6" font-family="Times,serif" font-size="14.00">FormsModule</text>
</g>
<!-- FormsModule&#45;&gt;TransactionParticipantsPageModule -->
<g id="edge3" class="edge">
<title>FormsModule&#45;&gt;TransactionParticipantsPageModule</title>
<path fill="none" stroke="black" d="M460,-84.91C460,-84.91 460,-103.79 460,-103.79"/>
<polygon fill="black" stroke="black" points="456.5,-103.79 460,-113.79 463.5,-103.79 456.5,-103.79"/>
</g>
<!-- IonicModule -->
<g id="node5" class="node">
<title>IonicModule</title>
<polygon fill="#8dd3c7" stroke="black" points="394.32,-84.8 391.32,-88.8 370.32,-88.8 367.32,-84.8 305.68,-84.8 305.68,-48.8 394.32,-48.8 394.32,-84.8"/>
<text text-anchor="middle" x="350" y="-62.6" font-family="Times,serif" font-size="14.00">IonicModule</text>
</g>
<!-- IonicModule&#45;&gt;TransactionParticipantsPageModule -->
<g id="edge4" class="edge">
<title>IonicModule&#45;&gt;TransactionParticipantsPageModule</title>
<path fill="none" stroke="black" d="M372.34,-84.91C372.34,-84.91 372.34,-103.79 372.34,-103.79"/>
<polygon fill="black" stroke="black" points="368.84,-103.79 372.34,-113.79 375.84,-103.79 368.84,-103.79"/>
</g>
<!-- TransactionParticipantsPageRoutingModule -->
<g id="node6" class="node">
<title>TransactionParticipantsPageRoutingModule</title>
<polygon fill="#8dd3c7" stroke="black" points="288.06,-84.8 285.06,-88.8 264.06,-88.8 261.06,-84.8 23.94,-84.8 23.94,-48.8 288.06,-48.8 288.06,-84.8"/>
<text text-anchor="middle" x="156" y="-62.6" font-family="Times,serif" font-size="14.00">TransactionParticipantsPageRoutingModule</text>
</g>
<!-- TransactionParticipantsPageRoutingModule&#45;&gt;TransactionParticipantsPageModule -->
<g id="edge5" class="edge">
<title>TransactionParticipantsPageRoutingModule&#45;&gt;TransactionParticipantsPageModule</title>
<path fill="none" stroke="black" d="M156,-84.91C156,-104.14 156,-131.8 156,-131.8 156,-131.8 340.25,-131.8 340.25,-131.8"/>
<polygon fill="black" stroke="black" points="340.25,-135.3 350.25,-131.8 340.25,-128.3 340.25,-135.3"/>
</g>
</g>
</svg>
