<?xml version="1.0" encoding="UTF-8" standalone="no"?>
<!DOCTYPE svg PUBLIC "-//W3C//DTD SVG 1.1//EN"
 "http://www.w3.org/Graphics/SVG/1.1/DTD/svg11.dtd">
<!-- Generated by graphviz version 2.47.3 (20210619.1520)
 -->
<!-- Title: dependencies Pages: 1 -->
<svg width="460pt" height="174pt"
 viewBox="0.00 0.00 460.00 173.80" xmlns="http://www.w3.org/2000/svg" xmlns:xlink="http://www.w3.org/1999/xlink">
<g id="graph0" class="graph" transform="scale(1 1) rotate(0) translate(4 169.8)">
<title>dependencies</title>
<polygon fill="white" stroke="transparent" points="-4,4 -4,-169.8 456,-169.8 456,4 -4,4"/>
<text text-anchor="middle" x="226" y="-8.2" font-family="sans-serif" font-size="14.00">dependencies</text>
<g id="clust1" class="cluster">
<title>cluster_TransactionStakesPageModule</title>
<polygon fill="none" stroke="black" stroke-dasharray="1,5" points="8,-32.8 8,-157.8 444,-157.8 444,-32.8 8,-32.8"/>
</g>
<g id="clust2" class="cluster">
<title>cluster_TransactionStakesPageModule_declarations</title>
<polygon fill="none" stroke="black" points="274,-40.8 274,-92.8 436,-92.8 436,-40.8 274,-40.8"/>
</g>
<g id="clust4" class="cluster">
<title>cluster_TransactionStakesPageModule_imports</title>
<polygon fill="none" stroke="black" points="16,-40.8 16,-92.8 266,-92.8 266,-40.8 16,-40.8"/>
</g>
<!-- TransactionStakesPage -->
<g id="node1" class="node">
<title>TransactionStakesPage</title>
<polygon fill="#ffffb3" stroke="black" points="427.84,-84.8 282.16,-84.8 282.16,-48.8 427.84,-48.8 427.84,-84.8"/>
<text text-anchor="middle" x="355" y="-62.6" font-family="Times,serif" font-size="14.00">TransactionStakesPage</text>
</g>
<!-- TransactionStakesPageModule -->
<g id="node2" class="node">
<title>TransactionStakesPageModule</title>
<polygon fill="#8dd3c7" stroke="black" points="335.89,-149.8 332.89,-153.8 311.89,-153.8 308.89,-149.8 146.11,-149.8 146.11,-113.8 335.89,-113.8 335.89,-149.8"/>
<text text-anchor="middle" x="241" y="-127.6" font-family="Times,serif" font-size="14.00">TransactionStakesPageModule</text>
</g>
<!-- TransactionStakesPage&#45;&gt;TransactionStakesPageModule -->
<g id="edge1" class="edge">
<title>TransactionStakesPage&#45;&gt;TransactionStakesPageModule</title>
<path fill="none" stroke="black" d="M308.89,-84.91C308.89,-84.91 308.89,-103.79 308.89,-103.79"/>
<polygon fill="black" stroke="black" points="305.39,-103.79 308.89,-113.79 312.39,-103.79 305.39,-103.79"/>
</g>
<!-- TransactionStakesPageRoutingModule -->
<g id="node3" class="node">
<title>TransactionStakesPageRoutingModule</title>
<polygon fill="#8dd3c7" stroke="black" points="258.01,-84.8 255.01,-88.8 234.01,-88.8 231.01,-84.8 23.99,-84.8 23.99,-48.8 258.01,-48.8 258.01,-84.8"/>
<text text-anchor="middle" x="141" y="-62.6" font-family="Times,serif" font-size="14.00">TransactionStakesPageRoutingModule</text>
</g>
<!-- TransactionStakesPageRoutingModule&#45;&gt;TransactionStakesPageModule -->
<g id="edge2" class="edge">
<title>TransactionStakesPageRoutingModule&#45;&gt;TransactionStakesPageModule</title>
<path fill="none" stroke="black" d="M202.28,-84.91C202.28,-84.91 202.28,-103.79 202.28,-103.79"/>
<polygon fill="black" stroke="black" points="198.78,-103.79 202.28,-113.79 205.78,-103.79 198.78,-103.79"/>
</g>
</g>
</svg>
