<?xml version="1.0" encoding="UTF-8" standalone="no"?>
<!DOCTYPE svg PUBLIC "-//W3C//DTD SVG 1.1//EN"
 "http://www.w3.org/Graphics/SVG/1.1/DTD/svg11.dtd">
<!-- Generated by graphviz version 2.47.3 (20210619.1520)
 -->
<!-- Title: dependencies Pages: 1 -->
<svg width="749pt" height="174pt"
 viewBox="0.00 0.00 749.00 173.80" xmlns="http://www.w3.org/2000/svg" xmlns:xlink="http://www.w3.org/1999/xlink">
<g id="graph0" class="graph" transform="scale(1 1) rotate(0) translate(4 169.8)">
<title>dependencies</title>
<polygon fill="white" stroke="transparent" points="-4,4 -4,-169.8 745,-169.8 745,4 -4,4"/>
<text text-anchor="middle" x="370.5" y="-8.2" font-family="sans-serif" font-size="14.00">dependencies</text>
<g id="clust1" class="cluster">
<title>cluster_GroupCreatePageModule</title>
<polygon fill="none" stroke="black" stroke-dasharray="1,5" points="8,-32.8 8,-157.8 733,-157.8 733,-32.8 8,-32.8"/>
</g>
<g id="clust2" class="cluster">
<title>cluster_GroupCreatePageModule_declarations</title>
<polygon fill="none" stroke="black" points="593,-40.8 593,-92.8 725,-92.8 725,-40.8 593,-40.8"/>
</g>
<g id="clust4" class="cluster">
<title>cluster_GroupCreatePageModule_imports</title>
<polygon fill="none" stroke="black" points="16,-40.8 16,-92.8 585,-92.8 585,-40.8 16,-40.8"/>
</g>
<!-- GroupCreatePage -->
<g id="node1" class="node">
<title>GroupCreatePage</title>
<polygon fill="#ffffb3" stroke="black" points="716.51,-84.8 601.49,-84.8 601.49,-48.8 716.51,-48.8 716.51,-84.8"/>
<text text-anchor="middle" x="659" y="-62.6" font-family="Times,serif" font-size="14.00">GroupCreatePage</text>
</g>
<!-- GroupCreatePageModule -->
<g id="node2" class="node">
<title>GroupCreatePageModule</title>
<polygon fill="#8dd3c7" stroke="black" points="479.56,-149.8 476.56,-153.8 455.56,-153.8 452.56,-149.8 320.44,-149.8 320.44,-113.8 479.56,-113.8 479.56,-149.8"/>
<text text-anchor="middle" x="400" y="-127.6" font-family="Times,serif" font-size="14.00">GroupCreatePageModule</text>
</g>
<!-- GroupCreatePage&#45;&gt;GroupCreatePageModule -->
<g id="edge1" class="edge">
<title>GroupCreatePage&#45;&gt;GroupCreatePageModule</title>
<path fill="none" stroke="black" d="M659,-84.91C659,-104.14 659,-131.8 659,-131.8 659,-131.8 489.82,-131.8 489.82,-131.8"/>
<polygon fill="black" stroke="black" points="489.82,-128.3 479.82,-131.8 489.82,-135.3 489.82,-128.3"/>
</g>
<!-- CommonModule -->
<g id="node3" class="node">
<title>CommonModule</title>
<polygon fill="#8dd3c7" stroke="black" points="576.67,-84.8 573.67,-88.8 552.67,-88.8 549.67,-84.8 465.33,-84.8 465.33,-48.8 576.67,-48.8 576.67,-84.8"/>
<text text-anchor="middle" x="521" y="-62.6" font-family="Times,serif" font-size="14.00">CommonModule</text>
</g>
<!-- CommonModule&#45;&gt;GroupCreatePageModule -->
<g id="edge2" class="edge">
<title>CommonModule&#45;&gt;GroupCreatePageModule</title>
<path fill="none" stroke="black" d="M472.35,-84.91C472.35,-84.91 472.35,-103.79 472.35,-103.79"/>
<polygon fill="black" stroke="black" points="468.85,-103.79 472.35,-113.79 475.85,-103.79 468.85,-103.79"/>
</g>
<!-- FormsModule -->
<g id="node4" class="node">
<title>FormsModule</title>
<polygon fill="#8dd3c7" stroke="black" points="447.83,-84.8 444.83,-88.8 423.83,-88.8 420.83,-84.8 352.17,-84.8 352.17,-48.8 447.83,-48.8 447.83,-84.8"/>
<text text-anchor="middle" x="400" y="-62.6" font-family="Times,serif" font-size="14.00">FormsModule</text>
</g>
<!-- FormsModule&#45;&gt;GroupCreatePageModule -->
<g id="edge3" class="edge">
<title>FormsModule&#45;&gt;GroupCreatePageModule</title>
<path fill="none" stroke="black" d="M400,-84.91C400,-84.91 400,-103.79 400,-103.79"/>
<polygon fill="black" stroke="black" points="396.5,-103.79 400,-113.79 403.5,-103.79 396.5,-103.79"/>
</g>
<!-- IonicModule -->
<g id="node5" class="node">
<title>IonicModule</title>
<polygon fill="#8dd3c7" stroke="black" points="334.32,-84.8 331.32,-88.8 310.32,-88.8 307.32,-84.8 245.68,-84.8 245.68,-48.8 334.32,-48.8 334.32,-84.8"/>
<text text-anchor="middle" x="290" y="-62.6" font-family="Times,serif" font-size="14.00">IonicModule</text>
</g>
<!-- IonicModule&#45;&gt;GroupCreatePageModule -->
<g id="edge4" class="edge">
<title>IonicModule&#45;&gt;GroupCreatePageModule</title>
<path fill="none" stroke="black" d="M327.31,-84.91C327.31,-84.91 327.31,-103.79 327.31,-103.79"/>
<polygon fill="black" stroke="black" points="323.81,-103.79 327.31,-113.79 330.81,-103.79 323.81,-103.79"/>
</g>
<!-- GroupCreatePageRoutingModule -->
<g id="node6" class="node">
<title>GroupCreatePageRoutingModule</title>
<polygon fill="#8dd3c7" stroke="black" points="228.18,-84.8 225.18,-88.8 204.18,-88.8 201.18,-84.8 23.82,-84.8 23.82,-48.8 228.18,-48.8 228.18,-84.8"/>
<text text-anchor="middle" x="126" y="-62.6" font-family="Times,serif" font-size="14.00">GroupCreatePageRoutingModule</text>
</g>
<!-- GroupCreatePageRoutingModule&#45;&gt;GroupCreatePageModule -->
<g id="edge5" class="edge">
<title>GroupCreatePageRoutingModule&#45;&gt;GroupCreatePageModule</title>
<path fill="none" stroke="black" d="M126,-84.91C126,-104.14 126,-131.8 126,-131.8 126,-131.8 310.38,-131.8 310.38,-131.8"/>
<polygon fill="black" stroke="black" points="310.38,-135.3 320.38,-131.8 310.38,-128.3 310.38,-135.3"/>
</g>
</g>
</svg>
