<?xml version="1.0" encoding="UTF-8" standalone="no"?>
<!DOCTYPE svg PUBLIC "-//W3C//DTD SVG 1.1//EN"
 "http://www.w3.org/Graphics/SVG/1.1/DTD/svg11.dtd">
<!-- Generated by graphviz version 2.47.3 (20210619.1520)
 -->
<!-- Title: dependencies Pages: 1 -->
<svg width="340pt" height="174pt"
 viewBox="0.00 0.00 340.00 173.80" xmlns="http://www.w3.org/2000/svg" xmlns:xlink="http://www.w3.org/1999/xlink">
<g id="graph0" class="graph" transform="scale(1 1) rotate(0) translate(4 169.8)">
<title>dependencies</title>
<polygon fill="white" stroke="transparent" points="-4,4 -4,-169.8 336,-169.8 336,4 -4,4"/>
<text text-anchor="middle" x="166" y="-8.2" font-family="sans-serif" font-size="14.00">dependencies</text>
<g id="clust1" class="cluster">
<title>cluster_PrivacyPageModule</title>
<polygon fill="none" stroke="black" stroke-dasharray="1,5" points="8,-32.8 8,-157.8 324,-157.8 324,-32.8 8,-32.8"/>
</g>
<g id="clust2" class="cluster">
<title>cluster_PrivacyPageModule_declarations</title>
<polygon fill="none" stroke="black" points="214,-40.8 214,-92.8 316,-92.8 316,-40.8 214,-40.8"/>
</g>
<g id="clust4" class="cluster">
<title>cluster_PrivacyPageModule_imports</title>
<polygon fill="none" stroke="black" points="16,-40.8 16,-92.8 206,-92.8 206,-40.8 16,-40.8"/>
</g>
<!-- PrivacyPage -->
<g id="node1" class="node">
<title>PrivacyPage</title>
<polygon fill="#ffffb3" stroke="black" points="307.97,-84.8 222.03,-84.8 222.03,-48.8 307.97,-48.8 307.97,-84.8"/>
<text text-anchor="middle" x="265" y="-62.6" font-family="Times,serif" font-size="14.00">PrivacyPage</text>
</g>
<!-- PrivacyPageModule -->
<g id="node2" class="node">
<title>PrivacyPageModule</title>
<polygon fill="#8dd3c7" stroke="black" points="245.53,-149.8 242.53,-153.8 221.53,-153.8 218.53,-149.8 116.47,-149.8 116.47,-113.8 245.53,-113.8 245.53,-149.8"/>
<text text-anchor="middle" x="181" y="-127.6" font-family="Times,serif" font-size="14.00">PrivacyPageModule</text>
</g>
<!-- PrivacyPage&#45;&gt;PrivacyPageModule -->
<g id="edge1" class="edge">
<title>PrivacyPage&#45;&gt;PrivacyPageModule</title>
<path fill="none" stroke="black" d="M233.89,-84.91C233.89,-84.91 233.89,-103.79 233.89,-103.79"/>
<polygon fill="black" stroke="black" points="230.39,-103.79 233.89,-113.79 237.39,-103.79 230.39,-103.79"/>
</g>
<!-- PrivacyPageRoutingModule -->
<g id="node3" class="node">
<title>PrivacyPageRoutingModule</title>
<polygon fill="#8dd3c7" stroke="black" points="198.14,-84.8 195.14,-88.8 174.14,-88.8 171.14,-84.8 23.86,-84.8 23.86,-48.8 198.14,-48.8 198.14,-84.8"/>
<text text-anchor="middle" x="111" y="-62.6" font-family="Times,serif" font-size="14.00">PrivacyPageRoutingModule</text>
</g>
<!-- PrivacyPageRoutingModule&#45;&gt;PrivacyPageModule -->
<g id="edge2" class="edge">
<title>PrivacyPageRoutingModule&#45;&gt;PrivacyPageModule</title>
<path fill="none" stroke="black" d="M157.28,-84.91C157.28,-84.91 157.28,-103.79 157.28,-103.79"/>
<polygon fill="black" stroke="black" points="153.78,-103.79 157.28,-113.79 160.78,-103.79 153.78,-103.79"/>
</g>
</g>
</svg>
