<?xml version="1.0" encoding="UTF-8" standalone="no"?>
<!DOCTYPE svg PUBLIC "-//W3C//DTD SVG 1.1//EN"
 "http://www.w3.org/Graphics/SVG/1.1/DTD/svg11.dtd">
<!-- Generated by graphviz version 2.47.3 (20210619.1520)
 -->
<!-- Title: dependencies Pages: 1 -->
<svg width="689pt" height="174pt"
 viewBox="0.00 0.00 689.00 173.80" xmlns="http://www.w3.org/2000/svg" xmlns:xlink="http://www.w3.org/1999/xlink">
<g id="graph0" class="graph" transform="scale(1 1) rotate(0) translate(4 169.8)">
<title>dependencies</title>
<polygon fill="white" stroke="transparent" points="-4,4 -4,-169.8 685,-169.8 685,4 -4,4"/>
<text text-anchor="middle" x="340.5" y="-8.2" font-family="sans-serif" font-size="14.00">dependencies</text>
<g id="clust1" class="cluster">
<title>cluster_PrivacyPageModule</title>
<polygon fill="none" stroke="black" stroke-dasharray="1,5" points="8,-32.8 8,-157.8 673,-157.8 673,-32.8 8,-32.8"/>
</g>
<g id="clust2" class="cluster">
<title>cluster_PrivacyPageModule_declarations</title>
<polygon fill="none" stroke="black" points="563,-40.8 563,-92.8 665,-92.8 665,-40.8 563,-40.8"/>
</g>
<g id="clust4" class="cluster">
<title>cluster_PrivacyPageModule_imports</title>
<polygon fill="none" stroke="black" points="16,-40.8 16,-92.8 555,-92.8 555,-40.8 16,-40.8"/>
</g>
<!-- PrivacyPage -->
<g id="node1" class="node">
<title>PrivacyPage</title>
<polygon fill="#ffffb3" stroke="black" points="656.97,-84.8 571.03,-84.8 571.03,-48.8 656.97,-48.8 656.97,-84.8"/>
<text text-anchor="middle" x="614" y="-62.6" font-family="Times,serif" font-size="14.00">PrivacyPage</text>
</g>
<!-- PrivacyPageModule -->
<g id="node2" class="node">
<title>PrivacyPageModule</title>
<polygon fill="#8dd3c7" stroke="black" points="434.53,-149.8 431.53,-153.8 410.53,-153.8 407.53,-149.8 305.47,-149.8 305.47,-113.8 434.53,-113.8 434.53,-149.8"/>
<text text-anchor="middle" x="370" y="-127.6" font-family="Times,serif" font-size="14.00">PrivacyPageModule</text>
</g>
<!-- PrivacyPage&#45;&gt;PrivacyPageModule -->
<g id="edge1" class="edge">
<title>PrivacyPage&#45;&gt;PrivacyPageModule</title>
<path fill="none" stroke="black" d="M614,-84.91C614,-104.14 614,-131.8 614,-131.8 614,-131.8 444.75,-131.8 444.75,-131.8"/>
<polygon fill="black" stroke="black" points="444.75,-128.3 434.75,-131.8 444.75,-135.3 444.75,-128.3"/>
</g>
<!-- CommonModule -->
<g id="node3" class="node">
<title>CommonModule</title>
<polygon fill="#8dd3c7" stroke="black" points="546.67,-84.8 543.67,-88.8 522.67,-88.8 519.67,-84.8 435.33,-84.8 435.33,-48.8 546.67,-48.8 546.67,-84.8"/>
<text text-anchor="middle" x="491" y="-62.6" font-family="Times,serif" font-size="14.00">CommonModule</text>
</g>
<!-- CommonModule&#45;&gt;PrivacyPageModule -->
<g id="edge2" class="edge">
<title>CommonModule&#45;&gt;PrivacyPageModule</title>
<path fill="none" stroke="black" d="M435.22,-66.8C429.77,-66.8 426.21,-66.8 426.21,-66.8 426.21,-66.8 426.21,-103.69 426.21,-103.69"/>
<polygon fill="black" stroke="black" points="422.71,-103.69 426.21,-113.69 429.71,-103.69 422.71,-103.69"/>
</g>
<!-- FormsModule -->
<g id="node4" class="node">
<title>FormsModule</title>
<polygon fill="#8dd3c7" stroke="black" points="417.83,-84.8 414.83,-88.8 393.83,-88.8 390.83,-84.8 322.17,-84.8 322.17,-48.8 417.83,-48.8 417.83,-84.8"/>
<text text-anchor="middle" x="370" y="-62.6" font-family="Times,serif" font-size="14.00">FormsModule</text>
</g>
<!-- FormsModule&#45;&gt;PrivacyPageModule -->
<g id="edge3" class="edge">
<title>FormsModule&#45;&gt;PrivacyPageModule</title>
<path fill="none" stroke="black" d="M370,-84.91C370,-84.91 370,-103.79 370,-103.79"/>
<polygon fill="black" stroke="black" points="366.5,-103.79 370,-113.79 373.5,-103.79 366.5,-103.79"/>
</g>
<!-- IonicModule -->
<g id="node5" class="node">
<title>IonicModule</title>
<polygon fill="#8dd3c7" stroke="black" points="304.32,-84.8 301.32,-88.8 280.32,-88.8 277.32,-84.8 215.68,-84.8 215.68,-48.8 304.32,-48.8 304.32,-84.8"/>
<text text-anchor="middle" x="260" y="-62.6" font-family="Times,serif" font-size="14.00">IonicModule</text>
</g>
<!-- IonicModule&#45;&gt;PrivacyPageModule -->
<g id="edge4" class="edge">
<title>IonicModule&#45;&gt;PrivacyPageModule</title>
<path fill="none" stroke="black" d="M304.42,-66.8C309.99,-66.8 313.79,-66.8 313.79,-66.8 313.79,-66.8 313.79,-103.69 313.79,-103.69"/>
<polygon fill="black" stroke="black" points="310.29,-103.69 313.79,-113.69 317.29,-103.69 310.29,-103.69"/>
</g>
<!-- PrivacyPageRoutingModule -->
<g id="node6" class="node">
<title>PrivacyPageRoutingModule</title>
<polygon fill="#8dd3c7" stroke="black" points="198.14,-84.8 195.14,-88.8 174.14,-88.8 171.14,-84.8 23.86,-84.8 23.86,-48.8 198.14,-48.8 198.14,-84.8"/>
<text text-anchor="middle" x="111" y="-62.6" font-family="Times,serif" font-size="14.00">PrivacyPageRoutingModule</text>
</g>
<!-- PrivacyPageRoutingModule&#45;&gt;PrivacyPageModule -->
<g id="edge5" class="edge">
<title>PrivacyPageRoutingModule&#45;&gt;PrivacyPageModule</title>
<path fill="none" stroke="black" d="M111,-84.91C111,-104.14 111,-131.8 111,-131.8 111,-131.8 295.31,-131.8 295.31,-131.8"/>
<polygon fill="black" stroke="black" points="295.31,-135.3 305.31,-131.8 295.31,-128.3 295.31,-135.3"/>
</g>
</g>
</svg>
