<?xml version="1.0" encoding="UTF-8" standalone="no"?>
<!DOCTYPE svg PUBLIC "-//W3C//DTD SVG 1.1//EN"
 "http://www.w3.org/Graphics/SVG/1.1/DTD/svg11.dtd">
<!-- Generated by graphviz version 2.47.3 (20210619.1520)
 -->
<!-- Title: dependencies Pages: 1 -->
<svg width="466pt" height="174pt"
 viewBox="0.00 0.00 466.00 173.80" xmlns="http://www.w3.org/2000/svg" xmlns:xlink="http://www.w3.org/1999/xlink">
<g id="graph0" class="graph" transform="scale(1 1) rotate(0) translate(4 169.8)">
<title>dependencies</title>
<polygon fill="white" stroke="transparent" points="-4,4 -4,-169.8 462,-169.8 462,4 -4,4"/>
<text text-anchor="middle" x="229" y="-8.2" font-family="sans-serif" font-size="14.00">dependencies</text>
<g id="clust1" class="cluster">
<title>cluster_TransactionDetailsPageModule</title>
<polygon fill="none" stroke="black" stroke-dasharray="1,5" points="8,-32.8 8,-157.8 450,-157.8 450,-32.8 8,-32.8"/>
</g>
<g id="clust4" class="cluster">
<title>cluster_TransactionDetailsPageModule_imports</title>
<polygon fill="none" stroke="black" points="188,-40.8 188,-92.8 442,-92.8 442,-40.8 188,-40.8"/>
</g>
<g id="clust2" class="cluster">
<title>cluster_TransactionDetailsPageModule_declarations</title>
<polygon fill="none" stroke="black" points="16,-40.8 16,-92.8 180,-92.8 180,-40.8 16,-40.8"/>
</g>
<!-- TransactionDetailsPage -->
<g id="node1" class="node">
<title>TransactionDetailsPage</title>
<polygon fill="#ffffb3" stroke="black" points="172.45,-84.8 23.55,-84.8 23.55,-48.8 172.45,-48.8 172.45,-84.8"/>
<text text-anchor="middle" x="98" y="-62.6" font-family="Times,serif" font-size="14.00">TransactionDetailsPage</text>
</g>
<!-- TransactionDetailsPageModule -->
<g id="node2" class="node">
<title>TransactionDetailsPageModule</title>
<polygon fill="#8dd3c7" stroke="black" points="309.5,-149.8 306.5,-153.8 285.5,-153.8 282.5,-149.8 116.5,-149.8 116.5,-113.8 309.5,-113.8 309.5,-149.8"/>
<text text-anchor="middle" x="213" y="-127.6" font-family="Times,serif" font-size="14.00">TransactionDetailsPageModule</text>
</g>
<!-- TransactionDetailsPage&#45;&gt;TransactionDetailsPageModule -->
<g id="edge1" class="edge">
<title>TransactionDetailsPage&#45;&gt;TransactionDetailsPageModule</title>
<path fill="none" stroke="black" d="M144.61,-84.91C144.61,-84.91 144.61,-103.79 144.61,-103.79"/>
<polygon fill="black" stroke="black" points="141.11,-103.79 144.61,-113.79 148.11,-103.79 141.11,-103.79"/>
</g>
<!-- TransactionDetailsPageRoutingModule -->
<g id="node3" class="node">
<title>TransactionDetailsPageRoutingModule</title>
<polygon fill="#8dd3c7" stroke="black" points="433.61,-84.8 430.61,-88.8 409.61,-88.8 406.61,-84.8 196.39,-84.8 196.39,-48.8 433.61,-48.8 433.61,-84.8"/>
<text text-anchor="middle" x="315" y="-62.6" font-family="Times,serif" font-size="14.00">TransactionDetailsPageRoutingModule</text>
</g>
<!-- TransactionDetailsPageRoutingModule&#45;&gt;TransactionDetailsPageModule -->
<g id="edge2" class="edge">
<title>TransactionDetailsPageRoutingModule&#45;&gt;TransactionDetailsPageModule</title>
<path fill="none" stroke="black" d="M252.72,-84.91C252.72,-84.91 252.72,-103.79 252.72,-103.79"/>
<polygon fill="black" stroke="black" points="249.22,-103.79 252.72,-113.79 256.22,-103.79 249.22,-103.79"/>
</g>
</g>
</svg>
