<?xml version="1.0" encoding="UTF-8" standalone="no"?>
<!DOCTYPE svg PUBLIC "-//W3C//DTD SVG 1.1//EN"
 "http://www.w3.org/Graphics/SVG/1.1/DTD/svg11.dtd">
<!-- Generated by graphviz version 2.47.3 (20210619.1520)
 -->
<!-- Title: dependencies Pages: 1 -->
<svg width="815pt" height="174pt"
 viewBox="0.00 0.00 815.00 173.80" xmlns="http://www.w3.org/2000/svg" xmlns:xlink="http://www.w3.org/1999/xlink">
<g id="graph0" class="graph" transform="scale(1 1) rotate(0) translate(4 169.8)">
<title>dependencies</title>
<polygon fill="white" stroke="transparent" points="-4,4 -4,-169.8 811,-169.8 811,4 -4,4"/>
<text text-anchor="middle" x="403.5" y="-8.2" font-family="sans-serif" font-size="14.00">dependencies</text>
<g id="clust1" class="cluster">
<title>cluster_TransactionDetailsPageModule</title>
<polygon fill="none" stroke="black" stroke-dasharray="1,5" points="8,-32.8 8,-157.8 799,-157.8 799,-32.8 8,-32.8"/>
</g>
<g id="clust4" class="cluster">
<title>cluster_TransactionDetailsPageModule_imports</title>
<polygon fill="none" stroke="black" points="188,-40.8 188,-92.8 791,-92.8 791,-40.8 188,-40.8"/>
</g>
<g id="clust2" class="cluster">
<title>cluster_TransactionDetailsPageModule_declarations</title>
<polygon fill="none" stroke="black" points="16,-40.8 16,-92.8 180,-92.8 180,-40.8 16,-40.8"/>
</g>
<!-- TransactionDetailsPage -->
<g id="node1" class="node">
<title>TransactionDetailsPage</title>
<polygon fill="#ffffb3" stroke="black" points="172.45,-84.8 23.55,-84.8 23.55,-48.8 172.45,-48.8 172.45,-84.8"/>
<text text-anchor="middle" x="98" y="-62.6" font-family="Times,serif" font-size="14.00">TransactionDetailsPage</text>
</g>
<!-- TransactionDetailsPageModule -->
<g id="node2" class="node">
<title>TransactionDetailsPageModule</title>
<polygon fill="#8dd3c7" stroke="black" points="592.5,-149.8 589.5,-153.8 568.5,-153.8 565.5,-149.8 399.5,-149.8 399.5,-113.8 592.5,-113.8 592.5,-149.8"/>
<text text-anchor="middle" x="496" y="-127.6" font-family="Times,serif" font-size="14.00">TransactionDetailsPageModule</text>
</g>
<!-- TransactionDetailsPage&#45;&gt;TransactionDetailsPageModule -->
<g id="edge1" class="edge">
<title>TransactionDetailsPage&#45;&gt;TransactionDetailsPageModule</title>
<path fill="none" stroke="black" d="M98,-84.91C98,-104.14 98,-131.8 98,-131.8 98,-131.8 389.66,-131.8 389.66,-131.8"/>
<polygon fill="black" stroke="black" points="389.66,-135.3 399.66,-131.8 389.66,-128.3 389.66,-135.3"/>
</g>
<!-- CommonModule -->
<g id="node3" class="node">
<title>CommonModule</title>
<polygon fill="#8dd3c7" stroke="black" points="782.67,-84.8 779.67,-88.8 758.67,-88.8 755.67,-84.8 671.33,-84.8 671.33,-48.8 782.67,-48.8 782.67,-84.8"/>
<text text-anchor="middle" x="727" y="-62.6" font-family="Times,serif" font-size="14.00">CommonModule</text>
</g>
<!-- CommonModule&#45;&gt;TransactionDetailsPageModule -->
<g id="edge2" class="edge">
<title>CommonModule&#45;&gt;TransactionDetailsPageModule</title>
<path fill="none" stroke="black" d="M727,-84.91C727,-104.14 727,-131.8 727,-131.8 727,-131.8 602.29,-131.8 602.29,-131.8"/>
<polygon fill="black" stroke="black" points="602.29,-128.3 592.29,-131.8 602.29,-135.3 602.29,-128.3"/>
</g>
<!-- FormsModule -->
<g id="node4" class="node">
<title>FormsModule</title>
<polygon fill="#8dd3c7" stroke="black" points="653.83,-84.8 650.83,-88.8 629.83,-88.8 626.83,-84.8 558.17,-84.8 558.17,-48.8 653.83,-48.8 653.83,-84.8"/>
<text text-anchor="middle" x="606" y="-62.6" font-family="Times,serif" font-size="14.00">FormsModule</text>
</g>
<!-- FormsModule&#45;&gt;TransactionDetailsPageModule -->
<g id="edge3" class="edge">
<title>FormsModule&#45;&gt;TransactionDetailsPageModule</title>
<path fill="none" stroke="black" d="M575.29,-84.91C575.29,-84.91 575.29,-103.79 575.29,-103.79"/>
<polygon fill="black" stroke="black" points="571.79,-103.79 575.29,-113.79 578.79,-103.79 571.79,-103.79"/>
</g>
<!-- IonicModule -->
<g id="node5" class="node">
<title>IonicModule</title>
<polygon fill="#8dd3c7" stroke="black" points="540.32,-84.8 537.32,-88.8 516.32,-88.8 513.32,-84.8 451.68,-84.8 451.68,-48.8 540.32,-48.8 540.32,-84.8"/>
<text text-anchor="middle" x="496" y="-62.6" font-family="Times,serif" font-size="14.00">IonicModule</text>
</g>
<!-- IonicModule&#45;&gt;TransactionDetailsPageModule -->
<g id="edge4" class="edge">
<title>IonicModule&#45;&gt;TransactionDetailsPageModule</title>
<path fill="none" stroke="black" d="M496,-84.91C496,-84.91 496,-103.79 496,-103.79"/>
<polygon fill="black" stroke="black" points="492.5,-103.79 496,-113.79 499.5,-103.79 492.5,-103.79"/>
</g>
<!-- TransactionDetailsPageRoutingModule -->
<g id="node6" class="node">
<title>TransactionDetailsPageRoutingModule</title>
<polygon fill="#8dd3c7" stroke="black" points="433.61,-84.8 430.61,-88.8 409.61,-88.8 406.61,-84.8 196.39,-84.8 196.39,-48.8 433.61,-48.8 433.61,-84.8"/>
<text text-anchor="middle" x="315" y="-62.6" font-family="Times,serif" font-size="14.00">TransactionDetailsPageRoutingModule</text>
</g>
<!-- TransactionDetailsPageRoutingModule&#45;&gt;TransactionDetailsPageModule -->
<g id="edge5" class="edge">
<title>TransactionDetailsPageRoutingModule&#45;&gt;TransactionDetailsPageModule</title>
<path fill="none" stroke="black" d="M416.78,-84.91C416.78,-84.91 416.78,-103.79 416.78,-103.79"/>
<polygon fill="black" stroke="black" points="413.28,-103.79 416.78,-113.79 420.28,-103.79 413.28,-103.79"/>
</g>
</g>
</svg>
