<?xml version="1.0" encoding="UTF-8" standalone="no"?>
<!DOCTYPE svg PUBLIC "-//W3C//DTD SVG 1.1//EN"
 "http://www.w3.org/Graphics/SVG/1.1/DTD/svg11.dtd">
<!-- Generated by graphviz version 2.47.3 (20210619.1520)
 -->
<!-- Title: dependencies Pages: 1 -->
<svg width="304pt" height="247pt"
 viewBox="0.00 0.00 304.00 246.80" xmlns="http://www.w3.org/2000/svg" xmlns:xlink="http://www.w3.org/1999/xlink">
<g id="graph0" class="graph" transform="scale(1 1) rotate(0) translate(4 242.8)">
<title>dependencies</title>
<polygon fill="white" stroke="transparent" points="-4,4 -4,-242.8 300,-242.8 300,4 -4,4"/>
<text text-anchor="middle" x="148" y="-8.2" font-family="sans-serif" font-size="14.00">dependencies</text>
<g id="clust1" class="cluster">
<title>cluster_TransactionParticipantsPageRoutingModule</title>
<polygon fill="none" stroke="black" stroke-dasharray="1,5" points="8,-32.8 8,-230.8 288,-230.8 288,-32.8 8,-32.8"/>
</g>
<g id="clust4" class="cluster">
<title>cluster_TransactionParticipantsPageRoutingModule_exports</title>
<polygon fill="none" stroke="black" points="89,-170.8 89,-222.8 207,-222.8 207,-170.8 89,-170.8"/>
</g>
<g id="clust3" class="cluster">
<title>cluster_TransactionParticipantsPageRoutingModule_imports</title>
<polygon fill="none" stroke="black" points="49,-40.8 49,-92.8 247,-92.8 247,-40.8 49,-40.8"/>
</g>
<!-- RouterModule.forChild(args) -->
<g id="node1" class="node">
<title>RouterModule.forChild(args)</title>
<polygon fill="#8dd3c7" stroke="black" points="238.73,-84.8 235.73,-88.8 214.73,-88.8 211.73,-84.8 57.27,-84.8 57.27,-48.8 238.73,-48.8 238.73,-84.8"/>
<text text-anchor="middle" x="148" y="-62.6" font-family="Times,serif" font-size="14.00">RouterModule.forChild(args)</text>
</g>
<!-- TransactionParticipantsPageRoutingModule -->
<g id="node2" class="node">
<title>TransactionParticipantsPageRoutingModule</title>
<polygon fill="#8dd3c7" stroke="black" points="280.06,-149.8 277.06,-153.8 256.06,-153.8 253.06,-149.8 15.94,-149.8 15.94,-113.8 280.06,-113.8 280.06,-149.8"/>
<text text-anchor="middle" x="148" y="-127.6" font-family="Times,serif" font-size="14.00">TransactionParticipantsPageRoutingModule</text>
</g>
<!-- RouterModule.forChild(args)&#45;&gt;TransactionParticipantsPageRoutingModule -->
<g id="edge1" class="edge">
<title>RouterModule.forChild(args)&#45;&gt;TransactionParticipantsPageRoutingModule</title>
<path fill="none" stroke="black" d="M148,-84.91C148,-84.91 148,-103.79 148,-103.79"/>
<polygon fill="black" stroke="black" points="144.5,-103.79 148,-113.79 151.5,-103.79 144.5,-103.79"/>
</g>
<!-- RouterModule  -->
<g id="node3" class="node">
<title>RouterModule </title>
<polygon fill="#fb8072" stroke="black" points="198.65,-214.8 97.35,-214.8 97.35,-178.8 198.65,-178.8 198.65,-214.8"/>
<text text-anchor="middle" x="148" y="-192.6" font-family="Times,serif" font-size="14.00">RouterModule </text>
</g>
<!-- TransactionParticipantsPageRoutingModule&#45;&gt;RouterModule  -->
<g id="edge2" class="edge">
<title>TransactionParticipantsPageRoutingModule&#45;&gt;RouterModule </title>
<path fill="none" stroke="black" stroke-dasharray="5,2" d="M148,-149.91C148,-149.91 148,-168.79 148,-168.79"/>
<polygon fill="black" stroke="black" points="144.5,-168.79 148,-178.79 151.5,-168.79 144.5,-168.79"/>
</g>
</g>
</svg>
