<?xml version="1.0" encoding="UTF-8" standalone="no"?>
<!DOCTYPE svg PUBLIC "-//W3C//DTD SVG 1.1//EN"
 "http://www.w3.org/Graphics/SVG/1.1/DTD/svg11.dtd">
<!-- Generated by graphviz version 2.47.3 (20210619.1520)
 -->
<!-- Title: dependencies Pages: 1 -->
<svg width="276pt" height="247pt"
 viewBox="0.00 0.00 276.00 246.80" xmlns="http://www.w3.org/2000/svg" xmlns:xlink="http://www.w3.org/1999/xlink">
<g id="graph0" class="graph" transform="scale(1 1) rotate(0) translate(4 242.8)">
<title>dependencies</title>
<polygon fill="white" stroke="transparent" points="-4,4 -4,-242.8 272,-242.8 272,4 -4,4"/>
<text text-anchor="middle" x="134" y="-8.2" font-family="sans-serif" font-size="14.00">dependencies</text>
<g id="clust1" class="cluster">
<title>cluster_PaymentReminderPageRoutingModule</title>
<polygon fill="none" stroke="black" stroke-dasharray="1,5" points="8,-32.8 8,-230.8 260,-230.8 260,-32.8 8,-32.8"/>
</g>
<g id="clust3" class="cluster">
<title>cluster_PaymentReminderPageRoutingModule_imports</title>
<polygon fill="none" stroke="black" points="35,-40.8 35,-92.8 233,-92.8 233,-40.8 35,-40.8"/>
</g>
<g id="clust4" class="cluster">
<title>cluster_PaymentReminderPageRoutingModule_exports</title>
<polygon fill="none" stroke="black" points="75,-170.8 75,-222.8 193,-222.8 193,-170.8 75,-170.8"/>
</g>
<!-- RouterModule.forChild(args) -->
<g id="node1" class="node">
<title>RouterModule.forChild(args)</title>
<polygon fill="#8dd3c7" stroke="black" points="224.73,-84.8 221.73,-88.8 200.73,-88.8 197.73,-84.8 43.27,-84.8 43.27,-48.8 224.73,-48.8 224.73,-84.8"/>
<text text-anchor="middle" x="134" y="-62.6" font-family="Times,serif" font-size="14.00">RouterModule.forChild(args)</text>
</g>
<!-- PaymentReminderPageRoutingModule -->
<g id="node2" class="node">
<title>PaymentReminderPageRoutingModule</title>
<polygon fill="#8dd3c7" stroke="black" points="252.08,-149.8 249.08,-153.8 228.08,-153.8 225.08,-149.8 15.92,-149.8 15.92,-113.8 252.08,-113.8 252.08,-149.8"/>
<text text-anchor="middle" x="134" y="-127.6" font-family="Times,serif" font-size="14.00">PaymentReminderPageRoutingModule</text>
</g>
<!-- RouterModule.forChild(args)&#45;&gt;PaymentReminderPageRoutingModule -->
<g id="edge1" class="edge">
<title>RouterModule.forChild(args)&#45;&gt;PaymentReminderPageRoutingModule</title>
<path fill="none" stroke="black" d="M134,-84.91C134,-84.91 134,-103.79 134,-103.79"/>
<polygon fill="black" stroke="black" points="130.5,-103.79 134,-113.79 137.5,-103.79 130.5,-103.79"/>
</g>
<!-- RouterModule  -->
<g id="node3" class="node">
<title>RouterModule </title>
<polygon fill="#fb8072" stroke="black" points="184.65,-214.8 83.35,-214.8 83.35,-178.8 184.65,-178.8 184.65,-214.8"/>
<text text-anchor="middle" x="134" y="-192.6" font-family="Times,serif" font-size="14.00">RouterModule </text>
</g>
<!-- PaymentReminderPageRoutingModule&#45;&gt;RouterModule  -->
<g id="edge2" class="edge">
<title>PaymentReminderPageRoutingModule&#45;&gt;RouterModule </title>
<path fill="none" stroke="black" stroke-dasharray="5,2" d="M134,-149.91C134,-149.91 134,-168.79 134,-168.79"/>
<polygon fill="black" stroke="black" points="130.5,-168.79 134,-178.79 137.5,-168.79 130.5,-168.79"/>
</g>
</g>
</svg>
