<?xml version="1.0" encoding="UTF-8" standalone="no"?>
<!DOCTYPE svg PUBLIC "-//W3C//DTD SVG 1.1//EN"
 "http://www.w3.org/Graphics/SVG/1.1/DTD/svg11.dtd">
<!-- Generated by graphviz version 2.47.3 (20210619.1520)
 -->
<!-- Title: dependencies Pages: 1 -->
<svg width="352pt" height="174pt"
 viewBox="0.00 0.00 352.00 173.80" xmlns="http://www.w3.org/2000/svg" xmlns:xlink="http://www.w3.org/1999/xlink">
<g id="graph0" class="graph" transform="scale(1 1) rotate(0) translate(4 169.8)">
<title>dependencies</title>
<polygon fill="white" stroke="transparent" points="-4,4 -4,-169.8 348,-169.8 348,4 -4,4"/>
<text text-anchor="middle" x="172" y="-8.2" font-family="sans-serif" font-size="14.00">dependencies</text>
<g id="clust1" class="cluster">
<title>cluster_PaymentPageModule</title>
<polygon fill="none" stroke="black" stroke-dasharray="1,5" points="8,-32.8 8,-157.8 336,-157.8 336,-32.8 8,-32.8"/>
</g>
<g id="clust2" class="cluster">
<title>cluster_PaymentPageModule_declarations</title>
<polygon fill="none" stroke="black" points="220,-40.8 220,-92.8 328,-92.8 328,-40.8 220,-40.8"/>
</g>
<g id="clust4" class="cluster">
<title>cluster_PaymentPageModule_imports</title>
<polygon fill="none" stroke="black" points="16,-40.8 16,-92.8 212,-92.8 212,-40.8 16,-40.8"/>
</g>
<!-- PaymentPage -->
<g id="node1" class="node">
<title>PaymentPage</title>
<polygon fill="#ffffb3" stroke="black" points="320.21,-84.8 227.79,-84.8 227.79,-48.8 320.21,-48.8 320.21,-84.8"/>
<text text-anchor="middle" x="274" y="-62.6" font-family="Times,serif" font-size="14.00">PaymentPage</text>
</g>
<!-- PaymentPageModule -->
<g id="node2" class="node">
<title>PaymentPageModule</title>
<polygon fill="#8dd3c7" stroke="black" points="254.75,-149.8 251.75,-153.8 230.75,-153.8 227.75,-149.8 119.25,-149.8 119.25,-113.8 254.75,-113.8 254.75,-149.8"/>
<text text-anchor="middle" x="187" y="-127.6" font-family="Times,serif" font-size="14.00">PaymentPageModule</text>
</g>
<!-- PaymentPage&#45;&gt;PaymentPageModule -->
<g id="edge1" class="edge">
<title>PaymentPage&#45;&gt;PaymentPageModule</title>
<path fill="none" stroke="black" d="M241.39,-84.91C241.39,-84.91 241.39,-103.79 241.39,-103.79"/>
<polygon fill="black" stroke="black" points="237.89,-103.79 241.39,-113.79 244.89,-103.79 237.89,-103.79"/>
</g>
<!-- PaymentPageRoutingModule -->
<g id="node3" class="node">
<title>PaymentPageRoutingModule</title>
<polygon fill="#8dd3c7" stroke="black" points="204.37,-84.8 201.37,-88.8 180.37,-88.8 177.37,-84.8 23.63,-84.8 23.63,-48.8 204.37,-48.8 204.37,-84.8"/>
<text text-anchor="middle" x="114" y="-62.6" font-family="Times,serif" font-size="14.00">PaymentPageRoutingModule</text>
</g>
<!-- PaymentPageRoutingModule&#45;&gt;PaymentPageModule -->
<g id="edge2" class="edge">
<title>PaymentPageRoutingModule&#45;&gt;PaymentPageModule</title>
<path fill="none" stroke="black" d="M161.78,-84.91C161.78,-84.91 161.78,-103.79 161.78,-103.79"/>
<polygon fill="black" stroke="black" points="158.28,-103.79 161.78,-113.79 165.28,-103.79 158.28,-103.79"/>
</g>
</g>
</svg>
