<?xml version="1.0" encoding="UTF-8" standalone="no"?>
<!DOCTYPE svg PUBLIC "-//W3C//DTD SVG 1.1//EN"
 "http://www.w3.org/Graphics/SVG/1.1/DTD/svg11.dtd">
<!-- Generated by graphviz version 2.47.3 (20210619.1520)
 -->
<!-- Title: dependencies Pages: 1 -->
<svg width="702pt" height="174pt"
 viewBox="0.00 0.00 702.00 173.80" xmlns="http://www.w3.org/2000/svg" xmlns:xlink="http://www.w3.org/1999/xlink">
<g id="graph0" class="graph" transform="scale(1 1) rotate(0) translate(4 169.8)">
<title>dependencies</title>
<polygon fill="white" stroke="transparent" points="-4,4 -4,-169.8 698,-169.8 698,4 -4,4"/>
<text text-anchor="middle" x="347" y="-8.2" font-family="sans-serif" font-size="14.00">dependencies</text>
<g id="clust1" class="cluster">
<title>cluster_PaymentPageModule</title>
<polygon fill="none" stroke="black" stroke-dasharray="1,5" points="8,-32.8 8,-157.8 686,-157.8 686,-32.8 8,-32.8"/>
</g>
<g id="clust4" class="cluster">
<title>cluster_PaymentPageModule_imports</title>
<polygon fill="none" stroke="black" points="132,-40.8 132,-92.8 678,-92.8 678,-40.8 132,-40.8"/>
</g>
<g id="clust2" class="cluster">
<title>cluster_PaymentPageModule_declarations</title>
<polygon fill="none" stroke="black" points="16,-40.8 16,-92.8 124,-92.8 124,-40.8 16,-40.8"/>
</g>
<!-- PaymentPage -->
<g id="node1" class="node">
<title>PaymentPage</title>
<polygon fill="#ffffb3" stroke="black" points="116.21,-84.8 23.79,-84.8 23.79,-48.8 116.21,-48.8 116.21,-84.8"/>
<text text-anchor="middle" x="70" y="-62.6" font-family="Times,serif" font-size="14.00">PaymentPage</text>
</g>
<!-- PaymentPageModule -->
<g id="node2" class="node">
<title>PaymentPageModule</title>
<polygon fill="#8dd3c7" stroke="black" points="450.75,-149.8 447.75,-153.8 426.75,-153.8 423.75,-149.8 315.25,-149.8 315.25,-113.8 450.75,-113.8 450.75,-149.8"/>
<text text-anchor="middle" x="383" y="-127.6" font-family="Times,serif" font-size="14.00">PaymentPageModule</text>
</g>
<!-- PaymentPage&#45;&gt;PaymentPageModule -->
<g id="edge1" class="edge">
<title>PaymentPage&#45;&gt;PaymentPageModule</title>
<path fill="none" stroke="black" d="M70,-84.91C70,-104.14 70,-131.8 70,-131.8 70,-131.8 305.08,-131.8 305.08,-131.8"/>
<polygon fill="black" stroke="black" points="305.08,-135.3 315.08,-131.8 305.08,-128.3 305.08,-135.3"/>
</g>
<!-- CommonModule -->
<g id="node3" class="node">
<title>CommonModule</title>
<polygon fill="#8dd3c7" stroke="black" points="669.67,-84.8 666.67,-88.8 645.67,-88.8 642.67,-84.8 558.33,-84.8 558.33,-48.8 669.67,-48.8 669.67,-84.8"/>
<text text-anchor="middle" x="614" y="-62.6" font-family="Times,serif" font-size="14.00">CommonModule</text>
</g>
<!-- CommonModule&#45;&gt;PaymentPageModule -->
<g id="edge2" class="edge">
<title>CommonModule&#45;&gt;PaymentPageModule</title>
<path fill="none" stroke="black" d="M614,-84.91C614,-104.14 614,-131.8 614,-131.8 614,-131.8 461.06,-131.8 461.06,-131.8"/>
<polygon fill="black" stroke="black" points="461.06,-128.3 451.06,-131.8 461.06,-135.3 461.06,-128.3"/>
</g>
<!-- FormsModule -->
<g id="node4" class="node">
<title>FormsModule</title>
<polygon fill="#8dd3c7" stroke="black" points="540.83,-84.8 537.83,-88.8 516.83,-88.8 513.83,-84.8 445.17,-84.8 445.17,-48.8 540.83,-48.8 540.83,-84.8"/>
<text text-anchor="middle" x="493" y="-62.6" font-family="Times,serif" font-size="14.00">FormsModule</text>
</g>
<!-- FormsModule&#45;&gt;PaymentPageModule -->
<g id="edge3" class="edge">
<title>FormsModule&#45;&gt;PaymentPageModule</title>
<path fill="none" stroke="black" d="M445.11,-66.8C439.79,-66.8 436.25,-66.8 436.25,-66.8 436.25,-66.8 436.25,-103.69 436.25,-103.69"/>
<polygon fill="black" stroke="black" points="432.75,-103.69 436.25,-113.69 439.75,-103.69 432.75,-103.69"/>
</g>
<!-- IonicModule -->
<g id="node5" class="node">
<title>IonicModule</title>
<polygon fill="#8dd3c7" stroke="black" points="427.32,-84.8 424.32,-88.8 403.32,-88.8 400.32,-84.8 338.68,-84.8 338.68,-48.8 427.32,-48.8 427.32,-84.8"/>
<text text-anchor="middle" x="383" y="-62.6" font-family="Times,serif" font-size="14.00">IonicModule</text>
</g>
<!-- IonicModule&#45;&gt;PaymentPageModule -->
<g id="edge4" class="edge">
<title>IonicModule&#45;&gt;PaymentPageModule</title>
<path fill="none" stroke="black" d="M383,-84.91C383,-84.91 383,-103.79 383,-103.79"/>
<polygon fill="black" stroke="black" points="379.5,-103.79 383,-113.79 386.5,-103.79 379.5,-103.79"/>
</g>
<!-- PaymentPageRoutingModule -->
<g id="node6" class="node">
<title>PaymentPageRoutingModule</title>
<polygon fill="#8dd3c7" stroke="black" points="320.37,-84.8 317.37,-88.8 296.37,-88.8 293.37,-84.8 139.63,-84.8 139.63,-48.8 320.37,-48.8 320.37,-84.8"/>
<text text-anchor="middle" x="230" y="-62.6" font-family="Times,serif" font-size="14.00">PaymentPageRoutingModule</text>
</g>
<!-- PaymentPageRoutingModule&#45;&gt;PaymentPageModule -->
<g id="edge5" class="edge">
<title>PaymentPageRoutingModule&#45;&gt;PaymentPageModule</title>
<path fill="none" stroke="black" d="M320.44,-66.8C326.14,-66.8 329.64,-66.8 329.64,-66.8 329.64,-66.8 329.64,-103.69 329.64,-103.69"/>
<polygon fill="black" stroke="black" points="326.14,-103.69 329.64,-113.69 333.14,-103.69 326.14,-103.69"/>
</g>
</g>
</svg>
