<?xml version="1.0" encoding="UTF-8" standalone="no"?>
<!DOCTYPE svg PUBLIC "-//W3C//DTD SVG 1.1//EN"
 "http://www.w3.org/Graphics/SVG/1.1/DTD/svg11.dtd">
<!-- Generated by graphviz version 2.47.3 (20210619.1520)
 -->
<!-- Title: dependencies Pages: 1 -->
<svg width="671pt" height="174pt"
 viewBox="0.00 0.00 671.00 173.80" xmlns="http://www.w3.org/2000/svg" xmlns:xlink="http://www.w3.org/1999/xlink">
<g id="graph0" class="graph" transform="scale(1 1) rotate(0) translate(4 169.8)">
<title>dependencies</title>
<polygon fill="white" stroke="transparent" points="-4,4 -4,-169.8 667,-169.8 667,4 -4,4"/>
<text text-anchor="middle" x="331.5" y="-8.2" font-family="sans-serif" font-size="14.00">dependencies</text>
<g id="clust1" class="cluster">
<title>cluster_LoginPageModule</title>
<polygon fill="none" stroke="black" stroke-dasharray="1,5" points="8,-32.8 8,-157.8 655,-157.8 655,-32.8 8,-32.8"/>
</g>
<g id="clust2" class="cluster">
<title>cluster_LoginPageModule_declarations</title>
<polygon fill="none" stroke="black" points="555,-40.8 555,-92.8 647,-92.8 647,-40.8 555,-40.8"/>
</g>
<g id="clust4" class="cluster">
<title>cluster_LoginPageModule_imports</title>
<polygon fill="none" stroke="black" points="16,-40.8 16,-92.8 547,-92.8 547,-40.8 16,-40.8"/>
</g>
<!-- LoginPage -->
<g id="node1" class="node">
<title>LoginPage</title>
<polygon fill="#ffffb3" stroke="black" points="639.16,-84.8 562.84,-84.8 562.84,-48.8 639.16,-48.8 639.16,-84.8"/>
<text text-anchor="middle" x="601" y="-62.6" font-family="Times,serif" font-size="14.00">LoginPage</text>
</g>
<!-- LoginPageModule -->
<g id="node2" class="node">
<title>LoginPageModule</title>
<polygon fill="#8dd3c7" stroke="black" points="422.2,-149.8 419.2,-153.8 398.2,-153.8 395.2,-149.8 301.8,-149.8 301.8,-113.8 422.2,-113.8 422.2,-149.8"/>
<text text-anchor="middle" x="362" y="-127.6" font-family="Times,serif" font-size="14.00">LoginPageModule</text>
</g>
<!-- LoginPage&#45;&gt;LoginPageModule -->
<g id="edge1" class="edge">
<title>LoginPage&#45;&gt;LoginPageModule</title>
<path fill="none" stroke="black" d="M601,-84.91C601,-104.14 601,-131.8 601,-131.8 601,-131.8 432.31,-131.8 432.31,-131.8"/>
<polygon fill="black" stroke="black" points="432.31,-128.3 422.31,-131.8 432.31,-135.3 432.31,-128.3"/>
</g>
<!-- CommonModule -->
<g id="node3" class="node">
<title>CommonModule</title>
<polygon fill="#8dd3c7" stroke="black" points="538.67,-84.8 535.67,-88.8 514.67,-88.8 511.67,-84.8 427.33,-84.8 427.33,-48.8 538.67,-48.8 538.67,-84.8"/>
<text text-anchor="middle" x="483" y="-62.6" font-family="Times,serif" font-size="14.00">CommonModule</text>
</g>
<!-- CommonModule&#45;&gt;LoginPageModule -->
<g id="edge2" class="edge">
<title>CommonModule&#45;&gt;LoginPageModule</title>
<path fill="none" stroke="black" d="M427.27,-66.8C420.48,-66.8 415.88,-66.8 415.88,-66.8 415.88,-66.8 415.88,-103.69 415.88,-103.69"/>
<polygon fill="black" stroke="black" points="412.38,-103.69 415.88,-113.69 419.38,-103.69 412.38,-103.69"/>
</g>
<!-- FormsModule -->
<g id="node4" class="node">
<title>FormsModule</title>
<polygon fill="#8dd3c7" stroke="black" points="409.83,-84.8 406.83,-88.8 385.83,-88.8 382.83,-84.8 314.17,-84.8 314.17,-48.8 409.83,-48.8 409.83,-84.8"/>
<text text-anchor="middle" x="362" y="-62.6" font-family="Times,serif" font-size="14.00">FormsModule</text>
</g>
<!-- FormsModule&#45;&gt;LoginPageModule -->
<g id="edge3" class="edge">
<title>FormsModule&#45;&gt;LoginPageModule</title>
<path fill="none" stroke="black" d="M362,-84.91C362,-84.91 362,-103.79 362,-103.79"/>
<polygon fill="black" stroke="black" points="358.5,-103.79 362,-113.79 365.5,-103.79 358.5,-103.79"/>
</g>
<!-- IonicModule -->
<g id="node5" class="node">
<title>IonicModule</title>
<polygon fill="#8dd3c7" stroke="black" points="296.32,-84.8 293.32,-88.8 272.32,-88.8 269.32,-84.8 207.68,-84.8 207.68,-48.8 296.32,-48.8 296.32,-84.8"/>
<text text-anchor="middle" x="252" y="-62.6" font-family="Times,serif" font-size="14.00">IonicModule</text>
</g>
<!-- IonicModule&#45;&gt;LoginPageModule -->
<g id="edge4" class="edge">
<title>IonicModule&#45;&gt;LoginPageModule</title>
<path fill="none" stroke="black" d="M296.22,-66.8C303.17,-66.8 308.12,-66.8 308.12,-66.8 308.12,-66.8 308.12,-103.69 308.12,-103.69"/>
<polygon fill="black" stroke="black" points="304.62,-103.69 308.12,-113.69 311.62,-103.69 304.62,-103.69"/>
</g>
<!-- LoginPageRoutingModule -->
<g id="node6" class="node">
<title>LoginPageRoutingModule</title>
<polygon fill="#8dd3c7" stroke="black" points="189.82,-84.8 186.82,-88.8 165.82,-88.8 162.82,-84.8 24.18,-84.8 24.18,-48.8 189.82,-48.8 189.82,-84.8"/>
<text text-anchor="middle" x="107" y="-62.6" font-family="Times,serif" font-size="14.00">LoginPageRoutingModule</text>
</g>
<!-- LoginPageRoutingModule&#45;&gt;LoginPageModule -->
<g id="edge5" class="edge">
<title>LoginPageRoutingModule&#45;&gt;LoginPageModule</title>
<path fill="none" stroke="black" d="M107,-84.91C107,-104.14 107,-131.8 107,-131.8 107,-131.8 291.89,-131.8 291.89,-131.8"/>
<polygon fill="black" stroke="black" points="291.89,-135.3 301.89,-131.8 291.89,-128.3 291.89,-135.3"/>
</g>
</g>
</svg>
