<?xml version="1.0" encoding="UTF-8" standalone="no"?>
<!DOCTYPE svg PUBLIC "-//W3C//DTD SVG 1.1//EN"
 "http://www.w3.org/Graphics/SVG/1.1/DTD/svg11.dtd">
<!-- Generated by graphviz version 2.47.3 (20210619.1520)
 -->
<!-- Title: dependencies Pages: 1 -->
<svg width="244pt" height="247pt"
 viewBox="0.00 0.00 244.00 246.80" xmlns="http://www.w3.org/2000/svg" xmlns:xlink="http://www.w3.org/1999/xlink">
<g id="graph0" class="graph" transform="scale(1 1) rotate(0) translate(4 242.8)">
<title>dependencies</title>
<polygon fill="white" stroke="transparent" points="-4,4 -4,-242.8 240,-242.8 240,4 -4,4"/>
<text text-anchor="middle" x="118" y="-8.2" font-family="sans-serif" font-size="14.00">dependencies</text>
<g id="clust1" class="cluster">
<title>cluster_GroupCreatePageRoutingModule</title>
<polygon fill="none" stroke="black" stroke-dasharray="1,5" points="8,-32.8 8,-230.8 228,-230.8 228,-32.8 8,-32.8"/>
</g>
<g id="clust3" class="cluster">
<title>cluster_GroupCreatePageRoutingModule_imports</title>
<polygon fill="none" stroke="black" points="19,-40.8 19,-92.8 217,-92.8 217,-40.8 19,-40.8"/>
</g>
<g id="clust4" class="cluster">
<title>cluster_GroupCreatePageRoutingModule_exports</title>
<polygon fill="none" stroke="black" points="59,-170.8 59,-222.8 177,-222.8 177,-170.8 59,-170.8"/>
</g>
<!-- RouterModule.forChild(args) -->
<g id="node1" class="node">
<title>RouterModule.forChild(args)</title>
<polygon fill="#8dd3c7" stroke="black" points="208.73,-84.8 205.73,-88.8 184.73,-88.8 181.73,-84.8 27.27,-84.8 27.27,-48.8 208.73,-48.8 208.73,-84.8"/>
<text text-anchor="middle" x="118" y="-62.6" font-family="Times,serif" font-size="14.00">RouterModule.forChild(args)</text>
</g>
<!-- GroupCreatePageRoutingModule -->
<g id="node2" class="node">
<title>GroupCreatePageRoutingModule</title>
<polygon fill="#8dd3c7" stroke="black" points="220.18,-149.8 217.18,-153.8 196.18,-153.8 193.18,-149.8 15.82,-149.8 15.82,-113.8 220.18,-113.8 220.18,-149.8"/>
<text text-anchor="middle" x="118" y="-127.6" font-family="Times,serif" font-size="14.00">GroupCreatePageRoutingModule</text>
</g>
<!-- RouterModule.forChild(args)&#45;&gt;GroupCreatePageRoutingModule -->
<g id="edge1" class="edge">
<title>RouterModule.forChild(args)&#45;&gt;GroupCreatePageRoutingModule</title>
<path fill="none" stroke="black" d="M118,-84.91C118,-84.91 118,-103.79 118,-103.79"/>
<polygon fill="black" stroke="black" points="114.5,-103.79 118,-113.79 121.5,-103.79 114.5,-103.79"/>
</g>
<!-- RouterModule  -->
<g id="node3" class="node">
<title>RouterModule </title>
<polygon fill="#fb8072" stroke="black" points="168.65,-214.8 67.35,-214.8 67.35,-178.8 168.65,-178.8 168.65,-214.8"/>
<text text-anchor="middle" x="118" y="-192.6" font-family="Times,serif" font-size="14.00">RouterModule </text>
</g>
<!-- GroupCreatePageRoutingModule&#45;&gt;RouterModule  -->
<g id="edge2" class="edge">
<title>GroupCreatePageRoutingModule&#45;&gt;RouterModule </title>
<path fill="none" stroke="black" stroke-dasharray="5,2" d="M118,-149.91C118,-149.91 118,-168.79 118,-168.79"/>
<polygon fill="black" stroke="black" points="114.5,-168.79 118,-178.79 121.5,-168.79 114.5,-168.79"/>
</g>
</g>
</svg>
