<?xml version="1.0" encoding="UTF-8" standalone="no"?>
<!DOCTYPE svg PUBLIC "-//W3C//DTD SVG 1.1//EN"
 "http://www.w3.org/Graphics/SVG/1.1/DTD/svg11.dtd">
<!-- Generated by graphviz version 2.47.3 (20210619.1520)
 -->
<!-- Title: dependencies Pages: 1 -->
<svg width="797pt" height="174pt"
 viewBox="0.00 0.00 797.00 173.80" xmlns="http://www.w3.org/2000/svg" xmlns:xlink="http://www.w3.org/1999/xlink">
<g id="graph0" class="graph" transform="scale(1 1) rotate(0) translate(4 169.8)">
<title>dependencies</title>
<polygon fill="white" stroke="transparent" points="-4,4 -4,-169.8 793,-169.8 793,4 -4,4"/>
<text text-anchor="middle" x="394.5" y="-8.2" font-family="sans-serif" font-size="14.00">dependencies</text>
<g id="clust1" class="cluster">
<title>cluster_ChangePasswordPageModule</title>
<polygon fill="none" stroke="black" stroke-dasharray="1,5" points="8,-32.8 8,-157.8 781,-157.8 781,-32.8 8,-32.8"/>
</g>
<g id="clust2" class="cluster">
<title>cluster_ChangePasswordPageModule_declarations</title>
<polygon fill="none" stroke="black" points="617,-40.8 617,-92.8 773,-92.8 773,-40.8 617,-40.8"/>
</g>
<g id="clust4" class="cluster">
<title>cluster_ChangePasswordPageModule_imports</title>
<polygon fill="none" stroke="black" points="16,-40.8 16,-92.8 609,-92.8 609,-40.8 16,-40.8"/>
</g>
<!-- ChangePasswordPage -->
<g id="node1" class="node">
<title>ChangePasswordPage</title>
<polygon fill="#ffffb3" stroke="black" points="764.63,-84.8 625.37,-84.8 625.37,-48.8 764.63,-48.8 764.63,-84.8"/>
<text text-anchor="middle" x="695" y="-62.6" font-family="Times,serif" font-size="14.00">ChangePasswordPage</text>
</g>
<!-- ChangePasswordPageModule -->
<g id="node2" class="node">
<title>ChangePasswordPageModule</title>
<polygon fill="#8dd3c7" stroke="black" points="515.68,-149.8 512.68,-153.8 491.68,-153.8 488.68,-149.8 332.32,-149.8 332.32,-113.8 515.68,-113.8 515.68,-149.8"/>
<text text-anchor="middle" x="424" y="-127.6" font-family="Times,serif" font-size="14.00">ChangePasswordPageModule</text>
</g>
<!-- ChangePasswordPage&#45;&gt;ChangePasswordPageModule -->
<g id="edge1" class="edge">
<title>ChangePasswordPage&#45;&gt;ChangePasswordPageModule</title>
<path fill="none" stroke="black" d="M695,-84.91C695,-104.14 695,-131.8 695,-131.8 695,-131.8 525.75,-131.8 525.75,-131.8"/>
<polygon fill="black" stroke="black" points="525.75,-128.3 515.75,-131.8 525.75,-135.3 525.75,-128.3"/>
</g>
<!-- CommonModule -->
<g id="node3" class="node">
<title>CommonModule</title>
<polygon fill="#8dd3c7" stroke="black" points="600.67,-84.8 597.67,-88.8 576.67,-88.8 573.67,-84.8 489.33,-84.8 489.33,-48.8 600.67,-48.8 600.67,-84.8"/>
<text text-anchor="middle" x="545" y="-62.6" font-family="Times,serif" font-size="14.00">CommonModule</text>
</g>
<!-- CommonModule&#45;&gt;ChangePasswordPageModule -->
<g id="edge2" class="edge">
<title>CommonModule&#45;&gt;ChangePasswordPageModule</title>
<path fill="none" stroke="black" d="M502.38,-84.91C502.38,-84.91 502.38,-103.79 502.38,-103.79"/>
<polygon fill="black" stroke="black" points="498.88,-103.79 502.38,-113.79 505.88,-103.79 498.88,-103.79"/>
</g>
<!-- FormsModule -->
<g id="node4" class="node">
<title>FormsModule</title>
<polygon fill="#8dd3c7" stroke="black" points="471.83,-84.8 468.83,-88.8 447.83,-88.8 444.83,-84.8 376.17,-84.8 376.17,-48.8 471.83,-48.8 471.83,-84.8"/>
<text text-anchor="middle" x="424" y="-62.6" font-family="Times,serif" font-size="14.00">FormsModule</text>
</g>
<!-- FormsModule&#45;&gt;ChangePasswordPageModule -->
<g id="edge3" class="edge">
<title>FormsModule&#45;&gt;ChangePasswordPageModule</title>
<path fill="none" stroke="black" d="M424,-84.91C424,-84.91 424,-103.79 424,-103.79"/>
<polygon fill="black" stroke="black" points="420.5,-103.79 424,-113.79 427.5,-103.79 420.5,-103.79"/>
</g>
<!-- IonicModule -->
<g id="node5" class="node">
<title>IonicModule</title>
<polygon fill="#8dd3c7" stroke="black" points="358.32,-84.8 355.32,-88.8 334.32,-88.8 331.32,-84.8 269.68,-84.8 269.68,-48.8 358.32,-48.8 358.32,-84.8"/>
<text text-anchor="middle" x="314" y="-62.6" font-family="Times,serif" font-size="14.00">IonicModule</text>
</g>
<!-- IonicModule&#45;&gt;ChangePasswordPageModule -->
<g id="edge4" class="edge">
<title>IonicModule&#45;&gt;ChangePasswordPageModule</title>
<path fill="none" stroke="black" d="M345.28,-84.91C345.28,-84.91 345.28,-103.79 345.28,-103.79"/>
<polygon fill="black" stroke="black" points="341.78,-103.79 345.28,-113.79 348.78,-103.79 341.78,-103.79"/>
</g>
<!-- ChangePasswordPageRoutingModule -->
<g id="node6" class="node">
<title>ChangePasswordPageRoutingModule</title>
<polygon fill="#8dd3c7" stroke="black" points="252.3,-84.8 249.3,-88.8 228.3,-88.8 225.3,-84.8 23.7,-84.8 23.7,-48.8 252.3,-48.8 252.3,-84.8"/>
<text text-anchor="middle" x="138" y="-62.6" font-family="Times,serif" font-size="14.00">ChangePasswordPageRoutingModule</text>
</g>
<!-- ChangePasswordPageRoutingModule&#45;&gt;ChangePasswordPageModule -->
<g id="edge5" class="edge">
<title>ChangePasswordPageRoutingModule&#45;&gt;ChangePasswordPageModule</title>
<path fill="none" stroke="black" d="M138,-84.91C138,-104.14 138,-131.8 138,-131.8 138,-131.8 322.33,-131.8 322.33,-131.8"/>
<polygon fill="black" stroke="black" points="322.33,-135.3 332.33,-131.8 322.33,-128.3 322.33,-135.3"/>
</g>
</g>
</svg>
