<?xml version="1.0" encoding="UTF-8" standalone="no"?>
<!DOCTYPE svg PUBLIC "-//W3C//DTD SVG 1.1//EN"
 "http://www.w3.org/Graphics/SVG/1.1/DTD/svg11.dtd">
<!-- Generated by graphviz version 2.47.3 (20210619.1520)
 -->
<!-- Title: dependencies Pages: 1 -->
<svg width="681pt" height="174pt"
 viewBox="0.00 0.00 681.00 173.80" xmlns="http://www.w3.org/2000/svg" xmlns:xlink="http://www.w3.org/1999/xlink">
<g id="graph0" class="graph" transform="scale(1 1) rotate(0) translate(4 169.8)">
<title>dependencies</title>
<polygon fill="white" stroke="transparent" points="-4,4 -4,-169.8 677,-169.8 677,4 -4,4"/>
<text text-anchor="middle" x="336.5" y="-8.2" font-family="sans-serif" font-size="14.00">dependencies</text>
<g id="clust1" class="cluster">
<title>cluster_ProfilePageModule</title>
<polygon fill="none" stroke="black" stroke-dasharray="1,5" points="8,-32.8 8,-157.8 665,-157.8 665,-32.8 8,-32.8"/>
</g>
<g id="clust4" class="cluster">
<title>cluster_ProfilePageModule_imports</title>
<polygon fill="none" stroke="black" points="122,-40.8 122,-92.8 657,-92.8 657,-40.8 122,-40.8"/>
</g>
<g id="clust2" class="cluster">
<title>cluster_ProfilePageModule_declarations</title>
<polygon fill="none" stroke="black" points="16,-40.8 16,-92.8 114,-92.8 114,-40.8 16,-40.8"/>
</g>
<!-- ProfilePage -->
<g id="node1" class="node">
<title>ProfilePage</title>
<polygon fill="#ffffb3" stroke="black" points="105.81,-84.8 24.19,-84.8 24.19,-48.8 105.81,-48.8 105.81,-84.8"/>
<text text-anchor="middle" x="65" y="-62.6" font-family="Times,serif" font-size="14.00">ProfilePage</text>
</g>
<!-- ProfilePageModule -->
<g id="node2" class="node">
<title>ProfilePageModule</title>
<polygon fill="#8dd3c7" stroke="black" points="424.36,-149.8 421.36,-153.8 400.36,-153.8 397.36,-149.8 299.64,-149.8 299.64,-113.8 424.36,-113.8 424.36,-149.8"/>
<text text-anchor="middle" x="362" y="-127.6" font-family="Times,serif" font-size="14.00">ProfilePageModule</text>
</g>
<!-- ProfilePage&#45;&gt;ProfilePageModule -->
<g id="edge1" class="edge">
<title>ProfilePage&#45;&gt;ProfilePageModule</title>
<path fill="none" stroke="black" d="M65,-84.91C65,-104.14 65,-131.8 65,-131.8 65,-131.8 289.38,-131.8 289.38,-131.8"/>
<polygon fill="black" stroke="black" points="289.38,-135.3 299.38,-131.8 289.38,-128.3 289.38,-135.3"/>
</g>
<!-- CommonModule -->
<g id="node3" class="node">
<title>CommonModule</title>
<polygon fill="#8dd3c7" stroke="black" points="648.67,-84.8 645.67,-88.8 624.67,-88.8 621.67,-84.8 537.33,-84.8 537.33,-48.8 648.67,-48.8 648.67,-84.8"/>
<text text-anchor="middle" x="593" y="-62.6" font-family="Times,serif" font-size="14.00">CommonModule</text>
</g>
<!-- CommonModule&#45;&gt;ProfilePageModule -->
<g id="edge2" class="edge">
<title>CommonModule&#45;&gt;ProfilePageModule</title>
<path fill="none" stroke="black" d="M593,-84.91C593,-104.14 593,-131.8 593,-131.8 593,-131.8 434.51,-131.8 434.51,-131.8"/>
<polygon fill="black" stroke="black" points="434.51,-128.3 424.51,-131.8 434.51,-135.3 434.51,-128.3"/>
</g>
<!-- FormsModule -->
<g id="node4" class="node">
<title>FormsModule</title>
<polygon fill="#8dd3c7" stroke="black" points="519.83,-84.8 516.83,-88.8 495.83,-88.8 492.83,-84.8 424.17,-84.8 424.17,-48.8 519.83,-48.8 519.83,-84.8"/>
<text text-anchor="middle" x="472" y="-62.6" font-family="Times,serif" font-size="14.00">FormsModule</text>
</g>
<!-- FormsModule&#45;&gt;ProfilePageModule -->
<g id="edge3" class="edge">
<title>FormsModule&#45;&gt;ProfilePageModule</title>
<path fill="none" stroke="black" d="M424.11,-66.8C418.79,-66.8 415.25,-66.8 415.25,-66.8 415.25,-66.8 415.25,-103.69 415.25,-103.69"/>
<polygon fill="black" stroke="black" points="411.75,-103.69 415.25,-113.69 418.75,-103.69 411.75,-103.69"/>
</g>
<!-- IonicModule -->
<g id="node5" class="node">
<title>IonicModule</title>
<polygon fill="#8dd3c7" stroke="black" points="406.32,-84.8 403.32,-88.8 382.32,-88.8 379.32,-84.8 317.68,-84.8 317.68,-48.8 406.32,-48.8 406.32,-84.8"/>
<text text-anchor="middle" x="362" y="-62.6" font-family="Times,serif" font-size="14.00">IonicModule</text>
</g>
<!-- IonicModule&#45;&gt;ProfilePageModule -->
<g id="edge4" class="edge">
<title>IonicModule&#45;&gt;ProfilePageModule</title>
<path fill="none" stroke="black" d="M362,-84.91C362,-84.91 362,-103.79 362,-103.79"/>
<polygon fill="black" stroke="black" points="358.5,-103.79 362,-113.79 365.5,-103.79 358.5,-103.79"/>
</g>
<!-- ProfilePageRoutingModule -->
<g id="node6" class="node">
<title>ProfilePageRoutingModule</title>
<polygon fill="#8dd3c7" stroke="black" points="299.98,-84.8 296.98,-88.8 275.98,-88.8 272.98,-84.8 130.02,-84.8 130.02,-48.8 299.98,-48.8 299.98,-84.8"/>
<text text-anchor="middle" x="215" y="-62.6" font-family="Times,serif" font-size="14.00">ProfilePageRoutingModule</text>
</g>
<!-- ProfilePageRoutingModule&#45;&gt;ProfilePageModule -->
<g id="edge5" class="edge">
<title>ProfilePageRoutingModule&#45;&gt;ProfilePageModule</title>
<path fill="none" stroke="black" d="M300.25,-66.8C305.61,-66.8 308.92,-66.8 308.92,-66.8 308.92,-66.8 308.92,-103.69 308.92,-103.69"/>
<polygon fill="black" stroke="black" points="305.42,-103.69 308.92,-113.69 312.42,-103.69 305.42,-103.69"/>
</g>
</g>
</svg>
