<?xml version="1.0" encoding="UTF-8" standalone="no"?>
<!DOCTYPE svg PUBLIC "-//W3C//DTD SVG 1.1//EN"
 "http://www.w3.org/Graphics/SVG/1.1/DTD/svg11.dtd">
<!-- Generated by graphviz version 2.47.3 (20210619.1520)
 -->
<!-- Title: dependencies Pages: 1 -->
<svg width="460pt" height="247pt"
 viewBox="0.00 0.00 460.00 246.80" xmlns="http://www.w3.org/2000/svg" xmlns:xlink="http://www.w3.org/1999/xlink">
<g id="graph0" class="graph" transform="scale(1 1) rotate(0) translate(4 242.8)">
<title>dependencies</title>
<polygon fill="white" stroke="transparent" points="-4,4 -4,-242.8 456,-242.8 456,4 -4,4"/>
<text text-anchor="middle" x="226" y="-8.2" font-family="sans-serif" font-size="14.00">dependencies</text>
<g id="clust1" class="cluster">
<title>cluster_TransactionCreatePageModule</title>
<polygon fill="none" stroke="black" stroke-dasharray="1,5" points="8,-32.8 8,-230.8 444,-230.8 444,-32.8 8,-32.8"/>
</g>
<g id="clust4" class="cluster">
<title>cluster_TransactionCreatePageModule_imports</title>
<polygon fill="none" stroke="black" points="186,-40.8 186,-92.8 436,-92.8 436,-40.8 186,-40.8"/>
</g>
<g id="clust5" class="cluster">
<title>cluster_TransactionCreatePageModule_exports</title>
<polygon fill="none" stroke="black" points="128,-170.8 128,-222.8 294,-222.8 294,-170.8 128,-170.8"/>
</g>
<g id="clust2" class="cluster">
<title>cluster_TransactionCreatePageModule_declarations</title>
<polygon fill="none" stroke="black" points="16,-40.8 16,-92.8 178,-92.8 178,-40.8 16,-40.8"/>
</g>
<!-- TransactionCreatePage -->
<g id="node1" class="node">
<title>TransactionCreatePage</title>
<polygon fill="#ffffb3" stroke="black" points="169.83,-84.8 24.17,-84.8 24.17,-48.8 169.83,-48.8 169.83,-84.8"/>
<text text-anchor="middle" x="97" y="-62.6" font-family="Times,serif" font-size="14.00">TransactionCreatePage</text>
</g>
<!-- TransactionCreatePageModule -->
<g id="node2" class="node">
<title>TransactionCreatePageModule</title>
<polygon fill="#8dd3c7" stroke="black" points="305.88,-149.8 302.88,-153.8 281.88,-153.8 278.88,-149.8 116.12,-149.8 116.12,-113.8 305.88,-113.8 305.88,-149.8"/>
<text text-anchor="middle" x="211" y="-127.6" font-family="Times,serif" font-size="14.00">TransactionCreatePageModule</text>
</g>
<!-- TransactionCreatePage&#45;&gt;TransactionCreatePageModule -->
<g id="edge1" class="edge">
<title>TransactionCreatePage&#45;&gt;TransactionCreatePageModule</title>
<path fill="none" stroke="black" d="M143.11,-84.91C143.11,-84.91 143.11,-103.79 143.11,-103.79"/>
<polygon fill="black" stroke="black" points="139.61,-103.79 143.11,-113.79 146.61,-103.79 139.61,-103.79"/>
</g>
<!-- TransactionCreatePage  -->
<g id="node4" class="node">
<title>TransactionCreatePage </title>
<polygon fill="#fb8072" stroke="black" points="285.83,-214.8 136.17,-214.8 136.17,-178.8 285.83,-178.8 285.83,-214.8"/>
<text text-anchor="middle" x="211" y="-192.6" font-family="Times,serif" font-size="14.00">TransactionCreatePage </text>
</g>
<!-- TransactionCreatePageModule&#45;&gt;TransactionCreatePage  -->
<g id="edge3" class="edge">
<title>TransactionCreatePageModule&#45;&gt;TransactionCreatePage </title>
<path fill="none" stroke="black" stroke-dasharray="5,2" d="M211,-149.91C211,-149.91 211,-168.79 211,-168.79"/>
<polygon fill="black" stroke="black" points="207.5,-168.79 211,-178.79 214.5,-168.79 207.5,-168.79"/>
</g>
<!-- TransactionCreatePageRoutingModule -->
<g id="node3" class="node">
<title>TransactionCreatePageRoutingModule</title>
<polygon fill="#8dd3c7" stroke="black" points="428.49,-84.8 425.49,-88.8 404.49,-88.8 401.49,-84.8 193.51,-84.8 193.51,-48.8 428.49,-48.8 428.49,-84.8"/>
<text text-anchor="middle" x="311" y="-62.6" font-family="Times,serif" font-size="14.00">TransactionCreatePageRoutingModule</text>
</g>
<!-- TransactionCreatePageRoutingModule&#45;&gt;TransactionCreatePageModule -->
<g id="edge2" class="edge">
<title>TransactionCreatePageRoutingModule&#45;&gt;TransactionCreatePageModule</title>
<path fill="none" stroke="black" d="M249.72,-84.91C249.72,-84.91 249.72,-103.79 249.72,-103.79"/>
<polygon fill="black" stroke="black" points="246.22,-103.79 249.72,-113.79 253.22,-103.79 246.22,-103.79"/>
</g>
</g>
</svg>
