<?xml version="1.0" encoding="UTF-8" standalone="no"?>
<!DOCTYPE svg PUBLIC "-//W3C//DTD SVG 1.1//EN"
 "http://www.w3.org/Graphics/SVG/1.1/DTD/svg11.dtd">
<!-- Generated by graphviz version 2.47.3 (20210619.1520)
 -->
<!-- Title: dependencies Pages: 1 -->
<svg width="809pt" height="247pt"
 viewBox="0.00 0.00 809.00 246.80" xmlns="http://www.w3.org/2000/svg" xmlns:xlink="http://www.w3.org/1999/xlink">
<g id="graph0" class="graph" transform="scale(1 1) rotate(0) translate(4 242.8)">
<title>dependencies</title>
<polygon fill="white" stroke="transparent" points="-4,4 -4,-242.8 805,-242.8 805,4 -4,4"/>
<text text-anchor="middle" x="400.5" y="-8.2" font-family="sans-serif" font-size="14.00">dependencies</text>
<g id="clust1" class="cluster">
<title>cluster_TransactionCreatePageModule</title>
<polygon fill="none" stroke="black" stroke-dasharray="1,5" points="8,-32.8 8,-230.8 793,-230.8 793,-32.8 8,-32.8"/>
</g>
<g id="clust4" class="cluster">
<title>cluster_TransactionCreatePageModule_imports</title>
<polygon fill="none" stroke="black" points="186,-40.8 186,-92.8 785,-92.8 785,-40.8 186,-40.8"/>
</g>
<g id="clust5" class="cluster">
<title>cluster_TransactionCreatePageModule_exports</title>
<polygon fill="none" stroke="black" points="407,-170.8 407,-222.8 573,-222.8 573,-170.8 407,-170.8"/>
</g>
<g id="clust2" class="cluster">
<title>cluster_TransactionCreatePageModule_declarations</title>
<polygon fill="none" stroke="black" points="16,-40.8 16,-92.8 178,-92.8 178,-40.8 16,-40.8"/>
</g>
<!-- TransactionCreatePage -->
<g id="node1" class="node">
<title>TransactionCreatePage</title>
<polygon fill="#ffffb3" stroke="black" points="169.83,-84.8 24.17,-84.8 24.17,-48.8 169.83,-48.8 169.83,-84.8"/>
<text text-anchor="middle" x="97" y="-62.6" font-family="Times,serif" font-size="14.00">TransactionCreatePage</text>
</g>
<!-- TransactionCreatePageModule -->
<g id="node2" class="node">
<title>TransactionCreatePageModule</title>
<polygon fill="#8dd3c7" stroke="black" points="584.88,-149.8 581.88,-153.8 560.88,-153.8 557.88,-149.8 395.12,-149.8 395.12,-113.8 584.88,-113.8 584.88,-149.8"/>
<text text-anchor="middle" x="490" y="-127.6" font-family="Times,serif" font-size="14.00">TransactionCreatePageModule</text>
</g>
<!-- TransactionCreatePage&#45;&gt;TransactionCreatePageModule -->
<g id="edge1" class="edge">
<title>TransactionCreatePage&#45;&gt;TransactionCreatePageModule</title>
<path fill="none" stroke="black" d="M97,-84.91C97,-104.14 97,-131.8 97,-131.8 97,-131.8 385.12,-131.8 385.12,-131.8"/>
<polygon fill="black" stroke="black" points="385.12,-135.3 395.12,-131.8 385.12,-128.3 385.12,-135.3"/>
</g>
<!-- TransactionCreatePage  -->
<g id="node7" class="node">
<title>TransactionCreatePage </title>
<polygon fill="#fb8072" stroke="black" points="564.83,-214.8 415.17,-214.8 415.17,-178.8 564.83,-178.8 564.83,-214.8"/>
<text text-anchor="middle" x="490" y="-192.6" font-family="Times,serif" font-size="14.00">TransactionCreatePage </text>
</g>
<!-- TransactionCreatePageModule&#45;&gt;TransactionCreatePage  -->
<g id="edge6" class="edge">
<title>TransactionCreatePageModule&#45;&gt;TransactionCreatePage </title>
<path fill="none" stroke="black" stroke-dasharray="5,2" d="M490,-149.91C490,-149.91 490,-168.79 490,-168.79"/>
<polygon fill="black" stroke="black" points="486.5,-168.79 490,-178.79 493.5,-168.79 486.5,-168.79"/>
</g>
<!-- CommonModule -->
<g id="node3" class="node">
<title>CommonModule</title>
<polygon fill="#8dd3c7" stroke="black" points="776.67,-84.8 773.67,-88.8 752.67,-88.8 749.67,-84.8 665.33,-84.8 665.33,-48.8 776.67,-48.8 776.67,-84.8"/>
<text text-anchor="middle" x="721" y="-62.6" font-family="Times,serif" font-size="14.00">CommonModule</text>
</g>
<!-- CommonModule&#45;&gt;TransactionCreatePageModule -->
<g id="edge2" class="edge">
<title>CommonModule&#45;&gt;TransactionCreatePageModule</title>
<path fill="none" stroke="black" d="M721,-84.91C721,-104.14 721,-131.8 721,-131.8 721,-131.8 594.96,-131.8 594.96,-131.8"/>
<polygon fill="black" stroke="black" points="594.96,-128.3 584.96,-131.8 594.96,-135.3 594.96,-128.3"/>
</g>
<!-- FormsModule -->
<g id="node4" class="node">
<title>FormsModule</title>
<polygon fill="#8dd3c7" stroke="black" points="647.83,-84.8 644.83,-88.8 623.83,-88.8 620.83,-84.8 552.17,-84.8 552.17,-48.8 647.83,-48.8 647.83,-84.8"/>
<text text-anchor="middle" x="600" y="-62.6" font-family="Times,serif" font-size="14.00">FormsModule</text>
</g>
<!-- FormsModule&#45;&gt;TransactionCreatePageModule -->
<g id="edge3" class="edge">
<title>FormsModule&#45;&gt;TransactionCreatePageModule</title>
<path fill="none" stroke="black" d="M568.51,-84.91C568.51,-84.91 568.51,-103.79 568.51,-103.79"/>
<polygon fill="black" stroke="black" points="565.01,-103.79 568.51,-113.79 572.01,-103.79 565.01,-103.79"/>
</g>
<!-- IonicModule -->
<g id="node5" class="node">
<title>IonicModule</title>
<polygon fill="#8dd3c7" stroke="black" points="534.32,-84.8 531.32,-88.8 510.32,-88.8 507.32,-84.8 445.68,-84.8 445.68,-48.8 534.32,-48.8 534.32,-84.8"/>
<text text-anchor="middle" x="490" y="-62.6" font-family="Times,serif" font-size="14.00">IonicModule</text>
</g>
<!-- IonicModule&#45;&gt;TransactionCreatePageModule -->
<g id="edge4" class="edge">
<title>IonicModule&#45;&gt;TransactionCreatePageModule</title>
<path fill="none" stroke="black" d="M490,-84.91C490,-84.91 490,-103.79 490,-103.79"/>
<polygon fill="black" stroke="black" points="486.5,-103.79 490,-113.79 493.5,-103.79 486.5,-103.79"/>
</g>
<!-- TransactionCreatePageRoutingModule -->
<g id="node6" class="node">
<title>TransactionCreatePageRoutingModule</title>
<polygon fill="#8dd3c7" stroke="black" points="428.49,-84.8 425.49,-88.8 404.49,-88.8 401.49,-84.8 193.51,-84.8 193.51,-48.8 428.49,-48.8 428.49,-84.8"/>
<text text-anchor="middle" x="311" y="-62.6" font-family="Times,serif" font-size="14.00">TransactionCreatePageRoutingModule</text>
</g>
<!-- TransactionCreatePageRoutingModule&#45;&gt;TransactionCreatePageModule -->
<g id="edge5" class="edge">
<title>TransactionCreatePageRoutingModule&#45;&gt;TransactionCreatePageModule</title>
<path fill="none" stroke="black" d="M411.78,-84.91C411.78,-84.91 411.78,-103.79 411.78,-103.79"/>
<polygon fill="black" stroke="black" points="408.28,-103.79 411.78,-113.79 415.28,-103.79 408.28,-103.79"/>
</g>
</g>
</svg>
