<?xml version="1.0" encoding="UTF-8" standalone="no"?>
<!DOCTYPE svg PUBLIC "-//W3C//DTD SVG 1.1//EN"
 "http://www.w3.org/Graphics/SVG/1.1/DTD/svg11.dtd">
<!-- Generated by graphviz version 2.47.3 (20210619.1520)
 -->
<!-- Title: dependencies Pages: 1 -->
<svg width="697pt" height="174pt"
 viewBox="0.00 0.00 697.00 173.80" xmlns="http://www.w3.org/2000/svg" xmlns:xlink="http://www.w3.org/1999/xlink">
<g id="graph0" class="graph" transform="scale(1 1) rotate(0) translate(4 169.8)">
<title>dependencies</title>
<polygon fill="white" stroke="transparent" points="-4,4 -4,-169.8 693,-169.8 693,4 -4,4"/>
<text text-anchor="middle" x="344.5" y="-8.2" font-family="sans-serif" font-size="14.00">dependencies</text>
<g id="clust1" class="cluster">
<title>cluster_RegisterPageModule</title>
<polygon fill="none" stroke="black" stroke-dasharray="1,5" points="8,-32.8 8,-157.8 681,-157.8 681,-32.8 8,-32.8"/>
</g>
<g id="clust4" class="cluster">
<title>cluster_RegisterPageModule_imports</title>
<polygon fill="none" stroke="black" points="130,-40.8 130,-92.8 673,-92.8 673,-40.8 130,-40.8"/>
</g>
<g id="clust2" class="cluster">
<title>cluster_RegisterPageModule_declarations</title>
<polygon fill="none" stroke="black" points="16,-40.8 16,-92.8 122,-92.8 122,-40.8 16,-40.8"/>
</g>
<!-- RegisterPage -->
<g id="node1" class="node">
<title>RegisterPage</title>
<polygon fill="#ffffb3" stroke="black" points="113.86,-84.8 24.14,-84.8 24.14,-48.8 113.86,-48.8 113.86,-84.8"/>
<text text-anchor="middle" x="69" y="-62.6" font-family="Times,serif" font-size="14.00">RegisterPage</text>
</g>
<!-- RegisterPageModule -->
<g id="node2" class="node">
<title>RegisterPageModule</title>
<polygon fill="#8dd3c7" stroke="black" points="444.91,-149.8 441.91,-153.8 420.91,-153.8 417.91,-149.8 311.09,-149.8 311.09,-113.8 444.91,-113.8 444.91,-149.8"/>
<text text-anchor="middle" x="378" y="-127.6" font-family="Times,serif" font-size="14.00">RegisterPageModule</text>
</g>
<!-- RegisterPage&#45;&gt;RegisterPageModule -->
<g id="edge1" class="edge">
<title>RegisterPage&#45;&gt;RegisterPageModule</title>
<path fill="none" stroke="black" d="M69,-84.91C69,-104.14 69,-131.8 69,-131.8 69,-131.8 300.95,-131.8 300.95,-131.8"/>
<polygon fill="black" stroke="black" points="300.95,-135.3 310.95,-131.8 300.95,-128.3 300.95,-135.3"/>
</g>
<!-- CommonModule -->
<g id="node3" class="node">
<title>CommonModule</title>
<polygon fill="#8dd3c7" stroke="black" points="664.67,-84.8 661.67,-88.8 640.67,-88.8 637.67,-84.8 553.33,-84.8 553.33,-48.8 664.67,-48.8 664.67,-84.8"/>
<text text-anchor="middle" x="609" y="-62.6" font-family="Times,serif" font-size="14.00">CommonModule</text>
</g>
<!-- CommonModule&#45;&gt;RegisterPageModule -->
<g id="edge2" class="edge">
<title>CommonModule&#45;&gt;RegisterPageModule</title>
<path fill="none" stroke="black" d="M609,-84.91C609,-104.14 609,-131.8 609,-131.8 609,-131.8 454.81,-131.8 454.81,-131.8"/>
<polygon fill="black" stroke="black" points="454.81,-128.3 444.81,-131.8 454.81,-135.3 454.81,-128.3"/>
</g>
<!-- FormsModule -->
<g id="node4" class="node">
<title>FormsModule</title>
<polygon fill="#8dd3c7" stroke="black" points="535.83,-84.8 532.83,-88.8 511.83,-88.8 508.83,-84.8 440.17,-84.8 440.17,-48.8 535.83,-48.8 535.83,-84.8"/>
<text text-anchor="middle" x="488" y="-62.6" font-family="Times,serif" font-size="14.00">FormsModule</text>
</g>
<!-- FormsModule&#45;&gt;RegisterPageModule -->
<g id="edge3" class="edge">
<title>FormsModule&#45;&gt;RegisterPageModule</title>
<path fill="none" stroke="black" d="M440.11,-66.8C434.79,-66.8 431.25,-66.8 431.25,-66.8 431.25,-66.8 431.25,-103.69 431.25,-103.69"/>
<polygon fill="black" stroke="black" points="427.75,-103.69 431.25,-113.69 434.75,-103.69 427.75,-103.69"/>
</g>
<!-- IonicModule -->
<g id="node5" class="node">
<title>IonicModule</title>
<polygon fill="#8dd3c7" stroke="black" points="422.32,-84.8 419.32,-88.8 398.32,-88.8 395.32,-84.8 333.68,-84.8 333.68,-48.8 422.32,-48.8 422.32,-84.8"/>
<text text-anchor="middle" x="378" y="-62.6" font-family="Times,serif" font-size="14.00">IonicModule</text>
</g>
<!-- IonicModule&#45;&gt;RegisterPageModule -->
<g id="edge4" class="edge">
<title>IonicModule&#45;&gt;RegisterPageModule</title>
<path fill="none" stroke="black" d="M378,-84.91C378,-84.91 378,-103.79 378,-103.79"/>
<polygon fill="black" stroke="black" points="374.5,-103.79 378,-113.79 381.5,-103.79 374.5,-103.79"/>
</g>
<!-- RegisterPageRoutingModule -->
<g id="node6" class="node">
<title>RegisterPageRoutingModule</title>
<polygon fill="#8dd3c7" stroke="black" points="316.03,-84.8 313.03,-88.8 292.03,-88.8 289.03,-84.8 137.97,-84.8 137.97,-48.8 316.03,-48.8 316.03,-84.8"/>
<text text-anchor="middle" x="227" y="-62.6" font-family="Times,serif" font-size="14.00">RegisterPageRoutingModule</text>
</g>
<!-- RegisterPageRoutingModule&#45;&gt;RegisterPageModule -->
<g id="edge5" class="edge">
<title>RegisterPageRoutingModule&#45;&gt;RegisterPageModule</title>
<path fill="none" stroke="black" d="M316.35,-66.8C321.75,-66.8 325.05,-66.8 325.05,-66.8 325.05,-66.8 325.05,-103.69 325.05,-103.69"/>
<polygon fill="black" stroke="black" points="321.55,-103.69 325.05,-113.69 328.55,-103.69 321.55,-103.69"/>
</g>
</g>
</svg>
