<?xml version="1.0" encoding="UTF-8" standalone="no"?>
<!DOCTYPE svg PUBLIC "-//W3C//DTD SVG 1.1//EN"
 "http://www.w3.org/Graphics/SVG/1.1/DTD/svg11.dtd">
<!-- Generated by graphviz version 2.47.3 (20210619.1520)
 -->
<!-- Title: dependencies Pages: 1 -->
<svg width="348pt" height="174pt"
 viewBox="0.00 0.00 348.00 173.80" xmlns="http://www.w3.org/2000/svg" xmlns:xlink="http://www.w3.org/1999/xlink">
<g id="graph0" class="graph" transform="scale(1 1) rotate(0) translate(4 169.8)">
<title>dependencies</title>
<polygon fill="white" stroke="transparent" points="-4,4 -4,-169.8 344,-169.8 344,4 -4,4"/>
<text text-anchor="middle" x="170" y="-8.2" font-family="sans-serif" font-size="14.00">dependencies</text>
<g id="clust1" class="cluster">
<title>cluster_RegisterPageModule</title>
<polygon fill="none" stroke="black" stroke-dasharray="1,5" points="8,-32.8 8,-157.8 332,-157.8 332,-32.8 8,-32.8"/>
</g>
<g id="clust2" class="cluster">
<title>cluster_RegisterPageModule_declarations</title>
<polygon fill="none" stroke="black" points="218,-40.8 218,-92.8 324,-92.8 324,-40.8 218,-40.8"/>
</g>
<g id="clust4" class="cluster">
<title>cluster_RegisterPageModule_imports</title>
<polygon fill="none" stroke="black" points="16,-40.8 16,-92.8 210,-92.8 210,-40.8 16,-40.8"/>
</g>
<!-- RegisterPage -->
<g id="node1" class="node">
<title>RegisterPage</title>
<polygon fill="#ffffb3" stroke="black" points="315.86,-84.8 226.14,-84.8 226.14,-48.8 315.86,-48.8 315.86,-84.8"/>
<text text-anchor="middle" x="271" y="-62.6" font-family="Times,serif" font-size="14.00">RegisterPage</text>
</g>
<!-- RegisterPageModule -->
<g id="node2" class="node">
<title>RegisterPageModule</title>
<polygon fill="#8dd3c7" stroke="black" points="251.91,-149.8 248.91,-153.8 227.91,-153.8 224.91,-149.8 118.09,-149.8 118.09,-113.8 251.91,-113.8 251.91,-149.8"/>
<text text-anchor="middle" x="185" y="-127.6" font-family="Times,serif" font-size="14.00">RegisterPageModule</text>
</g>
<!-- RegisterPage&#45;&gt;RegisterPageModule -->
<g id="edge1" class="edge">
<title>RegisterPage&#45;&gt;RegisterPageModule</title>
<path fill="none" stroke="black" d="M238.89,-84.91C238.89,-84.91 238.89,-103.79 238.89,-103.79"/>
<polygon fill="black" stroke="black" points="235.39,-103.79 238.89,-113.79 242.39,-103.79 235.39,-103.79"/>
</g>
<!-- RegisterPageRoutingModule -->
<g id="node3" class="node">
<title>RegisterPageRoutingModule</title>
<polygon fill="#8dd3c7" stroke="black" points="202.03,-84.8 199.03,-88.8 178.03,-88.8 175.03,-84.8 23.97,-84.8 23.97,-48.8 202.03,-48.8 202.03,-84.8"/>
<text text-anchor="middle" x="113" y="-62.6" font-family="Times,serif" font-size="14.00">RegisterPageRoutingModule</text>
</g>
<!-- RegisterPageRoutingModule&#45;&gt;RegisterPageModule -->
<g id="edge2" class="edge">
<title>RegisterPageRoutingModule&#45;&gt;RegisterPageModule</title>
<path fill="none" stroke="black" d="M160.28,-84.91C160.28,-84.91 160.28,-103.79 160.28,-103.79"/>
<polygon fill="black" stroke="black" points="156.78,-103.79 160.28,-113.79 163.78,-103.79 156.78,-103.79"/>
</g>
</g>
</svg>
