<?xml version="1.0" encoding="UTF-8" standalone="no"?>
<!DOCTYPE svg PUBLIC "-//W3C//DTD SVG 1.1//EN"
 "http://www.w3.org/Graphics/SVG/1.1/DTD/svg11.dtd">
<!-- Generated by graphviz version 2.47.3 (20210619.1520)
 -->
<!-- Title: dependencies Pages: 1 -->
<svg width="268pt" height="247pt"
 viewBox="0.00 0.00 268.00 246.80" xmlns="http://www.w3.org/2000/svg" xmlns:xlink="http://www.w3.org/1999/xlink">
<g id="graph0" class="graph" transform="scale(1 1) rotate(0) translate(4 242.8)">
<title>dependencies</title>
<polygon fill="white" stroke="transparent" points="-4,4 -4,-242.8 264,-242.8 264,4 -4,4"/>
<text text-anchor="middle" x="130" y="-8.2" font-family="sans-serif" font-size="14.00">dependencies</text>
<g id="clust1" class="cluster">
<title>cluster_ChangePasswordPageRoutingModule</title>
<polygon fill="none" stroke="black" stroke-dasharray="1,5" points="8,-32.8 8,-230.8 252,-230.8 252,-32.8 8,-32.8"/>
</g>
<g id="clust4" class="cluster">
<title>cluster_ChangePasswordPageRoutingModule_exports</title>
<polygon fill="none" stroke="black" points="71,-170.8 71,-222.8 189,-222.8 189,-170.8 71,-170.8"/>
</g>
<g id="clust3" class="cluster">
<title>cluster_ChangePasswordPageRoutingModule_imports</title>
<polygon fill="none" stroke="black" points="31,-40.8 31,-92.8 229,-92.8 229,-40.8 31,-40.8"/>
</g>
<!-- RouterModule.forChild(args) -->
<g id="node1" class="node">
<title>RouterModule.forChild(args)</title>
<polygon fill="#8dd3c7" stroke="black" points="220.73,-84.8 217.73,-88.8 196.73,-88.8 193.73,-84.8 39.27,-84.8 39.27,-48.8 220.73,-48.8 220.73,-84.8"/>
<text text-anchor="middle" x="130" y="-62.6" font-family="Times,serif" font-size="14.00">RouterModule.forChild(args)</text>
</g>
<!-- ChangePasswordPageRoutingModule -->
<g id="node2" class="node">
<title>ChangePasswordPageRoutingModule</title>
<polygon fill="#8dd3c7" stroke="black" points="244.3,-149.8 241.3,-153.8 220.3,-153.8 217.3,-149.8 15.7,-149.8 15.7,-113.8 244.3,-113.8 244.3,-149.8"/>
<text text-anchor="middle" x="130" y="-127.6" font-family="Times,serif" font-size="14.00">ChangePasswordPageRoutingModule</text>
</g>
<!-- RouterModule.forChild(args)&#45;&gt;ChangePasswordPageRoutingModule -->
<g id="edge1" class="edge">
<title>RouterModule.forChild(args)&#45;&gt;ChangePasswordPageRoutingModule</title>
<path fill="none" stroke="black" d="M130,-84.91C130,-84.91 130,-103.79 130,-103.79"/>
<polygon fill="black" stroke="black" points="126.5,-103.79 130,-113.79 133.5,-103.79 126.5,-103.79"/>
</g>
<!-- RouterModule  -->
<g id="node3" class="node">
<title>RouterModule </title>
<polygon fill="#fb8072" stroke="black" points="180.65,-214.8 79.35,-214.8 79.35,-178.8 180.65,-178.8 180.65,-214.8"/>
<text text-anchor="middle" x="130" y="-192.6" font-family="Times,serif" font-size="14.00">RouterModule </text>
</g>
<!-- ChangePasswordPageRoutingModule&#45;&gt;RouterModule  -->
<g id="edge2" class="edge">
<title>ChangePasswordPageRoutingModule&#45;&gt;RouterModule </title>
<path fill="none" stroke="black" stroke-dasharray="5,2" d="M130,-149.91C130,-149.91 130,-168.79 130,-168.79"/>
<polygon fill="black" stroke="black" points="126.5,-168.79 130,-178.79 133.5,-168.79 126.5,-168.79"/>
</g>
</g>
</svg>
