<?xml version="1.0" encoding="UTF-8" standalone="no"?>
<!DOCTYPE svg PUBLIC "-//W3C//DTD SVG 1.1//EN"
 "http://www.w3.org/Graphics/SVG/1.1/DTD/svg11.dtd">
<!-- Generated by graphviz version 2.47.3 (20210619.1520)
 -->
<!-- Title: dependencies Pages: 1 -->
<svg width="689pt" height="174pt"
 viewBox="0.00 0.00 689.00 173.80" xmlns="http://www.w3.org/2000/svg" xmlns:xlink="http://www.w3.org/1999/xlink">
<g id="graph0" class="graph" transform="scale(1 1) rotate(0) translate(4 169.8)">
<title>dependencies</title>
<polygon fill="white" stroke="transparent" points="-4,4 -4,-169.8 685,-169.8 685,4 -4,4"/>
<text text-anchor="middle" x="340.5" y="-8.2" font-family="sans-serif" font-size="14.00">dependencies</text>
<g id="clust1" class="cluster">
<title>cluster_FriendsPageModule</title>
<polygon fill="none" stroke="black" stroke-dasharray="1,5" points="8,-32.8 8,-157.8 673,-157.8 673,-32.8 8,-32.8"/>
</g>
<g id="clust4" class="cluster">
<title>cluster_FriendsPageModule_imports</title>
<polygon fill="none" stroke="black" points="126,-40.8 126,-92.8 665,-92.8 665,-40.8 126,-40.8"/>
</g>
<g id="clust2" class="cluster">
<title>cluster_FriendsPageModule_declarations</title>
<polygon fill="none" stroke="black" points="16,-40.8 16,-92.8 118,-92.8 118,-40.8 16,-40.8"/>
</g>
<!-- FriendsPage -->
<g id="node1" class="node">
<title>FriendsPage</title>
<polygon fill="#ffffb3" stroke="black" points="109.71,-84.8 24.29,-84.8 24.29,-48.8 109.71,-48.8 109.71,-84.8"/>
<text text-anchor="middle" x="67" y="-62.6" font-family="Times,serif" font-size="14.00">FriendsPage</text>
</g>
<!-- FriendsPageModule -->
<g id="node2" class="node">
<title>FriendsPageModule</title>
<polygon fill="#8dd3c7" stroke="black" points="434.25,-149.8 431.25,-153.8 410.25,-153.8 407.25,-149.8 305.75,-149.8 305.75,-113.8 434.25,-113.8 434.25,-149.8"/>
<text text-anchor="middle" x="370" y="-127.6" font-family="Times,serif" font-size="14.00">FriendsPageModule</text>
</g>
<!-- FriendsPage&#45;&gt;FriendsPageModule -->
<g id="edge1" class="edge">
<title>FriendsPage&#45;&gt;FriendsPageModule</title>
<path fill="none" stroke="black" d="M67,-84.91C67,-104.14 67,-131.8 67,-131.8 67,-131.8 295.74,-131.8 295.74,-131.8"/>
<polygon fill="black" stroke="black" points="295.74,-135.3 305.74,-131.8 295.74,-128.3 295.74,-135.3"/>
</g>
<!-- CommonModule -->
<g id="node3" class="node">
<title>CommonModule</title>
<polygon fill="#8dd3c7" stroke="black" points="656.67,-84.8 653.67,-88.8 632.67,-88.8 629.67,-84.8 545.33,-84.8 545.33,-48.8 656.67,-48.8 656.67,-84.8"/>
<text text-anchor="middle" x="601" y="-62.6" font-family="Times,serif" font-size="14.00">CommonModule</text>
</g>
<!-- CommonModule&#45;&gt;FriendsPageModule -->
<g id="edge2" class="edge">
<title>CommonModule&#45;&gt;FriendsPageModule</title>
<path fill="none" stroke="black" d="M601,-84.91C601,-104.14 601,-131.8 601,-131.8 601,-131.8 444.35,-131.8 444.35,-131.8"/>
<polygon fill="black" stroke="black" points="444.35,-128.3 434.35,-131.8 444.35,-135.3 444.35,-128.3"/>
</g>
<!-- FormsModule -->
<g id="node4" class="node">
<title>FormsModule</title>
<polygon fill="#8dd3c7" stroke="black" points="527.83,-84.8 524.83,-88.8 503.83,-88.8 500.83,-84.8 432.17,-84.8 432.17,-48.8 527.83,-48.8 527.83,-84.8"/>
<text text-anchor="middle" x="480" y="-62.6" font-family="Times,serif" font-size="14.00">FormsModule</text>
</g>
<!-- FormsModule&#45;&gt;FriendsPageModule -->
<g id="edge3" class="edge">
<title>FormsModule&#45;&gt;FriendsPageModule</title>
<path fill="none" stroke="black" d="M432.11,-66.8C426.79,-66.8 423.25,-66.8 423.25,-66.8 423.25,-66.8 423.25,-103.69 423.25,-103.69"/>
<polygon fill="black" stroke="black" points="419.75,-103.69 423.25,-113.69 426.75,-103.69 419.75,-103.69"/>
</g>
<!-- IonicModule -->
<g id="node5" class="node">
<title>IonicModule</title>
<polygon fill="#8dd3c7" stroke="black" points="414.32,-84.8 411.32,-88.8 390.32,-88.8 387.32,-84.8 325.68,-84.8 325.68,-48.8 414.32,-48.8 414.32,-84.8"/>
<text text-anchor="middle" x="370" y="-62.6" font-family="Times,serif" font-size="14.00">IonicModule</text>
</g>
<!-- IonicModule&#45;&gt;FriendsPageModule -->
<g id="edge4" class="edge">
<title>IonicModule&#45;&gt;FriendsPageModule</title>
<path fill="none" stroke="black" d="M370,-84.91C370,-84.91 370,-103.79 370,-103.79"/>
<polygon fill="black" stroke="black" points="366.5,-103.79 370,-113.79 373.5,-103.79 366.5,-103.79"/>
</g>
<!-- FriendsPageRoutingModule -->
<g id="node6" class="node">
<title>FriendsPageRoutingModule</title>
<polygon fill="#8dd3c7" stroke="black" points="307.87,-84.8 304.87,-88.8 283.87,-88.8 280.87,-84.8 134.13,-84.8 134.13,-48.8 307.87,-48.8 307.87,-84.8"/>
<text text-anchor="middle" x="221" y="-62.6" font-family="Times,serif" font-size="14.00">FriendsPageRoutingModule</text>
</g>
<!-- FriendsPageRoutingModule&#45;&gt;FriendsPageModule -->
<g id="edge5" class="edge">
<title>FriendsPageRoutingModule&#45;&gt;FriendsPageModule</title>
<path fill="none" stroke="black" d="M308.04,-66.8C313.52,-66.8 316.89,-66.8 316.89,-66.8 316.89,-66.8 316.89,-103.69 316.89,-103.69"/>
<polygon fill="black" stroke="black" points="313.39,-103.69 316.89,-113.69 320.39,-103.69 313.39,-103.69"/>
</g>
</g>
</svg>
