<?xml version="1.0" encoding="UTF-8" standalone="no"?>
<!DOCTYPE svg PUBLIC "-//W3C//DTD SVG 1.1//EN"
 "http://www.w3.org/Graphics/SVG/1.1/DTD/svg11.dtd">
<!-- Generated by graphviz version 2.47.3 (20210619.1520)
 -->
<!-- Title: dependencies Pages: 1 -->
<svg width="340pt" height="174pt"
 viewBox="0.00 0.00 340.00 173.80" xmlns="http://www.w3.org/2000/svg" xmlns:xlink="http://www.w3.org/1999/xlink">
<g id="graph0" class="graph" transform="scale(1 1) rotate(0) translate(4 169.8)">
<title>dependencies</title>
<polygon fill="white" stroke="transparent" points="-4,4 -4,-169.8 336,-169.8 336,4 -4,4"/>
<text text-anchor="middle" x="166" y="-8.2" font-family="sans-serif" font-size="14.00">dependencies</text>
<g id="clust1" class="cluster">
<title>cluster_FriendsPageModule</title>
<polygon fill="none" stroke="black" stroke-dasharray="1,5" points="8,-32.8 8,-157.8 324,-157.8 324,-32.8 8,-32.8"/>
</g>
<g id="clust2" class="cluster">
<title>cluster_FriendsPageModule_declarations</title>
<polygon fill="none" stroke="black" points="214,-40.8 214,-92.8 316,-92.8 316,-40.8 214,-40.8"/>
</g>
<g id="clust4" class="cluster">
<title>cluster_FriendsPageModule_imports</title>
<polygon fill="none" stroke="black" points="16,-40.8 16,-92.8 206,-92.8 206,-40.8 16,-40.8"/>
</g>
<!-- FriendsPage -->
<g id="node1" class="node">
<title>FriendsPage</title>
<polygon fill="#ffffb3" stroke="black" points="307.71,-84.8 222.29,-84.8 222.29,-48.8 307.71,-48.8 307.71,-84.8"/>
<text text-anchor="middle" x="265" y="-62.6" font-family="Times,serif" font-size="14.00">FriendsPage</text>
</g>
<!-- FriendsPageModule -->
<g id="node2" class="node">
<title>FriendsPageModule</title>
<polygon fill="#8dd3c7" stroke="black" points="245.25,-149.8 242.25,-153.8 221.25,-153.8 218.25,-149.8 116.75,-149.8 116.75,-113.8 245.25,-113.8 245.25,-149.8"/>
<text text-anchor="middle" x="181" y="-127.6" font-family="Times,serif" font-size="14.00">FriendsPageModule</text>
</g>
<!-- FriendsPage&#45;&gt;FriendsPageModule -->
<g id="edge1" class="edge">
<title>FriendsPage&#45;&gt;FriendsPageModule</title>
<path fill="none" stroke="black" d="M233.89,-84.91C233.89,-84.91 233.89,-103.79 233.89,-103.79"/>
<polygon fill="black" stroke="black" points="230.39,-103.79 233.89,-113.79 237.39,-103.79 230.39,-103.79"/>
</g>
<!-- FriendsPageRoutingModule -->
<g id="node3" class="node">
<title>FriendsPageRoutingModule</title>
<polygon fill="#8dd3c7" stroke="black" points="197.87,-84.8 194.87,-88.8 173.87,-88.8 170.87,-84.8 24.13,-84.8 24.13,-48.8 197.87,-48.8 197.87,-84.8"/>
<text text-anchor="middle" x="111" y="-62.6" font-family="Times,serif" font-size="14.00">FriendsPageRoutingModule</text>
</g>
<!-- FriendsPageRoutingModule&#45;&gt;FriendsPageModule -->
<g id="edge2" class="edge">
<title>FriendsPageRoutingModule&#45;&gt;FriendsPageModule</title>
<path fill="none" stroke="black" d="M157.28,-84.91C157.28,-84.91 157.28,-103.79 157.28,-103.79"/>
<polygon fill="black" stroke="black" points="153.78,-103.79 157.28,-113.79 160.78,-103.79 153.78,-103.79"/>
</g>
</g>
</svg>
