<?xml version="1.0" encoding="UTF-8" standalone="no"?>
<!DOCTYPE svg PUBLIC "-//W3C//DTD SVG 1.1//EN"
 "http://www.w3.org/Graphics/SVG/1.1/DTD/svg11.dtd">
<!-- Generated by graphviz version 2.47.3 (20210619.1520)
 -->
<!-- Title: dependencies Pages: 1 -->
<svg width="1742pt" height="247pt"
 viewBox="0.00 0.00 1742.00 246.80" xmlns="http://www.w3.org/2000/svg" xmlns:xlink="http://www.w3.org/1999/xlink">
<g id="graph0" class="graph" transform="scale(1 1) rotate(0) translate(4 242.8)">
<title>dependencies</title>
<polygon fill="white" stroke="transparent" points="-4,4 -4,-242.8 1738,-242.8 1738,4 -4,4"/>
<text text-anchor="middle" x="867" y="-8.2" font-family="sans-serif" font-size="14.00">dependencies</text>
<g id="clust1" class="cluster">
<title>cluster_AppModule</title>
<polygon fill="none" stroke="black" stroke-dasharray="1,5" points="8,-32.8 8,-230.8 1726,-230.8 1726,-32.8 8,-32.8"/>
</g>
<g id="clust7" class="cluster">
<title>cluster_AppModule_providers</title>
<polygon fill="none" stroke="black" points="1188,-40.8 1188,-92.8 1718,-92.8 1718,-40.8 1188,-40.8"/>
</g>
<g id="clust2" class="cluster">
<title>cluster_AppModule_declarations</title>
<polygon fill="none" stroke="black" points="1058,-40.8 1058,-92.8 1180,-92.8 1180,-40.8 1058,-40.8"/>
</g>
<g id="clust4" class="cluster">
<title>cluster_AppModule_imports</title>
<polygon fill="none" stroke="black" points="16,-40.8 16,-92.8 1050,-92.8 1050,-40.8 16,-40.8"/>
</g>
<g id="clust6" class="cluster">
<title>cluster_AppModule_bootstrap</title>
<polygon fill="none" stroke="black" points="678,-170.8 678,-222.8 802,-222.8 802,-170.8 678,-170.8"/>
</g>
<!-- AppComponent -->
<g id="node1" class="node">
<title>AppComponent</title>
<polygon fill="#ffffb3" stroke="black" points="1171.94,-84.8 1066.06,-84.8 1066.06,-48.8 1171.94,-48.8 1171.94,-84.8"/>
<text text-anchor="middle" x="1119" y="-62.6" font-family="Times,serif" font-size="14.00">AppComponent</text>
</g>
<!-- AppModule -->
<g id="node2" class="node">
<title>AppModule</title>
<polygon fill="#8dd3c7" stroke="black" points="781.66,-149.8 778.66,-153.8 757.66,-153.8 754.66,-149.8 698.34,-149.8 698.34,-113.8 781.66,-113.8 781.66,-149.8"/>
<text text-anchor="middle" x="740" y="-127.6" font-family="Times,serif" font-size="14.00">AppModule</text>
</g>
<!-- AppComponent&#45;&gt;AppModule -->
<g id="edge1" class="edge">
<title>AppComponent&#45;&gt;AppModule</title>
<path fill="none" stroke="black" d="M1119,-84.91C1119,-104.14 1119,-131.8 1119,-131.8 1119,-131.8 792.01,-131.8 792.01,-131.8"/>
<polygon fill="black" stroke="black" points="792.01,-128.3 782.01,-131.8 792.01,-135.3 792.01,-128.3"/>
</g>
<!-- AppComponent  -->
<g id="node9" class="node">
<title>AppComponent </title>
<polygon fill="#80b1d3" stroke="black" points="794.44,-214.8 685.56,-214.8 685.56,-178.8 794.44,-178.8 794.44,-214.8"/>
<text text-anchor="middle" x="740" y="-192.6" font-family="Times,serif" font-size="14.00">AppComponent </text>
</g>
<!-- AppModule&#45;&gt;AppComponent  -->
<g id="edge8" class="edge">
<title>AppModule&#45;&gt;AppComponent </title>
<path fill="none" stroke="black" stroke-dasharray="1,5" d="M740,-149.91C740,-149.91 740,-168.79 740,-168.79"/>
<polygon fill="black" stroke="black" points="736.5,-168.79 740,-178.79 743.5,-168.79 736.5,-168.79"/>
</g>
<!-- BrowserModule -->
<g id="node3" class="node">
<title>BrowserModule</title>
<polygon fill="#8dd3c7" stroke="black" points="1042.47,-84.8 1039.47,-88.8 1018.47,-88.8 1015.47,-84.8 935.53,-84.8 935.53,-48.8 1042.47,-48.8 1042.47,-84.8"/>
<text text-anchor="middle" x="989" y="-62.6" font-family="Times,serif" font-size="14.00">BrowserModule</text>
</g>
<!-- BrowserModule&#45;&gt;AppModule -->
<g id="edge2" class="edge">
<title>BrowserModule&#45;&gt;AppModule</title>
<path fill="none" stroke="black" d="M989,-84.83C989,-101.2 989,-122.8 989,-122.8 989,-122.8 791.68,-122.8 791.68,-122.8"/>
<polygon fill="black" stroke="black" points="791.68,-119.3 781.68,-122.8 791.68,-126.3 791.68,-119.3"/>
</g>
<!-- IonicModule.forRoot() -->
<g id="node4" class="node">
<title>IonicModule.forRoot()</title>
<polygon fill="#8dd3c7" stroke="black" points="917.19,-84.8 914.19,-88.8 893.19,-88.8 890.19,-84.8 772.81,-84.8 772.81,-48.8 917.19,-48.8 917.19,-84.8"/>
<text text-anchor="middle" x="845" y="-62.6" font-family="Times,serif" font-size="14.00">IonicModule.forRoot()</text>
</g>
<!-- IonicModule.forRoot()&#45;&gt;AppModule -->
<g id="edge3" class="edge">
<title>IonicModule.forRoot()&#45;&gt;AppModule</title>
<path fill="none" stroke="black" d="M777.24,-84.91C777.24,-84.91 777.24,-103.79 777.24,-103.79"/>
<polygon fill="black" stroke="black" points="773.74,-103.79 777.24,-113.79 780.74,-103.79 773.74,-103.79"/>
</g>
<!-- AngularFireModule.initializeApp(args) -->
<g id="node5" class="node">
<title>AngularFireModule.initializeApp(args)</title>
<polygon fill="#8dd3c7" stroke="black" points="754.71,-84.8 751.71,-88.8 730.71,-88.8 727.71,-84.8 517.29,-84.8 517.29,-48.8 754.71,-48.8 754.71,-84.8"/>
<text text-anchor="middle" x="636" y="-62.6" font-family="Times,serif" font-size="14.00">AngularFireModule.initializeApp(args)</text>
</g>
<!-- AngularFireModule.initializeApp(args)&#45;&gt;AppModule -->
<g id="edge4" class="edge">
<title>AngularFireModule.initializeApp(args)&#45;&gt;AppModule</title>
<path fill="none" stroke="black" d="M726.39,-84.91C726.39,-84.91 726.39,-103.79 726.39,-103.79"/>
<polygon fill="black" stroke="black" points="722.89,-103.79 726.39,-113.79 729.89,-103.79 722.89,-103.79"/>
</g>
<!-- AngularFirestoreModule -->
<g id="node6" class="node">
<title>AngularFirestoreModule</title>
<polygon fill="#8dd3c7" stroke="black" points="499.68,-84.8 496.68,-88.8 475.68,-88.8 472.68,-84.8 344.32,-84.8 344.32,-48.8 499.68,-48.8 499.68,-84.8"/>
<text text-anchor="middle" x="422" y="-62.6" font-family="Times,serif" font-size="14.00">AngularFirestoreModule</text>
</g>
<!-- AngularFirestoreModule&#45;&gt;AppModule -->
<g id="edge5" class="edge">
<title>AngularFirestoreModule&#45;&gt;AppModule</title>
<path fill="none" stroke="black" d="M422,-84.83C422,-101.2 422,-122.8 422,-122.8 422,-122.8 688.1,-122.8 688.1,-122.8"/>
<polygon fill="black" stroke="black" points="688.1,-126.3 698.1,-122.8 688.1,-119.3 688.1,-126.3"/>
</g>
<!-- AngularFireAuthModule -->
<g id="node7" class="node">
<title>AngularFireAuthModule</title>
<polygon fill="#8dd3c7" stroke="black" points="325.97,-84.8 322.97,-88.8 301.97,-88.8 298.97,-84.8 170.03,-84.8 170.03,-48.8 325.97,-48.8 325.97,-84.8"/>
<text text-anchor="middle" x="248" y="-62.6" font-family="Times,serif" font-size="14.00">AngularFireAuthModule</text>
</g>
<!-- AngularFireAuthModule&#45;&gt;AppModule -->
<g id="edge6" class="edge">
<title>AngularFireAuthModule&#45;&gt;AppModule</title>
<path fill="none" stroke="black" d="M248,-84.91C248,-104.14 248,-131.8 248,-131.8 248,-131.8 688.05,-131.8 688.05,-131.8"/>
<polygon fill="black" stroke="black" points="688.05,-135.3 698.05,-131.8 688.05,-128.3 688.05,-135.3"/>
</g>
<!-- AppRoutingModule -->
<g id="node8" class="node">
<title>AppRoutingModule</title>
<polygon fill="#8dd3c7" stroke="black" points="152.27,-84.8 149.27,-88.8 128.27,-88.8 125.27,-84.8 23.73,-84.8 23.73,-48.8 152.27,-48.8 152.27,-84.8"/>
<text text-anchor="middle" x="88" y="-62.6" font-family="Times,serif" font-size="14.00">AppRoutingModule</text>
</g>
<!-- AppRoutingModule&#45;&gt;AppModule -->
<g id="edge7" class="edge">
<title>AppRoutingModule&#45;&gt;AppModule</title>
<path fill="none" stroke="black" d="M88,-85.09C88,-107.01 88,-140.8 88,-140.8 88,-140.8 688.22,-140.8 688.22,-140.8"/>
<polygon fill="black" stroke="black" points="688.22,-144.3 698.22,-140.8 688.22,-137.3 688.22,-144.3"/>
</g>
<!-- { provide: RouteReuseStrategy, useClass: IonicRouteStrategy } -->
<g id="node10" class="node">
<title>{ provide: RouteReuseStrategy, useClass: IonicRouteStrategy }</title>
<ellipse fill="#fdb462" stroke="black" cx="1453" cy="-66.8" rx="257.27" ry="18"/>
<text text-anchor="middle" x="1453" y="-62.6" font-family="Times,serif" font-size="14.00">{ provide: RouteReuseStrategy, useClass: IonicRouteStrategy }</text>
</g>
<!-- { provide: RouteReuseStrategy, useClass: IonicRouteStrategy }&#45;&gt;AppModule -->
<g id="edge9" class="edge">
<title>{ provide: RouteReuseStrategy, useClass: IonicRouteStrategy }&#45;&gt;AppModule</title>
<path fill="none" stroke="black" d="M1453,-85.09C1453,-107.01 1453,-140.8 1453,-140.8 1453,-140.8 791.68,-140.8 791.68,-140.8"/>
<polygon fill="black" stroke="black" points="791.68,-137.3 781.68,-140.8 791.68,-144.3 791.68,-137.3"/>
</g>
</g>
</svg>
