<?xml version="1.0" encoding="UTF-8" standalone="no"?>
<!DOCTYPE svg PUBLIC "-//W3C//DTD SVG 1.1//EN"
 "http://www.w3.org/Graphics/SVG/1.1/DTD/svg11.dtd">
<!-- Generated by graphviz version 2.47.3 (20210619.1520)
 -->
<!-- Title: dependencies Pages: 1 -->
<svg width="753pt" height="174pt"
 viewBox="0.00 0.00 753.00 173.80" xmlns="http://www.w3.org/2000/svg" xmlns:xlink="http://www.w3.org/1999/xlink">
<g id="graph0" class="graph" transform="scale(1 1) rotate(0) translate(4 169.8)">
<title>dependencies</title>
<polygon fill="white" stroke="transparent" points="-4,4 -4,-169.8 749,-169.8 749,4 -4,4"/>
<text text-anchor="middle" x="372.5" y="-8.2" font-family="sans-serif" font-size="14.00">dependencies</text>
<g id="clust1" class="cluster">
<title>cluster_FriendProfilePageModule</title>
<polygon fill="none" stroke="black" stroke-dasharray="1,5" points="8,-32.8 8,-157.8 737,-157.8 737,-32.8 8,-32.8"/>
</g>
<g id="clust4" class="cluster">
<title>cluster_FriendProfilePageModule_imports</title>
<polygon fill="none" stroke="black" points="158,-40.8 158,-92.8 729,-92.8 729,-40.8 158,-40.8"/>
</g>
<g id="clust2" class="cluster">
<title>cluster_FriendProfilePageModule_declarations</title>
<polygon fill="none" stroke="black" points="16,-40.8 16,-92.8 150,-92.8 150,-40.8 16,-40.8"/>
</g>
<!-- FriendProfilePage -->
<g id="node1" class="node">
<title>FriendProfilePage</title>
<polygon fill="#ffffb3" stroke="black" points="141.86,-84.8 24.14,-84.8 24.14,-48.8 141.86,-48.8 141.86,-84.8"/>
<text text-anchor="middle" x="83" y="-62.6" font-family="Times,serif" font-size="14.00">FriendProfilePage</text>
</g>
<!-- FriendProfilePageModule -->
<g id="node2" class="node">
<title>FriendProfilePageModule</title>
<polygon fill="#8dd3c7" stroke="black" points="514.91,-149.8 511.91,-153.8 490.91,-153.8 487.91,-149.8 353.09,-149.8 353.09,-113.8 514.91,-113.8 514.91,-149.8"/>
<text text-anchor="middle" x="434" y="-127.6" font-family="Times,serif" font-size="14.00">FriendProfilePageModule</text>
</g>
<!-- FriendProfilePage&#45;&gt;FriendProfilePageModule -->
<g id="edge1" class="edge">
<title>FriendProfilePage&#45;&gt;FriendProfilePageModule</title>
<path fill="none" stroke="black" d="M83,-84.91C83,-104.14 83,-131.8 83,-131.8 83,-131.8 343.03,-131.8 343.03,-131.8"/>
<polygon fill="black" stroke="black" points="343.03,-135.3 353.03,-131.8 343.03,-128.3 343.03,-135.3"/>
</g>
<!-- CommonModule -->
<g id="node3" class="node">
<title>CommonModule</title>
<polygon fill="#8dd3c7" stroke="black" points="720.67,-84.8 717.67,-88.8 696.67,-88.8 693.67,-84.8 609.33,-84.8 609.33,-48.8 720.67,-48.8 720.67,-84.8"/>
<text text-anchor="middle" x="665" y="-62.6" font-family="Times,serif" font-size="14.00">CommonModule</text>
</g>
<!-- CommonModule&#45;&gt;FriendProfilePageModule -->
<g id="edge2" class="edge">
<title>CommonModule&#45;&gt;FriendProfilePageModule</title>
<path fill="none" stroke="black" d="M665,-84.91C665,-104.14 665,-131.8 665,-131.8 665,-131.8 524.79,-131.8 524.79,-131.8"/>
<polygon fill="black" stroke="black" points="524.79,-128.3 514.79,-131.8 524.79,-135.3 524.79,-128.3"/>
</g>
<!-- FormsModule -->
<g id="node4" class="node">
<title>FormsModule</title>
<polygon fill="#8dd3c7" stroke="black" points="591.83,-84.8 588.83,-88.8 567.83,-88.8 564.83,-84.8 496.17,-84.8 496.17,-48.8 591.83,-48.8 591.83,-84.8"/>
<text text-anchor="middle" x="544" y="-62.6" font-family="Times,serif" font-size="14.00">FormsModule</text>
</g>
<!-- FormsModule&#45;&gt;FriendProfilePageModule -->
<g id="edge3" class="edge">
<title>FormsModule&#45;&gt;FriendProfilePageModule</title>
<path fill="none" stroke="black" d="M505.52,-84.91C505.52,-84.91 505.52,-103.79 505.52,-103.79"/>
<polygon fill="black" stroke="black" points="502.02,-103.79 505.52,-113.79 509.02,-103.79 502.02,-103.79"/>
</g>
<!-- IonicModule -->
<g id="node5" class="node">
<title>IonicModule</title>
<polygon fill="#8dd3c7" stroke="black" points="478.32,-84.8 475.32,-88.8 454.32,-88.8 451.32,-84.8 389.68,-84.8 389.68,-48.8 478.32,-48.8 478.32,-84.8"/>
<text text-anchor="middle" x="434" y="-62.6" font-family="Times,serif" font-size="14.00">IonicModule</text>
</g>
<!-- IonicModule&#45;&gt;FriendProfilePageModule -->
<g id="edge4" class="edge">
<title>IonicModule&#45;&gt;FriendProfilePageModule</title>
<path fill="none" stroke="black" d="M434,-84.91C434,-84.91 434,-103.79 434,-103.79"/>
<polygon fill="black" stroke="black" points="430.5,-103.79 434,-113.79 437.5,-103.79 430.5,-103.79"/>
</g>
<!-- FriendProfilePageRoutingModule -->
<g id="node6" class="node">
<title>FriendProfilePageRoutingModule</title>
<polygon fill="#8dd3c7" stroke="black" points="372.03,-84.8 369.03,-88.8 348.03,-88.8 345.03,-84.8 165.97,-84.8 165.97,-48.8 372.03,-48.8 372.03,-84.8"/>
<text text-anchor="middle" x="269" y="-62.6" font-family="Times,serif" font-size="14.00">FriendProfilePageRoutingModule</text>
</g>
<!-- FriendProfilePageRoutingModule&#45;&gt;FriendProfilePageModule -->
<g id="edge5" class="edge">
<title>FriendProfilePageRoutingModule&#45;&gt;FriendProfilePageModule</title>
<path fill="none" stroke="black" d="M362.78,-84.91C362.78,-84.91 362.78,-103.79 362.78,-103.79"/>
<polygon fill="black" stroke="black" points="359.28,-103.79 362.78,-113.79 366.28,-103.79 359.28,-103.79"/>
</g>
</g>
</svg>
