<?xml version="1.0" encoding="UTF-8" standalone="no"?>
<!DOCTYPE svg PUBLIC "-//W3C//DTD SVG 1.1//EN"
 "http://www.w3.org/Graphics/SVG/1.1/DTD/svg11.dtd">
<!-- Generated by graphviz version 2.47.3 (20210619.1520)
 -->
<!-- Title: dependencies Pages: 1 -->
<svg width="759pt" height="174pt"
 viewBox="0.00 0.00 759.00 173.80" xmlns="http://www.w3.org/2000/svg" xmlns:xlink="http://www.w3.org/1999/xlink">
<g id="graph0" class="graph" transform="scale(1 1) rotate(0) translate(4 169.8)">
<title>dependencies</title>
<polygon fill="white" stroke="transparent" points="-4,4 -4,-169.8 755,-169.8 755,4 -4,4"/>
<text text-anchor="middle" x="375.5" y="-8.2" font-family="sans-serif" font-size="14.00">dependencies</text>
<g id="clust1" class="cluster">
<title>cluster_MemberViewPageModule</title>
<polygon fill="none" stroke="black" stroke-dasharray="1,5" points="8,-32.8 8,-157.8 743,-157.8 743,-32.8 8,-32.8"/>
</g>
<g id="clust2" class="cluster">
<title>cluster_MemberViewPageModule_declarations</title>
<polygon fill="none" stroke="black" points="599,-40.8 599,-92.8 735,-92.8 735,-40.8 599,-40.8"/>
</g>
<g id="clust4" class="cluster">
<title>cluster_MemberViewPageModule_imports</title>
<polygon fill="none" stroke="black" points="16,-40.8 16,-92.8 591,-92.8 591,-40.8 16,-40.8"/>
</g>
<!-- MemberViewPage -->
<g id="node1" class="node">
<title>MemberViewPage</title>
<polygon fill="#ffffb3" stroke="black" points="727.46,-84.8 606.54,-84.8 606.54,-48.8 727.46,-48.8 727.46,-84.8"/>
<text text-anchor="middle" x="667" y="-62.6" font-family="Times,serif" font-size="14.00">MemberViewPage</text>
</g>
<!-- MemberViewPageModule -->
<g id="node2" class="node">
<title>MemberViewPageModule</title>
<polygon fill="#8dd3c7" stroke="black" points="488.01,-149.8 485.01,-153.8 464.01,-153.8 461.01,-149.8 323.99,-149.8 323.99,-113.8 488.01,-113.8 488.01,-149.8"/>
<text text-anchor="middle" x="406" y="-127.6" font-family="Times,serif" font-size="14.00">MemberViewPageModule</text>
</g>
<!-- MemberViewPage&#45;&gt;MemberViewPageModule -->
<g id="edge1" class="edge">
<title>MemberViewPage&#45;&gt;MemberViewPageModule</title>
<path fill="none" stroke="black" d="M667,-84.91C667,-104.14 667,-131.8 667,-131.8 667,-131.8 498.22,-131.8 498.22,-131.8"/>
<polygon fill="black" stroke="black" points="498.22,-128.3 488.22,-131.8 498.22,-135.3 498.22,-128.3"/>
</g>
<!-- CommonModule -->
<g id="node3" class="node">
<title>CommonModule</title>
<polygon fill="#8dd3c7" stroke="black" points="582.67,-84.8 579.67,-88.8 558.67,-88.8 555.67,-84.8 471.33,-84.8 471.33,-48.8 582.67,-48.8 582.67,-84.8"/>
<text text-anchor="middle" x="527" y="-62.6" font-family="Times,serif" font-size="14.00">CommonModule</text>
</g>
<!-- CommonModule&#45;&gt;MemberViewPageModule -->
<g id="edge2" class="edge">
<title>CommonModule&#45;&gt;MemberViewPageModule</title>
<path fill="none" stroke="black" d="M479.71,-84.91C479.71,-84.91 479.71,-103.79 479.71,-103.79"/>
<polygon fill="black" stroke="black" points="476.21,-103.79 479.71,-113.79 483.21,-103.79 476.21,-103.79"/>
</g>
<!-- FormsModule -->
<g id="node4" class="node">
<title>FormsModule</title>
<polygon fill="#8dd3c7" stroke="black" points="453.83,-84.8 450.83,-88.8 429.83,-88.8 426.83,-84.8 358.17,-84.8 358.17,-48.8 453.83,-48.8 453.83,-84.8"/>
<text text-anchor="middle" x="406" y="-62.6" font-family="Times,serif" font-size="14.00">FormsModule</text>
</g>
<!-- FormsModule&#45;&gt;MemberViewPageModule -->
<g id="edge3" class="edge">
<title>FormsModule&#45;&gt;MemberViewPageModule</title>
<path fill="none" stroke="black" d="M406,-84.91C406,-84.91 406,-103.79 406,-103.79"/>
<polygon fill="black" stroke="black" points="402.5,-103.79 406,-113.79 409.5,-103.79 402.5,-103.79"/>
</g>
<!-- IonicModule -->
<g id="node5" class="node">
<title>IonicModule</title>
<polygon fill="#8dd3c7" stroke="black" points="340.32,-84.8 337.32,-88.8 316.32,-88.8 313.32,-84.8 251.68,-84.8 251.68,-48.8 340.32,-48.8 340.32,-84.8"/>
<text text-anchor="middle" x="296" y="-62.6" font-family="Times,serif" font-size="14.00">IonicModule</text>
</g>
<!-- IonicModule&#45;&gt;MemberViewPageModule -->
<g id="edge4" class="edge">
<title>IonicModule&#45;&gt;MemberViewPageModule</title>
<path fill="none" stroke="black" d="M331.95,-84.91C331.95,-84.91 331.95,-103.79 331.95,-103.79"/>
<polygon fill="black" stroke="black" points="328.45,-103.79 331.95,-113.79 335.45,-103.79 328.45,-103.79"/>
</g>
<!-- MemberViewPageRoutingModule -->
<g id="node6" class="node">
<title>MemberViewPageRoutingModule</title>
<polygon fill="#8dd3c7" stroke="black" points="233.62,-84.8 230.62,-88.8 209.62,-88.8 206.62,-84.8 24.38,-84.8 24.38,-48.8 233.62,-48.8 233.62,-84.8"/>
<text text-anchor="middle" x="129" y="-62.6" font-family="Times,serif" font-size="14.00">MemberViewPageRoutingModule</text>
</g>
<!-- MemberViewPageRoutingModule&#45;&gt;MemberViewPageModule -->
<g id="edge5" class="edge">
<title>MemberViewPageRoutingModule&#45;&gt;MemberViewPageModule</title>
<path fill="none" stroke="black" d="M129,-84.91C129,-104.14 129,-131.8 129,-131.8 129,-131.8 313.64,-131.8 313.64,-131.8"/>
<polygon fill="black" stroke="black" points="313.64,-135.3 323.64,-131.8 313.64,-128.3 313.64,-135.3"/>
</g>
</g>
</svg>
