<?xml version="1.0" encoding="UTF-8" standalone="no"?>
<!DOCTYPE svg PUBLIC "-//W3C//DTD SVG 1.1//EN"
 "http://www.w3.org/Graphics/SVG/1.1/DTD/svg11.dtd">
<!-- Generated by graphviz version 2.47.3 (20210619.1520)
 -->
<!-- Title: dependencies Pages: 1 -->
<svg width="410pt" height="174pt"
 viewBox="0.00 0.00 410.00 173.80" xmlns="http://www.w3.org/2000/svg" xmlns:xlink="http://www.w3.org/1999/xlink">
<g id="graph0" class="graph" transform="scale(1 1) rotate(0) translate(4 169.8)">
<title>dependencies</title>
<polygon fill="white" stroke="transparent" points="-4,4 -4,-169.8 406,-169.8 406,4 -4,4"/>
<text text-anchor="middle" x="201" y="-8.2" font-family="sans-serif" font-size="14.00">dependencies</text>
<g id="clust1" class="cluster">
<title>cluster_MemberViewPageModule</title>
<polygon fill="none" stroke="black" stroke-dasharray="1,5" points="8,-32.8 8,-157.8 394,-157.8 394,-32.8 8,-32.8"/>
</g>
<g id="clust2" class="cluster">
<title>cluster_MemberViewPageModule_declarations</title>
<polygon fill="none" stroke="black" points="250,-40.8 250,-92.8 386,-92.8 386,-40.8 250,-40.8"/>
</g>
<g id="clust4" class="cluster">
<title>cluster_MemberViewPageModule_imports</title>
<polygon fill="none" stroke="black" points="16,-40.8 16,-92.8 242,-92.8 242,-40.8 16,-40.8"/>
</g>
<!-- MemberViewPage -->
<g id="node1" class="node">
<title>MemberViewPage</title>
<polygon fill="#ffffb3" stroke="black" points="378.46,-84.8 257.54,-84.8 257.54,-48.8 378.46,-48.8 378.46,-84.8"/>
<text text-anchor="middle" x="318" y="-62.6" font-family="Times,serif" font-size="14.00">MemberViewPage</text>
</g>
<!-- MemberViewPageModule -->
<g id="node2" class="node">
<title>MemberViewPageModule</title>
<polygon fill="#8dd3c7" stroke="black" points="298.01,-149.8 295.01,-153.8 274.01,-153.8 271.01,-149.8 133.99,-149.8 133.99,-113.8 298.01,-113.8 298.01,-149.8"/>
<text text-anchor="middle" x="216" y="-127.6" font-family="Times,serif" font-size="14.00">MemberViewPageModule</text>
</g>
<!-- MemberViewPage&#45;&gt;MemberViewPageModule -->
<g id="edge1" class="edge">
<title>MemberViewPage&#45;&gt;MemberViewPageModule</title>
<path fill="none" stroke="black" d="M277.89,-84.91C277.89,-84.91 277.89,-103.79 277.89,-103.79"/>
<polygon fill="black" stroke="black" points="274.39,-103.79 277.89,-113.79 281.39,-103.79 274.39,-103.79"/>
</g>
<!-- MemberViewPageRoutingModule -->
<g id="node3" class="node">
<title>MemberViewPageRoutingModule</title>
<polygon fill="#8dd3c7" stroke="black" points="233.62,-84.8 230.62,-88.8 209.62,-88.8 206.62,-84.8 24.38,-84.8 24.38,-48.8 233.62,-48.8 233.62,-84.8"/>
<text text-anchor="middle" x="129" y="-62.6" font-family="Times,serif" font-size="14.00">MemberViewPageRoutingModule</text>
</g>
<!-- MemberViewPageRoutingModule&#45;&gt;MemberViewPageModule -->
<g id="edge2" class="edge">
<title>MemberViewPageRoutingModule&#45;&gt;MemberViewPageModule</title>
<path fill="none" stroke="black" d="M183.78,-84.91C183.78,-84.91 183.78,-103.79 183.78,-103.79"/>
<polygon fill="black" stroke="black" points="180.28,-103.79 183.78,-113.79 187.28,-103.79 180.28,-103.79"/>
</g>
</g>
</svg>
