<?xml version="1.0" encoding="UTF-8" standalone="no"?>
<!DOCTYPE svg PUBLIC "-//W3C//DTD SVG 1.1//EN"
 "http://www.w3.org/Graphics/SVG/1.1/DTD/svg11.dtd">
<!-- Generated by graphviz version 2.47.3 (20210619.1520)
 -->
<!-- Title: dependencies Pages: 1 -->
<svg width="344pt" height="174pt"
 viewBox="0.00 0.00 344.00 173.80" xmlns="http://www.w3.org/2000/svg" xmlns:xlink="http://www.w3.org/1999/xlink">
<g id="graph0" class="graph" transform="scale(1 1) rotate(0) translate(4 169.8)">
<title>dependencies</title>
<polygon fill="white" stroke="transparent" points="-4,4 -4,-169.8 340,-169.8 340,4 -4,4"/>
<text text-anchor="middle" x="168" y="-8.2" font-family="sans-serif" font-size="14.00">dependencies</text>
<g id="clust1" class="cluster">
<title>cluster_TutorialPageModule</title>
<polygon fill="none" stroke="black" stroke-dasharray="1,5" points="8,-32.8 8,-157.8 328,-157.8 328,-32.8 8,-32.8"/>
</g>
<g id="clust2" class="cluster">
<title>cluster_TutorialPageModule_declarations</title>
<polygon fill="none" stroke="black" points="216,-40.8 216,-92.8 320,-92.8 320,-40.8 216,-40.8"/>
</g>
<g id="clust4" class="cluster">
<title>cluster_TutorialPageModule_imports</title>
<polygon fill="none" stroke="black" points="16,-40.8 16,-92.8 208,-92.8 208,-40.8 16,-40.8"/>
</g>
<!-- TutorialPage -->
<g id="node1" class="node">
<title>TutorialPage</title>
<polygon fill="#ffffb3" stroke="black" points="312.31,-84.8 223.69,-84.8 223.69,-48.8 312.31,-48.8 312.31,-84.8"/>
<text text-anchor="middle" x="268" y="-62.6" font-family="Times,serif" font-size="14.00">TutorialPage</text>
</g>
<!-- TutorialPageModule -->
<g id="node2" class="node">
<title>TutorialPageModule</title>
<polygon fill="#8dd3c7" stroke="black" points="248.86,-149.8 245.86,-153.8 224.86,-153.8 221.86,-149.8 117.14,-149.8 117.14,-113.8 248.86,-113.8 248.86,-149.8"/>
<text text-anchor="middle" x="183" y="-127.6" font-family="Times,serif" font-size="14.00">TutorialPageModule</text>
</g>
<!-- TutorialPage&#45;&gt;TutorialPageModule -->
<g id="edge1" class="edge">
<title>TutorialPage&#45;&gt;TutorialPageModule</title>
<path fill="none" stroke="black" d="M236.39,-84.91C236.39,-84.91 236.39,-103.79 236.39,-103.79"/>
<polygon fill="black" stroke="black" points="232.89,-103.79 236.39,-113.79 239.89,-103.79 232.89,-103.79"/>
</g>
<!-- TutorialPageRoutingModule -->
<g id="node3" class="node">
<title>TutorialPageRoutingModule</title>
<polygon fill="#8dd3c7" stroke="black" points="200.48,-84.8 197.48,-88.8 176.48,-88.8 173.48,-84.8 23.52,-84.8 23.52,-48.8 200.48,-48.8 200.48,-84.8"/>
<text text-anchor="middle" x="112" y="-62.6" font-family="Times,serif" font-size="14.00">TutorialPageRoutingModule</text>
</g>
<!-- TutorialPageRoutingModule&#45;&gt;TutorialPageModule -->
<g id="edge2" class="edge">
<title>TutorialPageRoutingModule&#45;&gt;TutorialPageModule</title>
<path fill="none" stroke="black" d="M158.78,-84.91C158.78,-84.91 158.78,-103.79 158.78,-103.79"/>
<polygon fill="black" stroke="black" points="155.28,-103.79 158.78,-113.79 162.28,-103.79 155.28,-103.79"/>
</g>
</g>
</svg>
