<?xml version="1.0" encoding="UTF-8" standalone="no"?>
<!DOCTYPE svg PUBLIC "-//W3C//DTD SVG 1.1//EN"
 "http://www.w3.org/Graphics/SVG/1.1/DTD/svg11.dtd">
<!-- Generated by graphviz version 2.47.3 (20210619.1520)
 -->
<!-- Title: dependencies Pages: 1 -->
<svg width="694pt" height="174pt"
 viewBox="0.00 0.00 694.00 173.80" xmlns="http://www.w3.org/2000/svg" xmlns:xlink="http://www.w3.org/1999/xlink">
<g id="graph0" class="graph" transform="scale(1 1) rotate(0) translate(4 169.8)">
<title>dependencies</title>
<polygon fill="white" stroke="transparent" points="-4,4 -4,-169.8 690,-169.8 690,4 -4,4"/>
<text text-anchor="middle" x="343" y="-8.2" font-family="sans-serif" font-size="14.00">dependencies</text>
<g id="clust1" class="cluster">
<title>cluster_TutorialPageModule</title>
<polygon fill="none" stroke="black" stroke-dasharray="1,5" points="8,-32.8 8,-157.8 678,-157.8 678,-32.8 8,-32.8"/>
</g>
<g id="clust2" class="cluster">
<title>cluster_TutorialPageModule_declarations</title>
<polygon fill="none" stroke="black" points="566,-40.8 566,-92.8 670,-92.8 670,-40.8 566,-40.8"/>
</g>
<g id="clust4" class="cluster">
<title>cluster_TutorialPageModule_imports</title>
<polygon fill="none" stroke="black" points="16,-40.8 16,-92.8 558,-92.8 558,-40.8 16,-40.8"/>
</g>
<!-- TutorialPage -->
<g id="node1" class="node">
<title>TutorialPage</title>
<polygon fill="#ffffb3" stroke="black" points="662.31,-84.8 573.69,-84.8 573.69,-48.8 662.31,-48.8 662.31,-84.8"/>
<text text-anchor="middle" x="618" y="-62.6" font-family="Times,serif" font-size="14.00">TutorialPage</text>
</g>
<!-- TutorialPageModule -->
<g id="node2" class="node">
<title>TutorialPageModule</title>
<polygon fill="#8dd3c7" stroke="black" points="438.86,-149.8 435.86,-153.8 414.86,-153.8 411.86,-149.8 307.14,-149.8 307.14,-113.8 438.86,-113.8 438.86,-149.8"/>
<text text-anchor="middle" x="373" y="-127.6" font-family="Times,serif" font-size="14.00">TutorialPageModule</text>
</g>
<!-- TutorialPage&#45;&gt;TutorialPageModule -->
<g id="edge1" class="edge">
<title>TutorialPage&#45;&gt;TutorialPageModule</title>
<path fill="none" stroke="black" d="M618,-84.91C618,-104.14 618,-131.8 618,-131.8 618,-131.8 448.98,-131.8 448.98,-131.8"/>
<polygon fill="black" stroke="black" points="448.98,-128.3 438.98,-131.8 448.98,-135.3 448.98,-128.3"/>
</g>
<!-- CommonModule -->
<g id="node3" class="node">
<title>CommonModule</title>
<polygon fill="#8dd3c7" stroke="black" points="549.67,-84.8 546.67,-88.8 525.67,-88.8 522.67,-84.8 438.33,-84.8 438.33,-48.8 549.67,-48.8 549.67,-84.8"/>
<text text-anchor="middle" x="494" y="-62.6" font-family="Times,serif" font-size="14.00">CommonModule</text>
</g>
<!-- CommonModule&#45;&gt;TutorialPageModule -->
<g id="edge2" class="edge">
<title>CommonModule&#45;&gt;TutorialPageModule</title>
<path fill="none" stroke="black" d="M438.13,-66.8C432.85,-66.8 429.42,-66.8 429.42,-66.8 429.42,-66.8 429.42,-103.69 429.42,-103.69"/>
<polygon fill="black" stroke="black" points="425.92,-103.69 429.42,-113.69 432.92,-103.69 425.92,-103.69"/>
</g>
<!-- FormsModule -->
<g id="node4" class="node">
<title>FormsModule</title>
<polygon fill="#8dd3c7" stroke="black" points="420.83,-84.8 417.83,-88.8 396.83,-88.8 393.83,-84.8 325.17,-84.8 325.17,-48.8 420.83,-48.8 420.83,-84.8"/>
<text text-anchor="middle" x="373" y="-62.6" font-family="Times,serif" font-size="14.00">FormsModule</text>
</g>
<!-- FormsModule&#45;&gt;TutorialPageModule -->
<g id="edge3" class="edge">
<title>FormsModule&#45;&gt;TutorialPageModule</title>
<path fill="none" stroke="black" d="M373,-84.91C373,-84.91 373,-103.79 373,-103.79"/>
<polygon fill="black" stroke="black" points="369.5,-103.79 373,-113.79 376.5,-103.79 369.5,-103.79"/>
</g>
<!-- IonicModule -->
<g id="node5" class="node">
<title>IonicModule</title>
<polygon fill="#8dd3c7" stroke="black" points="307.32,-84.8 304.32,-88.8 283.32,-88.8 280.32,-84.8 218.68,-84.8 218.68,-48.8 307.32,-48.8 307.32,-84.8"/>
<text text-anchor="middle" x="263" y="-62.6" font-family="Times,serif" font-size="14.00">IonicModule</text>
</g>
<!-- IonicModule&#45;&gt;TutorialPageModule -->
<g id="edge4" class="edge">
<title>IonicModule&#45;&gt;TutorialPageModule</title>
<path fill="none" stroke="black" d="M307.45,-66.8C312.71,-66.8 316.25,-66.8 316.25,-66.8 316.25,-66.8 316.25,-103.69 316.25,-103.69"/>
<polygon fill="black" stroke="black" points="312.75,-103.69 316.25,-113.69 319.75,-103.69 312.75,-103.69"/>
</g>
<!-- TutorialPageRoutingModule -->
<g id="node6" class="node">
<title>TutorialPageRoutingModule</title>
<polygon fill="#8dd3c7" stroke="black" points="200.48,-84.8 197.48,-88.8 176.48,-88.8 173.48,-84.8 23.52,-84.8 23.52,-48.8 200.48,-48.8 200.48,-84.8"/>
<text text-anchor="middle" x="112" y="-62.6" font-family="Times,serif" font-size="14.00">TutorialPageRoutingModule</text>
</g>
<!-- TutorialPageRoutingModule&#45;&gt;TutorialPageModule -->
<g id="edge5" class="edge">
<title>TutorialPageRoutingModule&#45;&gt;TutorialPageModule</title>
<path fill="none" stroke="black" d="M112,-84.91C112,-104.14 112,-131.8 112,-131.8 112,-131.8 297.14,-131.8 297.14,-131.8"/>
<polygon fill="black" stroke="black" points="297.14,-135.3 307.14,-131.8 297.14,-128.3 297.14,-135.3"/>
</g>
</g>
</svg>
