<?xml version="1.0" encoding="UTF-8" standalone="no"?>
<!DOCTYPE svg PUBLIC "-//W3C//DTD SVG 1.1//EN"
 "http://www.w3.org/Graphics/SVG/1.1/DTD/svg11.dtd">
<!-- Generated by graphviz version 2.47.3 (20210619.1520)
 -->
<!-- Title: dependencies Pages: 1 -->
<svg width="250pt" height="247pt"
 viewBox="0.00 0.00 250.00 246.80" xmlns="http://www.w3.org/2000/svg" xmlns:xlink="http://www.w3.org/1999/xlink">
<g id="graph0" class="graph" transform="scale(1 1) rotate(0) translate(4 242.8)">
<title>dependencies</title>
<polygon fill="white" stroke="transparent" points="-4,4 -4,-242.8 246,-242.8 246,4 -4,4"/>
<text text-anchor="middle" x="121" y="-8.2" font-family="sans-serif" font-size="14.00">dependencies</text>
<g id="clust1" class="cluster">
<title>cluster_MemberViewPageRoutingModule</title>
<polygon fill="none" stroke="black" stroke-dasharray="1,5" points="8,-32.8 8,-230.8 234,-230.8 234,-32.8 8,-32.8"/>
</g>
<g id="clust3" class="cluster">
<title>cluster_MemberViewPageRoutingModule_imports</title>
<polygon fill="none" stroke="black" points="22,-40.8 22,-92.8 220,-92.8 220,-40.8 22,-40.8"/>
</g>
<g id="clust4" class="cluster">
<title>cluster_MemberViewPageRoutingModule_exports</title>
<polygon fill="none" stroke="black" points="62,-170.8 62,-222.8 180,-222.8 180,-170.8 62,-170.8"/>
</g>
<!-- RouterModule.forChild(args) -->
<g id="node1" class="node">
<title>RouterModule.forChild(args)</title>
<polygon fill="#8dd3c7" stroke="black" points="211.73,-84.8 208.73,-88.8 187.73,-88.8 184.73,-84.8 30.27,-84.8 30.27,-48.8 211.73,-48.8 211.73,-84.8"/>
<text text-anchor="middle" x="121" y="-62.6" font-family="Times,serif" font-size="14.00">RouterModule.forChild(args)</text>
</g>
<!-- MemberViewPageRoutingModule -->
<g id="node2" class="node">
<title>MemberViewPageRoutingModule</title>
<polygon fill="#8dd3c7" stroke="black" points="225.62,-149.8 222.62,-153.8 201.62,-153.8 198.62,-149.8 16.38,-149.8 16.38,-113.8 225.62,-113.8 225.62,-149.8"/>
<text text-anchor="middle" x="121" y="-127.6" font-family="Times,serif" font-size="14.00">MemberViewPageRoutingModule</text>
</g>
<!-- RouterModule.forChild(args)&#45;&gt;MemberViewPageRoutingModule -->
<g id="edge1" class="edge">
<title>RouterModule.forChild(args)&#45;&gt;MemberViewPageRoutingModule</title>
<path fill="none" stroke="black" d="M121,-84.91C121,-84.91 121,-103.79 121,-103.79"/>
<polygon fill="black" stroke="black" points="117.5,-103.79 121,-113.79 124.5,-103.79 117.5,-103.79"/>
</g>
<!-- RouterModule  -->
<g id="node3" class="node">
<title>RouterModule </title>
<polygon fill="#fb8072" stroke="black" points="171.65,-214.8 70.35,-214.8 70.35,-178.8 171.65,-178.8 171.65,-214.8"/>
<text text-anchor="middle" x="121" y="-192.6" font-family="Times,serif" font-size="14.00">RouterModule </text>
</g>
<!-- MemberViewPageRoutingModule&#45;&gt;RouterModule  -->
<g id="edge2" class="edge">
<title>MemberViewPageRoutingModule&#45;&gt;RouterModule </title>
<path fill="none" stroke="black" stroke-dasharray="5,2" d="M121,-149.91C121,-149.91 121,-168.79 121,-168.79"/>
<polygon fill="black" stroke="black" points="117.5,-168.79 121,-178.79 124.5,-168.79 117.5,-168.79"/>
</g>
</g>
</svg>
