<?xml version="1.0" encoding="UTF-8" standalone="no"?>
<!DOCTYPE svg PUBLIC "-//W3C//DTD SVG 1.1//EN"
 "http://www.w3.org/Graphics/SVG/1.1/DTD/svg11.dtd">
<!-- Generated by graphviz version 2.47.3 (20210619.1520)
 -->
<!-- Title: dependencies Pages: 1 -->
<svg width="246pt" height="247pt"
 viewBox="0.00 0.00 246.00 246.80" xmlns="http://www.w3.org/2000/svg" xmlns:xlink="http://www.w3.org/1999/xlink">
<g id="graph0" class="graph" transform="scale(1 1) rotate(0) translate(4 242.8)">
<title>dependencies</title>
<polygon fill="white" stroke="transparent" points="-4,4 -4,-242.8 242,-242.8 242,4 -4,4"/>
<text text-anchor="middle" x="119" y="-8.2" font-family="sans-serif" font-size="14.00">dependencies</text>
<g id="clust1" class="cluster">
<title>cluster_FriendProfilePageRoutingModule</title>
<polygon fill="none" stroke="black" stroke-dasharray="1,5" points="8,-32.8 8,-230.8 230,-230.8 230,-32.8 8,-32.8"/>
</g>
<g id="clust4" class="cluster">
<title>cluster_FriendProfilePageRoutingModule_exports</title>
<polygon fill="none" stroke="black" points="60,-170.8 60,-222.8 178,-222.8 178,-170.8 60,-170.8"/>
</g>
<g id="clust3" class="cluster">
<title>cluster_FriendProfilePageRoutingModule_imports</title>
<polygon fill="none" stroke="black" points="20,-40.8 20,-92.8 218,-92.8 218,-40.8 20,-40.8"/>
</g>
<!-- RouterModule.forChild(args) -->
<g id="node1" class="node">
<title>RouterModule.forChild(args)</title>
<polygon fill="#8dd3c7" stroke="black" points="209.73,-84.8 206.73,-88.8 185.73,-88.8 182.73,-84.8 28.27,-84.8 28.27,-48.8 209.73,-48.8 209.73,-84.8"/>
<text text-anchor="middle" x="119" y="-62.6" font-family="Times,serif" font-size="14.00">RouterModule.forChild(args)</text>
</g>
<!-- FriendProfilePageRoutingModule -->
<g id="node2" class="node">
<title>FriendProfilePageRoutingModule</title>
<polygon fill="#8dd3c7" stroke="black" points="222.03,-149.8 219.03,-153.8 198.03,-153.8 195.03,-149.8 15.97,-149.8 15.97,-113.8 222.03,-113.8 222.03,-149.8"/>
<text text-anchor="middle" x="119" y="-127.6" font-family="Times,serif" font-size="14.00">FriendProfilePageRoutingModule</text>
</g>
<!-- RouterModule.forChild(args)&#45;&gt;FriendProfilePageRoutingModule -->
<g id="edge1" class="edge">
<title>RouterModule.forChild(args)&#45;&gt;FriendProfilePageRoutingModule</title>
<path fill="none" stroke="black" d="M119,-84.91C119,-84.91 119,-103.79 119,-103.79"/>
<polygon fill="black" stroke="black" points="115.5,-103.79 119,-113.79 122.5,-103.79 115.5,-103.79"/>
</g>
<!-- RouterModule  -->
<g id="node3" class="node">
<title>RouterModule </title>
<polygon fill="#fb8072" stroke="black" points="169.65,-214.8 68.35,-214.8 68.35,-178.8 169.65,-178.8 169.65,-214.8"/>
<text text-anchor="middle" x="119" y="-192.6" font-family="Times,serif" font-size="14.00">RouterModule </text>
</g>
<!-- FriendProfilePageRoutingModule&#45;&gt;RouterModule  -->
<g id="edge2" class="edge">
<title>FriendProfilePageRoutingModule&#45;&gt;RouterModule </title>
<path fill="none" stroke="black" stroke-dasharray="5,2" d="M119,-149.91C119,-149.91 119,-168.79 119,-168.79"/>
<polygon fill="black" stroke="black" points="115.5,-168.79 119,-178.79 122.5,-168.79 115.5,-168.79"/>
</g>
</g>
</svg>
