<?xml version="1.0" encoding="UTF-8" standalone="no"?>
<!DOCTYPE svg PUBLIC "-//W3C//DTD SVG 1.1//EN"
 "http://www.w3.org/Graphics/SVG/1.1/DTD/svg11.dtd">
<!-- Generated by graphviz version 2.47.3 (20210619.1520)
 -->
<!-- Title: dependencies Pages: 1 -->
<svg width="758pt" height="174pt"
 viewBox="0.00 0.00 758.00 173.80" xmlns="http://www.w3.org/2000/svg" xmlns:xlink="http://www.w3.org/1999/xlink">
<g id="graph0" class="graph" transform="scale(1 1) rotate(0) translate(4 169.8)">
<title>dependencies</title>
<polygon fill="white" stroke="transparent" points="-4,4 -4,-169.8 754,-169.8 754,4 -4,4"/>
<text text-anchor="middle" x="375" y="-8.2" font-family="sans-serif" font-size="14.00">dependencies</text>
<g id="clust1" class="cluster">
<title>cluster_AddMembersPageModule</title>
<polygon fill="none" stroke="black" stroke-dasharray="1,5" points="8,-32.8 8,-157.8 742,-157.8 742,-32.8 8,-32.8"/>
</g>
<g id="clust2" class="cluster">
<title>cluster_AddMembersPageModule_declarations</title>
<polygon fill="none" stroke="black" points="598,-40.8 598,-92.8 734,-92.8 734,-40.8 598,-40.8"/>
</g>
<g id="clust4" class="cluster">
<title>cluster_AddMembersPageModule_imports</title>
<polygon fill="none" stroke="black" points="16,-40.8 16,-92.8 590,-92.8 590,-40.8 16,-40.8"/>
</g>
<!-- AddMembersPage -->
<g id="node1" class="node">
<title>AddMembersPage</title>
<polygon fill="#ffffb3" stroke="black" points="726.19,-84.8 605.81,-84.8 605.81,-48.8 726.19,-48.8 726.19,-84.8"/>
<text text-anchor="middle" x="666" y="-62.6" font-family="Times,serif" font-size="14.00">AddMembersPage</text>
</g>
<!-- AddMembersPageModule -->
<g id="node2" class="node">
<title>AddMembersPageModule</title>
<polygon fill="#8dd3c7" stroke="black" points="486.74,-149.8 483.74,-153.8 462.74,-153.8 459.74,-149.8 323.26,-149.8 323.26,-113.8 486.74,-113.8 486.74,-149.8"/>
<text text-anchor="middle" x="405" y="-127.6" font-family="Times,serif" font-size="14.00">AddMembersPageModule</text>
</g>
<!-- AddMembersPage&#45;&gt;AddMembersPageModule -->
<g id="edge1" class="edge">
<title>AddMembersPage&#45;&gt;AddMembersPageModule</title>
<path fill="none" stroke="black" d="M666,-84.91C666,-104.14 666,-131.8 666,-131.8 666,-131.8 496.87,-131.8 496.87,-131.8"/>
<polygon fill="black" stroke="black" points="496.87,-128.3 486.87,-131.8 496.87,-135.3 496.87,-128.3"/>
</g>
<!-- CommonModule -->
<g id="node3" class="node">
<title>CommonModule</title>
<polygon fill="#8dd3c7" stroke="black" points="581.67,-84.8 578.67,-88.8 557.67,-88.8 554.67,-84.8 470.33,-84.8 470.33,-48.8 581.67,-48.8 581.67,-84.8"/>
<text text-anchor="middle" x="526" y="-62.6" font-family="Times,serif" font-size="14.00">CommonModule</text>
</g>
<!-- CommonModule&#45;&gt;AddMembersPageModule -->
<g id="edge2" class="edge">
<title>CommonModule&#45;&gt;AddMembersPageModule</title>
<path fill="none" stroke="black" d="M478.52,-84.91C478.52,-84.91 478.52,-103.79 478.52,-103.79"/>
<polygon fill="black" stroke="black" points="475.02,-103.79 478.52,-113.79 482.02,-103.79 475.02,-103.79"/>
</g>
<!-- FormsModule -->
<g id="node4" class="node">
<title>FormsModule</title>
<polygon fill="#8dd3c7" stroke="black" points="452.83,-84.8 449.83,-88.8 428.83,-88.8 425.83,-84.8 357.17,-84.8 357.17,-48.8 452.83,-48.8 452.83,-84.8"/>
<text text-anchor="middle" x="405" y="-62.6" font-family="Times,serif" font-size="14.00">FormsModule</text>
</g>
<!-- FormsModule&#45;&gt;AddMembersPageModule -->
<g id="edge3" class="edge">
<title>FormsModule&#45;&gt;AddMembersPageModule</title>
<path fill="none" stroke="black" d="M405,-84.91C405,-84.91 405,-103.79 405,-103.79"/>
<polygon fill="black" stroke="black" points="401.5,-103.79 405,-113.79 408.5,-103.79 401.5,-103.79"/>
</g>
<!-- IonicModule -->
<g id="node5" class="node">
<title>IonicModule</title>
<polygon fill="#8dd3c7" stroke="black" points="339.32,-84.8 336.32,-88.8 315.32,-88.8 312.32,-84.8 250.68,-84.8 250.68,-48.8 339.32,-48.8 339.32,-84.8"/>
<text text-anchor="middle" x="295" y="-62.6" font-family="Times,serif" font-size="14.00">IonicModule</text>
</g>
<!-- IonicModule&#45;&gt;AddMembersPageModule -->
<g id="edge4" class="edge">
<title>IonicModule&#45;&gt;AddMembersPageModule</title>
<path fill="none" stroke="black" d="M331.14,-84.91C331.14,-84.91 331.14,-103.79 331.14,-103.79"/>
<polygon fill="black" stroke="black" points="327.64,-103.79 331.14,-113.79 334.64,-103.79 327.64,-103.79"/>
</g>
<!-- AddMembersPageRoutingModule -->
<g id="node6" class="node">
<title>AddMembersPageRoutingModule</title>
<polygon fill="#8dd3c7" stroke="black" points="232.36,-84.8 229.36,-88.8 208.36,-88.8 205.36,-84.8 23.64,-84.8 23.64,-48.8 232.36,-48.8 232.36,-84.8"/>
<text text-anchor="middle" x="128" y="-62.6" font-family="Times,serif" font-size="14.00">AddMembersPageRoutingModule</text>
</g>
<!-- AddMembersPageRoutingModule&#45;&gt;AddMembersPageModule -->
<g id="edge5" class="edge">
<title>AddMembersPageRoutingModule&#45;&gt;AddMembersPageModule</title>
<path fill="none" stroke="black" d="M128,-84.91C128,-104.14 128,-131.8 128,-131.8 128,-131.8 313.02,-131.8 313.02,-131.8"/>
<polygon fill="black" stroke="black" points="313.02,-135.3 323.02,-131.8 313.02,-128.3 313.02,-135.3"/>
</g>
</g>
</svg>
