<?xml version="1.0" encoding="UTF-8" standalone="no"?>
<!DOCTYPE svg PUBLIC "-//W3C//DTD SVG 1.1//EN"
 "http://www.w3.org/Graphics/SVG/1.1/DTD/svg11.dtd">
<!-- Generated by graphviz version 2.47.3 (20210619.1520)
 -->
<!-- Title: dependencies Pages: 1 -->
<svg width="408pt" height="174pt"
 viewBox="0.00 0.00 408.00 173.80" xmlns="http://www.w3.org/2000/svg" xmlns:xlink="http://www.w3.org/1999/xlink">
<g id="graph0" class="graph" transform="scale(1 1) rotate(0) translate(4 169.8)">
<title>dependencies</title>
<polygon fill="white" stroke="transparent" points="-4,4 -4,-169.8 404,-169.8 404,4 -4,4"/>
<text text-anchor="middle" x="200" y="-8.2" font-family="sans-serif" font-size="14.00">dependencies</text>
<g id="clust1" class="cluster">
<title>cluster_AddMembersPageModule</title>
<polygon fill="none" stroke="black" stroke-dasharray="1,5" points="8,-32.8 8,-157.8 392,-157.8 392,-32.8 8,-32.8"/>
</g>
<g id="clust2" class="cluster">
<title>cluster_AddMembersPageModule_declarations</title>
<polygon fill="none" stroke="black" points="248,-40.8 248,-92.8 384,-92.8 384,-40.8 248,-40.8"/>
</g>
<g id="clust4" class="cluster">
<title>cluster_AddMembersPageModule_imports</title>
<polygon fill="none" stroke="black" points="16,-40.8 16,-92.8 240,-92.8 240,-40.8 16,-40.8"/>
</g>
<!-- AddMembersPage -->
<g id="node1" class="node">
<title>AddMembersPage</title>
<polygon fill="#ffffb3" stroke="black" points="376.19,-84.8 255.81,-84.8 255.81,-48.8 376.19,-48.8 376.19,-84.8"/>
<text text-anchor="middle" x="316" y="-62.6" font-family="Times,serif" font-size="14.00">AddMembersPage</text>
</g>
<!-- AddMembersPageModule -->
<g id="node2" class="node">
<title>AddMembersPageModule</title>
<polygon fill="#8dd3c7" stroke="black" points="296.74,-149.8 293.74,-153.8 272.74,-153.8 269.74,-149.8 133.26,-149.8 133.26,-113.8 296.74,-113.8 296.74,-149.8"/>
<text text-anchor="middle" x="215" y="-127.6" font-family="Times,serif" font-size="14.00">AddMembersPageModule</text>
</g>
<!-- AddMembersPage&#45;&gt;AddMembersPageModule -->
<g id="edge1" class="edge">
<title>AddMembersPage&#45;&gt;AddMembersPageModule</title>
<path fill="none" stroke="black" d="M276.39,-84.91C276.39,-84.91 276.39,-103.79 276.39,-103.79"/>
<polygon fill="black" stroke="black" points="272.89,-103.79 276.39,-113.79 279.89,-103.79 272.89,-103.79"/>
</g>
<!-- AddMembersPageRoutingModule -->
<g id="node3" class="node">
<title>AddMembersPageRoutingModule</title>
<polygon fill="#8dd3c7" stroke="black" points="232.36,-84.8 229.36,-88.8 208.36,-88.8 205.36,-84.8 23.64,-84.8 23.64,-48.8 232.36,-48.8 232.36,-84.8"/>
<text text-anchor="middle" x="128" y="-62.6" font-family="Times,serif" font-size="14.00">AddMembersPageRoutingModule</text>
</g>
<!-- AddMembersPageRoutingModule&#45;&gt;AddMembersPageModule -->
<g id="edge2" class="edge">
<title>AddMembersPageRoutingModule&#45;&gt;AddMembersPageModule</title>
<path fill="none" stroke="black" d="M182.78,-84.91C182.78,-84.91 182.78,-103.79 182.78,-103.79"/>
<polygon fill="black" stroke="black" points="179.28,-103.79 182.78,-113.79 186.28,-103.79 179.28,-103.79"/>
</g>
</g>
</svg>
