<?xml version="1.0" encoding="UTF-8" standalone="no"?>
<!DOCTYPE svg PUBLIC "-//W3C//DTD SVG 1.1//EN"
 "http://www.w3.org/Graphics/SVG/1.1/DTD/svg11.dtd">
<!-- Generated by graphviz version 2.47.3 (20210619.1520)
 -->
<!-- Title: dependencies Pages: 1 -->
<svg width="370pt" height="174pt"
 viewBox="0.00 0.00 370.00 173.80" xmlns="http://www.w3.org/2000/svg" xmlns:xlink="http://www.w3.org/1999/xlink">
<g id="graph0" class="graph" transform="scale(1 1) rotate(0) translate(4 169.8)">
<title>dependencies</title>
<polygon fill="white" stroke="transparent" points="-4,4 -4,-169.8 366,-169.8 366,4 -4,4"/>
<text text-anchor="middle" x="181" y="-8.2" font-family="sans-serif" font-size="14.00">dependencies</text>
<g id="clust1" class="cluster">
<title>cluster_GroupListPageModule</title>
<polygon fill="none" stroke="black" stroke-dasharray="1,5" points="8,-32.8 8,-157.8 354,-157.8 354,-32.8 8,-32.8"/>
</g>
<g id="clust2" class="cluster">
<title>cluster_GroupListPageModule_declarations</title>
<polygon fill="none" stroke="black" points="230,-40.8 230,-92.8 346,-92.8 346,-40.8 230,-40.8"/>
</g>
<g id="clust4" class="cluster">
<title>cluster_GroupListPageModule_imports</title>
<polygon fill="none" stroke="black" points="16,-40.8 16,-92.8 222,-92.8 222,-40.8 16,-40.8"/>
</g>
<!-- GroupListPage -->
<g id="node1" class="node">
<title>GroupListPage</title>
<polygon fill="#ffffb3" stroke="black" points="338.26,-84.8 237.74,-84.8 237.74,-48.8 338.26,-48.8 338.26,-84.8"/>
<text text-anchor="middle" x="288" y="-62.6" font-family="Times,serif" font-size="14.00">GroupListPage</text>
</g>
<!-- GroupListPageModule -->
<g id="node2" class="node">
<title>GroupListPageModule</title>
<polygon fill="#8dd3c7" stroke="black" points="268.31,-149.8 265.31,-153.8 244.31,-153.8 241.31,-149.8 123.69,-149.8 123.69,-113.8 268.31,-113.8 268.31,-149.8"/>
<text text-anchor="middle" x="196" y="-127.6" font-family="Times,serif" font-size="14.00">GroupListPageModule</text>
</g>
<!-- GroupListPage&#45;&gt;GroupListPageModule -->
<g id="edge1" class="edge">
<title>GroupListPage&#45;&gt;GroupListPageModule</title>
<path fill="none" stroke="black" d="M252.89,-84.91C252.89,-84.91 252.89,-103.79 252.89,-103.79"/>
<polygon fill="black" stroke="black" points="249.39,-103.79 252.89,-113.79 256.39,-103.79 249.39,-103.79"/>
</g>
<!-- GroupListPageRoutingModule -->
<g id="node3" class="node">
<title>GroupListPageRoutingModule</title>
<polygon fill="#8dd3c7" stroke="black" points="213.93,-84.8 210.93,-88.8 189.93,-88.8 186.93,-84.8 24.07,-84.8 24.07,-48.8 213.93,-48.8 213.93,-84.8"/>
<text text-anchor="middle" x="119" y="-62.6" font-family="Times,serif" font-size="14.00">GroupListPageRoutingModule</text>
</g>
<!-- GroupListPageRoutingModule&#45;&gt;GroupListPageModule -->
<g id="edge2" class="edge">
<title>GroupListPageRoutingModule&#45;&gt;GroupListPageModule</title>
<path fill="none" stroke="black" d="M168.78,-84.91C168.78,-84.91 168.78,-103.79 168.78,-103.79"/>
<polygon fill="black" stroke="black" points="165.28,-103.79 168.78,-113.79 172.28,-103.79 165.28,-103.79"/>
</g>
</g>
</svg>
