<?xml version="1.0" encoding="UTF-8" standalone="no"?>
<!DOCTYPE svg PUBLIC "-//W3C//DTD SVG 1.1//EN"
 "http://www.w3.org/Graphics/SVG/1.1/DTD/svg11.dtd">
<!-- Generated by graphviz version 2.47.3 (20210619.1520)
 -->
<!-- Title: dependencies Pages: 1 -->
<svg width="719pt" height="174pt"
 viewBox="0.00 0.00 719.00 173.80" xmlns="http://www.w3.org/2000/svg" xmlns:xlink="http://www.w3.org/1999/xlink">
<g id="graph0" class="graph" transform="scale(1 1) rotate(0) translate(4 169.8)">
<title>dependencies</title>
<polygon fill="white" stroke="transparent" points="-4,4 -4,-169.8 715,-169.8 715,4 -4,4"/>
<text text-anchor="middle" x="355.5" y="-8.2" font-family="sans-serif" font-size="14.00">dependencies</text>
<g id="clust1" class="cluster">
<title>cluster_GroupListPageModule</title>
<polygon fill="none" stroke="black" stroke-dasharray="1,5" points="8,-32.8 8,-157.8 703,-157.8 703,-32.8 8,-32.8"/>
</g>
<g id="clust2" class="cluster">
<title>cluster_GroupListPageModule_declarations</title>
<polygon fill="none" stroke="black" points="579,-40.8 579,-92.8 695,-92.8 695,-40.8 579,-40.8"/>
</g>
<g id="clust4" class="cluster">
<title>cluster_GroupListPageModule_imports</title>
<polygon fill="none" stroke="black" points="16,-40.8 16,-92.8 571,-92.8 571,-40.8 16,-40.8"/>
</g>
<!-- GroupListPage -->
<g id="node1" class="node">
<title>GroupListPage</title>
<polygon fill="#ffffb3" stroke="black" points="687.26,-84.8 586.74,-84.8 586.74,-48.8 687.26,-48.8 687.26,-84.8"/>
<text text-anchor="middle" x="637" y="-62.6" font-family="Times,serif" font-size="14.00">GroupListPage</text>
</g>
<!-- GroupListPageModule -->
<g id="node2" class="node">
<title>GroupListPageModule</title>
<polygon fill="#8dd3c7" stroke="black" points="458.31,-149.8 455.31,-153.8 434.31,-153.8 431.31,-149.8 313.69,-149.8 313.69,-113.8 458.31,-113.8 458.31,-149.8"/>
<text text-anchor="middle" x="386" y="-127.6" font-family="Times,serif" font-size="14.00">GroupListPageModule</text>
</g>
<!-- GroupListPage&#45;&gt;GroupListPageModule -->
<g id="edge1" class="edge">
<title>GroupListPage&#45;&gt;GroupListPageModule</title>
<path fill="none" stroke="black" d="M637,-84.91C637,-104.14 637,-131.8 637,-131.8 637,-131.8 468.26,-131.8 468.26,-131.8"/>
<polygon fill="black" stroke="black" points="468.26,-128.3 458.26,-131.8 468.26,-135.3 468.26,-128.3"/>
</g>
<!-- CommonModule -->
<g id="node3" class="node">
<title>CommonModule</title>
<polygon fill="#8dd3c7" stroke="black" points="562.67,-84.8 559.67,-88.8 538.67,-88.8 535.67,-84.8 451.33,-84.8 451.33,-48.8 562.67,-48.8 562.67,-84.8"/>
<text text-anchor="middle" x="507" y="-62.6" font-family="Times,serif" font-size="14.00">CommonModule</text>
</g>
<!-- CommonModule&#45;&gt;GroupListPageModule -->
<g id="edge2" class="edge">
<title>CommonModule&#45;&gt;GroupListPageModule</title>
<path fill="none" stroke="black" d="M451.13,-66.8C445.85,-66.8 442.42,-66.8 442.42,-66.8 442.42,-66.8 442.42,-103.69 442.42,-103.69"/>
<polygon fill="black" stroke="black" points="438.92,-103.69 442.42,-113.69 445.92,-103.69 438.92,-103.69"/>
</g>
<!-- FormsModule -->
<g id="node4" class="node">
<title>FormsModule</title>
<polygon fill="#8dd3c7" stroke="black" points="433.83,-84.8 430.83,-88.8 409.83,-88.8 406.83,-84.8 338.17,-84.8 338.17,-48.8 433.83,-48.8 433.83,-84.8"/>
<text text-anchor="middle" x="386" y="-62.6" font-family="Times,serif" font-size="14.00">FormsModule</text>
</g>
<!-- FormsModule&#45;&gt;GroupListPageModule -->
<g id="edge3" class="edge">
<title>FormsModule&#45;&gt;GroupListPageModule</title>
<path fill="none" stroke="black" d="M386,-84.91C386,-84.91 386,-103.79 386,-103.79"/>
<polygon fill="black" stroke="black" points="382.5,-103.79 386,-113.79 389.5,-103.79 382.5,-103.79"/>
</g>
<!-- IonicModule -->
<g id="node5" class="node">
<title>IonicModule</title>
<polygon fill="#8dd3c7" stroke="black" points="320.32,-84.8 317.32,-88.8 296.32,-88.8 293.32,-84.8 231.68,-84.8 231.68,-48.8 320.32,-48.8 320.32,-84.8"/>
<text text-anchor="middle" x="276" y="-62.6" font-family="Times,serif" font-size="14.00">IonicModule</text>
</g>
<!-- IonicModule&#45;&gt;GroupListPageModule -->
<g id="edge4" class="edge">
<title>IonicModule&#45;&gt;GroupListPageModule</title>
<path fill="none" stroke="black" d="M320.45,-66.8C325.71,-66.8 329.25,-66.8 329.25,-66.8 329.25,-66.8 329.25,-103.69 329.25,-103.69"/>
<polygon fill="black" stroke="black" points="325.75,-103.69 329.25,-113.69 332.75,-103.69 325.75,-103.69"/>
</g>
<!-- GroupListPageRoutingModule -->
<g id="node6" class="node">
<title>GroupListPageRoutingModule</title>
<polygon fill="#8dd3c7" stroke="black" points="213.93,-84.8 210.93,-88.8 189.93,-88.8 186.93,-84.8 24.07,-84.8 24.07,-48.8 213.93,-48.8 213.93,-84.8"/>
<text text-anchor="middle" x="119" y="-62.6" font-family="Times,serif" font-size="14.00">GroupListPageRoutingModule</text>
</g>
<!-- GroupListPageRoutingModule&#45;&gt;GroupListPageModule -->
<g id="edge5" class="edge">
<title>GroupListPageRoutingModule&#45;&gt;GroupListPageModule</title>
<path fill="none" stroke="black" d="M119,-84.91C119,-104.14 119,-131.8 119,-131.8 119,-131.8 303.75,-131.8 303.75,-131.8"/>
<polygon fill="black" stroke="black" points="303.75,-135.3 313.75,-131.8 303.75,-128.3 303.75,-135.3"/>
</g>
</g>
</svg>
