<?xml version="1.0" encoding="UTF-8" standalone="no"?>
<!DOCTYPE svg PUBLIC "-//W3C//DTD SVG 1.1//EN"
 "http://www.w3.org/Graphics/SVG/1.1/DTD/svg11.dtd">
<!-- Generated by graphviz version 2.47.3 (20210619.1520)
 -->
<!-- Title: dependencies Pages: 1 -->
<svg width="320pt" height="174pt"
 viewBox="0.00 0.00 320.00 173.80" xmlns="http://www.w3.org/2000/svg" xmlns:xlink="http://www.w3.org/1999/xlink">
<g id="graph0" class="graph" transform="scale(1 1) rotate(0) translate(4 169.8)">
<title>dependencies</title>
<polygon fill="white" stroke="transparent" points="-4,4 -4,-169.8 316,-169.8 316,4 -4,4"/>
<text text-anchor="middle" x="156" y="-8.2" font-family="sans-serif" font-size="14.00">dependencies</text>
<g id="clust1" class="cluster">
<title>cluster_InvitePageModule</title>
<polygon fill="none" stroke="black" stroke-dasharray="1,5" points="8,-32.8 8,-157.8 304,-157.8 304,-32.8 8,-32.8"/>
</g>
<g id="clust4" class="cluster">
<title>cluster_InvitePageModule_imports</title>
<polygon fill="none" stroke="black" points="116,-40.8 116,-92.8 296,-92.8 296,-40.8 116,-40.8"/>
</g>
<g id="clust2" class="cluster">
<title>cluster_InvitePageModule_declarations</title>
<polygon fill="none" stroke="black" points="16,-40.8 16,-92.8 108,-92.8 108,-40.8 16,-40.8"/>
</g>
<!-- InvitePage -->
<g id="node1" class="node">
<title>InvitePage</title>
<polygon fill="#ffffb3" stroke="black" points="99.87,-84.8 24.13,-84.8 24.13,-48.8 99.87,-48.8 99.87,-84.8"/>
<text text-anchor="middle" x="62" y="-62.6" font-family="Times,serif" font-size="14.00">InvitePage</text>
</g>
<!-- InvitePageModule -->
<g id="node2" class="node">
<title>InvitePageModule</title>
<polygon fill="#8dd3c7" stroke="black" points="200.92,-149.8 197.92,-153.8 176.92,-153.8 173.92,-149.8 81.08,-149.8 81.08,-113.8 200.92,-113.8 200.92,-149.8"/>
<text text-anchor="middle" x="141" y="-127.6" font-family="Times,serif" font-size="14.00">InvitePageModule</text>
</g>
<!-- InvitePage&#45;&gt;InvitePageModule -->
<g id="edge1" class="edge">
<title>InvitePage&#45;&gt;InvitePageModule</title>
<path fill="none" stroke="black" d="M90.61,-84.91C90.61,-84.91 90.61,-103.79 90.61,-103.79"/>
<polygon fill="black" stroke="black" points="87.11,-103.79 90.61,-113.79 94.11,-103.79 87.11,-103.79"/>
</g>
<!-- InvitePageRoutingModule -->
<g id="node3" class="node">
<title>InvitePageRoutingModule</title>
<polygon fill="#8dd3c7" stroke="black" points="288.04,-84.8 285.04,-88.8 264.04,-88.8 261.04,-84.8 123.96,-84.8 123.96,-48.8 288.04,-48.8 288.04,-84.8"/>
<text text-anchor="middle" x="206" y="-62.6" font-family="Times,serif" font-size="14.00">InvitePageRoutingModule</text>
</g>
<!-- InvitePageRoutingModule&#45;&gt;InvitePageModule -->
<g id="edge2" class="edge">
<title>InvitePageRoutingModule&#45;&gt;InvitePageModule</title>
<path fill="none" stroke="black" d="M162.22,-84.91C162.22,-84.91 162.22,-103.79 162.22,-103.79"/>
<polygon fill="black" stroke="black" points="158.72,-103.79 162.22,-113.79 165.72,-103.79 158.72,-103.79"/>
</g>
</g>
</svg>
