<?xml version="1.0" encoding="UTF-8" standalone="no"?>
<!DOCTYPE svg PUBLIC "-//W3C//DTD SVG 1.1//EN"
 "http://www.w3.org/Graphics/SVG/1.1/DTD/svg11.dtd">
<!-- Generated by graphviz version 2.47.3 (20210619.1520)
 -->
<!-- Title: dependencies Pages: 1 -->
<svg width="669pt" height="174pt"
 viewBox="0.00 0.00 669.00 173.80" xmlns="http://www.w3.org/2000/svg" xmlns:xlink="http://www.w3.org/1999/xlink">
<g id="graph0" class="graph" transform="scale(1 1) rotate(0) translate(4 169.8)">
<title>dependencies</title>
<polygon fill="white" stroke="transparent" points="-4,4 -4,-169.8 665,-169.8 665,4 -4,4"/>
<text text-anchor="middle" x="330.5" y="-8.2" font-family="sans-serif" font-size="14.00">dependencies</text>
<g id="clust1" class="cluster">
<title>cluster_InvitePageModule</title>
<polygon fill="none" stroke="black" stroke-dasharray="1,5" points="8,-32.8 8,-157.8 653,-157.8 653,-32.8 8,-32.8"/>
</g>
<g id="clust4" class="cluster">
<title>cluster_InvitePageModule_imports</title>
<polygon fill="none" stroke="black" points="116,-40.8 116,-92.8 645,-92.8 645,-40.8 116,-40.8"/>
</g>
<g id="clust2" class="cluster">
<title>cluster_InvitePageModule_declarations</title>
<polygon fill="none" stroke="black" points="16,-40.8 16,-92.8 108,-92.8 108,-40.8 16,-40.8"/>
</g>
<!-- InvitePage -->
<g id="node1" class="node">
<title>InvitePage</title>
<polygon fill="#ffffb3" stroke="black" points="99.87,-84.8 24.13,-84.8 24.13,-48.8 99.87,-48.8 99.87,-84.8"/>
<text text-anchor="middle" x="62" y="-62.6" font-family="Times,serif" font-size="14.00">InvitePage</text>
</g>
<!-- InvitePageModule -->
<g id="node2" class="node">
<title>InvitePageModule</title>
<polygon fill="#8dd3c7" stroke="black" points="409.92,-149.8 406.92,-153.8 385.92,-153.8 382.92,-149.8 290.08,-149.8 290.08,-113.8 409.92,-113.8 409.92,-149.8"/>
<text text-anchor="middle" x="350" y="-127.6" font-family="Times,serif" font-size="14.00">InvitePageModule</text>
</g>
<!-- InvitePage&#45;&gt;InvitePageModule -->
<g id="edge1" class="edge">
<title>InvitePage&#45;&gt;InvitePageModule</title>
<path fill="none" stroke="black" d="M62,-84.91C62,-104.14 62,-131.8 62,-131.8 62,-131.8 279.98,-131.8 279.98,-131.8"/>
<polygon fill="black" stroke="black" points="279.98,-135.3 289.98,-131.8 279.98,-128.3 279.98,-135.3"/>
</g>
<!-- CommonModule -->
<g id="node3" class="node">
<title>CommonModule</title>
<polygon fill="#8dd3c7" stroke="black" points="636.67,-84.8 633.67,-88.8 612.67,-88.8 609.67,-84.8 525.33,-84.8 525.33,-48.8 636.67,-48.8 636.67,-84.8"/>
<text text-anchor="middle" x="581" y="-62.6" font-family="Times,serif" font-size="14.00">CommonModule</text>
</g>
<!-- CommonModule&#45;&gt;InvitePageModule -->
<g id="edge2" class="edge">
<title>CommonModule&#45;&gt;InvitePageModule</title>
<path fill="none" stroke="black" d="M581,-84.91C581,-104.14 581,-131.8 581,-131.8 581,-131.8 419.79,-131.8 419.79,-131.8"/>
<polygon fill="black" stroke="black" points="419.79,-128.3 409.79,-131.8 419.79,-135.3 419.79,-128.3"/>
</g>
<!-- FormsModule -->
<g id="node4" class="node">
<title>FormsModule</title>
<polygon fill="#8dd3c7" stroke="black" points="507.83,-84.8 504.83,-88.8 483.83,-88.8 480.83,-84.8 412.17,-84.8 412.17,-48.8 507.83,-48.8 507.83,-84.8"/>
<text text-anchor="middle" x="460" y="-62.6" font-family="Times,serif" font-size="14.00">FormsModule</text>
</g>
<!-- FormsModule&#45;&gt;InvitePageModule -->
<g id="edge3" class="edge">
<title>FormsModule&#45;&gt;InvitePageModule</title>
<path fill="none" stroke="black" d="M412.31,-66.8C406.15,-66.8 401.93,-66.8 401.93,-66.8 401.93,-66.8 401.93,-103.69 401.93,-103.69"/>
<polygon fill="black" stroke="black" points="398.43,-103.69 401.93,-113.69 405.43,-103.69 398.43,-103.69"/>
</g>
<!-- IonicModule -->
<g id="node5" class="node">
<title>IonicModule</title>
<polygon fill="#8dd3c7" stroke="black" points="394.32,-84.8 391.32,-88.8 370.32,-88.8 367.32,-84.8 305.68,-84.8 305.68,-48.8 394.32,-48.8 394.32,-84.8"/>
<text text-anchor="middle" x="350" y="-62.6" font-family="Times,serif" font-size="14.00">IonicModule</text>
</g>
<!-- IonicModule&#45;&gt;InvitePageModule -->
<g id="edge4" class="edge">
<title>IonicModule&#45;&gt;InvitePageModule</title>
<path fill="none" stroke="black" d="M350,-84.91C350,-84.91 350,-103.79 350,-103.79"/>
<polygon fill="black" stroke="black" points="346.5,-103.79 350,-113.79 353.5,-103.79 346.5,-103.79"/>
</g>
<!-- InvitePageRoutingModule -->
<g id="node6" class="node">
<title>InvitePageRoutingModule</title>
<polygon fill="#8dd3c7" stroke="black" points="288.04,-84.8 285.04,-88.8 264.04,-88.8 261.04,-84.8 123.96,-84.8 123.96,-48.8 288.04,-48.8 288.04,-84.8"/>
<text text-anchor="middle" x="206" y="-62.6" font-family="Times,serif" font-size="14.00">InvitePageRoutingModule</text>
</g>
<!-- InvitePageRoutingModule&#45;&gt;InvitePageModule -->
<g id="edge5" class="edge">
<title>InvitePageRoutingModule&#45;&gt;InvitePageModule</title>
<path fill="none" stroke="black" d="M288.21,-66.8C294.27,-66.8 298.07,-66.8 298.07,-66.8 298.07,-66.8 298.07,-103.69 298.07,-103.69"/>
<polygon fill="black" stroke="black" points="294.57,-103.69 298.07,-113.69 301.57,-103.69 294.57,-103.69"/>
</g>
</g>
</svg>
