<?xml version="1.0" encoding="UTF-8" standalone="no"?>
<!DOCTYPE svg PUBLIC "-//W3C//DTD SVG 1.1//EN"
 "http://www.w3.org/Graphics/SVG/1.1/DTD/svg11.dtd">
<!-- Generated by graphviz version 2.47.3 (20210619.1520)
 -->
<!-- Title: dependencies Pages: 1 -->
<svg width="278pt" height="247pt"
 viewBox="0.00 0.00 278.00 246.80" xmlns="http://www.w3.org/2000/svg" xmlns:xlink="http://www.w3.org/1999/xlink">
<g id="graph0" class="graph" transform="scale(1 1) rotate(0) translate(4 242.8)">
<title>dependencies</title>
<polygon fill="white" stroke="transparent" points="-4,4 -4,-242.8 274,-242.8 274,4 -4,4"/>
<text text-anchor="middle" x="135" y="-8.2" font-family="sans-serif" font-size="14.00">dependencies</text>
<g id="clust1" class="cluster">
<title>cluster_TransactionDetailsPageRoutingModule</title>
<polygon fill="none" stroke="black" stroke-dasharray="1,5" points="8,-32.8 8,-230.8 262,-230.8 262,-32.8 8,-32.8"/>
</g>
<g id="clust3" class="cluster">
<title>cluster_TransactionDetailsPageRoutingModule_imports</title>
<polygon fill="none" stroke="black" points="36,-40.8 36,-92.8 234,-92.8 234,-40.8 36,-40.8"/>
</g>
<g id="clust4" class="cluster">
<title>cluster_TransactionDetailsPageRoutingModule_exports</title>
<polygon fill="none" stroke="black" points="76,-170.8 76,-222.8 194,-222.8 194,-170.8 76,-170.8"/>
</g>
<!-- RouterModule.forChild(args) -->
<g id="node1" class="node">
<title>RouterModule.forChild(args)</title>
<polygon fill="#8dd3c7" stroke="black" points="225.73,-84.8 222.73,-88.8 201.73,-88.8 198.73,-84.8 44.27,-84.8 44.27,-48.8 225.73,-48.8 225.73,-84.8"/>
<text text-anchor="middle" x="135" y="-62.6" font-family="Times,serif" font-size="14.00">RouterModule.forChild(args)</text>
</g>
<!-- TransactionDetailsPageRoutingModule -->
<g id="node2" class="node">
<title>TransactionDetailsPageRoutingModule</title>
<polygon fill="#8dd3c7" stroke="black" points="253.61,-149.8 250.61,-153.8 229.61,-153.8 226.61,-149.8 16.39,-149.8 16.39,-113.8 253.61,-113.8 253.61,-149.8"/>
<text text-anchor="middle" x="135" y="-127.6" font-family="Times,serif" font-size="14.00">TransactionDetailsPageRoutingModule</text>
</g>
<!-- RouterModule.forChild(args)&#45;&gt;TransactionDetailsPageRoutingModule -->
<g id="edge1" class="edge">
<title>RouterModule.forChild(args)&#45;&gt;TransactionDetailsPageRoutingModule</title>
<path fill="none" stroke="black" d="M135,-84.91C135,-84.91 135,-103.79 135,-103.79"/>
<polygon fill="black" stroke="black" points="131.5,-103.79 135,-113.79 138.5,-103.79 131.5,-103.79"/>
</g>
<!-- RouterModule  -->
<g id="node3" class="node">
<title>RouterModule </title>
<polygon fill="#fb8072" stroke="black" points="185.65,-214.8 84.35,-214.8 84.35,-178.8 185.65,-178.8 185.65,-214.8"/>
<text text-anchor="middle" x="135" y="-192.6" font-family="Times,serif" font-size="14.00">RouterModule </text>
</g>
<!-- TransactionDetailsPageRoutingModule&#45;&gt;RouterModule  -->
<g id="edge2" class="edge">
<title>TransactionDetailsPageRoutingModule&#45;&gt;RouterModule </title>
<path fill="none" stroke="black" stroke-dasharray="5,2" d="M135,-149.91C135,-149.91 135,-168.79 135,-168.79"/>
<polygon fill="black" stroke="black" points="131.5,-168.79 135,-178.79 138.5,-168.79 131.5,-168.79"/>
</g>
</g>
</svg>
