<?xml version="1.0" encoding="UTF-8" standalone="no"?>
<!DOCTYPE svg PUBLIC "-//W3C//DTD SVG 1.1//EN"
 "http://www.w3.org/Graphics/SVG/1.1/DTD/svg11.dtd">
<!-- Generated by graphviz version 2.47.3 (20210619.1520)
 -->
<!-- Title: dependencies Pages: 1 -->
<svg width="274pt" height="247pt"
 viewBox="0.00 0.00 274.00 246.80" xmlns="http://www.w3.org/2000/svg" xmlns:xlink="http://www.w3.org/1999/xlink">
<g id="graph0" class="graph" transform="scale(1 1) rotate(0) translate(4 242.8)">
<title>dependencies</title>
<polygon fill="white" stroke="transparent" points="-4,4 -4,-242.8 270,-242.8 270,4 -4,4"/>
<text text-anchor="middle" x="133" y="-8.2" font-family="sans-serif" font-size="14.00">dependencies</text>
<g id="clust1" class="cluster">
<title>cluster_TransactionCreatePageRoutingModule</title>
<polygon fill="none" stroke="black" stroke-dasharray="1,5" points="8,-32.8 8,-230.8 258,-230.8 258,-32.8 8,-32.8"/>
</g>
<g id="clust4" class="cluster">
<title>cluster_TransactionCreatePageRoutingModule_exports</title>
<polygon fill="none" stroke="black" points="74,-170.8 74,-222.8 192,-222.8 192,-170.8 74,-170.8"/>
</g>
<g id="clust3" class="cluster">
<title>cluster_TransactionCreatePageRoutingModule_imports</title>
<polygon fill="none" stroke="black" points="34,-40.8 34,-92.8 232,-92.8 232,-40.8 34,-40.8"/>
</g>
<!-- RouterModule.forChild(args) -->
<g id="node1" class="node">
<title>RouterModule.forChild(args)</title>
<polygon fill="#8dd3c7" stroke="black" points="223.73,-84.8 220.73,-88.8 199.73,-88.8 196.73,-84.8 42.27,-84.8 42.27,-48.8 223.73,-48.8 223.73,-84.8"/>
<text text-anchor="middle" x="133" y="-62.6" font-family="Times,serif" font-size="14.00">RouterModule.forChild(args)</text>
</g>
<!-- TransactionCreatePageRoutingModule -->
<g id="node2" class="node">
<title>TransactionCreatePageRoutingModule</title>
<polygon fill="#8dd3c7" stroke="black" points="250.49,-149.8 247.49,-153.8 226.49,-153.8 223.49,-149.8 15.51,-149.8 15.51,-113.8 250.49,-113.8 250.49,-149.8"/>
<text text-anchor="middle" x="133" y="-127.6" font-family="Times,serif" font-size="14.00">TransactionCreatePageRoutingModule</text>
</g>
<!-- RouterModule.forChild(args)&#45;&gt;TransactionCreatePageRoutingModule -->
<g id="edge1" class="edge">
<title>RouterModule.forChild(args)&#45;&gt;TransactionCreatePageRoutingModule</title>
<path fill="none" stroke="black" d="M133,-84.91C133,-84.91 133,-103.79 133,-103.79"/>
<polygon fill="black" stroke="black" points="129.5,-103.79 133,-113.79 136.5,-103.79 129.5,-103.79"/>
</g>
<!-- RouterModule  -->
<g id="node3" class="node">
<title>RouterModule </title>
<polygon fill="#fb8072" stroke="black" points="183.65,-214.8 82.35,-214.8 82.35,-178.8 183.65,-178.8 183.65,-214.8"/>
<text text-anchor="middle" x="133" y="-192.6" font-family="Times,serif" font-size="14.00">RouterModule </text>
</g>
<!-- TransactionCreatePageRoutingModule&#45;&gt;RouterModule  -->
<g id="edge2" class="edge">
<title>TransactionCreatePageRoutingModule&#45;&gt;RouterModule </title>
<path fill="none" stroke="black" stroke-dasharray="5,2" d="M133,-149.91C133,-149.91 133,-168.79 133,-168.79"/>
<polygon fill="black" stroke="black" points="129.5,-168.79 133,-178.79 136.5,-168.79 129.5,-168.79"/>
</g>
</g>
</svg>
