<?xml version="1.0" encoding="UTF-8" standalone="no"?>
<!DOCTYPE svg PUBLIC "-//W3C//DTD SVG 1.1//EN"
 "http://www.w3.org/Graphics/SVG/1.1/DTD/svg11.dtd">
<!-- Generated by graphviz version 2.47.3 (20210619.1520)
 -->
<!-- Title: dependencies Pages: 1 -->
<svg width="464pt" height="174pt"
 viewBox="0.00 0.00 464.00 173.80" xmlns="http://www.w3.org/2000/svg" xmlns:xlink="http://www.w3.org/1999/xlink">
<g id="graph0" class="graph" transform="scale(1 1) rotate(0) translate(4 169.8)">
<title>dependencies</title>
<polygon fill="white" stroke="transparent" points="-4,4 -4,-169.8 460,-169.8 460,4 -4,4"/>
<text text-anchor="middle" x="228" y="-8.2" font-family="sans-serif" font-size="14.00">dependencies</text>
<g id="clust1" class="cluster">
<title>cluster_PaymentReminderPageModule</title>
<polygon fill="none" stroke="black" stroke-dasharray="1,5" points="8,-32.8 8,-157.8 448,-157.8 448,-32.8 8,-32.8"/>
</g>
<g id="clust4" class="cluster">
<title>cluster_PaymentReminderPageModule_imports</title>
<polygon fill="none" stroke="black" points="188,-40.8 188,-92.8 440,-92.8 440,-40.8 188,-40.8"/>
</g>
<g id="clust2" class="cluster">
<title>cluster_PaymentReminderPageModule_declarations</title>
<polygon fill="none" stroke="black" points="16,-40.8 16,-92.8 180,-92.8 180,-40.8 16,-40.8"/>
</g>
<!-- PaymentReminderPage -->
<g id="node1" class="node">
<title>PaymentReminderPage</title>
<polygon fill="#ffffb3" stroke="black" points="171.91,-84.8 24.09,-84.8 24.09,-48.8 171.91,-48.8 171.91,-84.8"/>
<text text-anchor="middle" x="98" y="-62.6" font-family="Times,serif" font-size="14.00">PaymentReminderPage</text>
</g>
<!-- PaymentReminderPageModule -->
<g id="node2" class="node">
<title>PaymentReminderPageModule</title>
<polygon fill="#8dd3c7" stroke="black" points="307.46,-149.8 304.46,-153.8 283.46,-153.8 280.46,-149.8 116.54,-149.8 116.54,-113.8 307.46,-113.8 307.46,-149.8"/>
<text text-anchor="middle" x="212" y="-127.6" font-family="Times,serif" font-size="14.00">PaymentReminderPageModule</text>
</g>
<!-- PaymentReminderPage&#45;&gt;PaymentReminderPageModule -->
<g id="edge1" class="edge">
<title>PaymentReminderPage&#45;&gt;PaymentReminderPageModule</title>
<path fill="none" stroke="black" d="M144.11,-84.91C144.11,-84.91 144.11,-103.79 144.11,-103.79"/>
<polygon fill="black" stroke="black" points="140.61,-103.79 144.11,-113.79 147.61,-103.79 140.61,-103.79"/>
</g>
<!-- PaymentReminderPageRoutingModule -->
<g id="node3" class="node">
<title>PaymentReminderPageRoutingModule</title>
<polygon fill="#8dd3c7" stroke="black" points="432.08,-84.8 429.08,-88.8 408.08,-88.8 405.08,-84.8 195.92,-84.8 195.92,-48.8 432.08,-48.8 432.08,-84.8"/>
<text text-anchor="middle" x="314" y="-62.6" font-family="Times,serif" font-size="14.00">PaymentReminderPageRoutingModule</text>
</g>
<!-- PaymentReminderPageRoutingModule&#45;&gt;PaymentReminderPageModule -->
<g id="edge2" class="edge">
<title>PaymentReminderPageRoutingModule&#45;&gt;PaymentReminderPageModule</title>
<path fill="none" stroke="black" d="M251.72,-84.91C251.72,-84.91 251.72,-103.79 251.72,-103.79"/>
<polygon fill="black" stroke="black" points="248.22,-103.79 251.72,-113.79 255.22,-103.79 248.22,-103.79"/>
</g>
</g>
</svg>
