<?xml version="1.0" encoding="UTF-8" standalone="no"?>
<!DOCTYPE svg PUBLIC "-//W3C//DTD SVG 1.1//EN"
 "http://www.w3.org/Graphics/SVG/1.1/DTD/svg11.dtd">
<!-- Generated by graphviz version 2.47.3 (20210619.1520)
 -->
<!-- Title: dependencies Pages: 1 -->
<svg width="813pt" height="174pt"
 viewBox="0.00 0.00 813.00 173.80" xmlns="http://www.w3.org/2000/svg" xmlns:xlink="http://www.w3.org/1999/xlink">
<g id="graph0" class="graph" transform="scale(1 1) rotate(0) translate(4 169.8)">
<title>dependencies</title>
<polygon fill="white" stroke="transparent" points="-4,4 -4,-169.8 809,-169.8 809,4 -4,4"/>
<text text-anchor="middle" x="402.5" y="-8.2" font-family="sans-serif" font-size="14.00">dependencies</text>
<g id="clust1" class="cluster">
<title>cluster_PaymentReminderPageModule</title>
<polygon fill="none" stroke="black" stroke-dasharray="1,5" points="8,-32.8 8,-157.8 797,-157.8 797,-32.8 8,-32.8"/>
</g>
<g id="clust4" class="cluster">
<title>cluster_PaymentReminderPageModule_imports</title>
<polygon fill="none" stroke="black" points="188,-40.8 188,-92.8 789,-92.8 789,-40.8 188,-40.8"/>
</g>
<g id="clust2" class="cluster">
<title>cluster_PaymentReminderPageModule_declarations</title>
<polygon fill="none" stroke="black" points="16,-40.8 16,-92.8 180,-92.8 180,-40.8 16,-40.8"/>
</g>
<!-- PaymentReminderPage -->
<g id="node1" class="node">
<title>PaymentReminderPage</title>
<polygon fill="#ffffb3" stroke="black" points="171.91,-84.8 24.09,-84.8 24.09,-48.8 171.91,-48.8 171.91,-84.8"/>
<text text-anchor="middle" x="98" y="-62.6" font-family="Times,serif" font-size="14.00">PaymentReminderPage</text>
</g>
<!-- PaymentReminderPageModule -->
<g id="node2" class="node">
<title>PaymentReminderPageModule</title>
<polygon fill="#8dd3c7" stroke="black" points="589.46,-149.8 586.46,-153.8 565.46,-153.8 562.46,-149.8 398.54,-149.8 398.54,-113.8 589.46,-113.8 589.46,-149.8"/>
<text text-anchor="middle" x="494" y="-127.6" font-family="Times,serif" font-size="14.00">PaymentReminderPageModule</text>
</g>
<!-- PaymentReminderPage&#45;&gt;PaymentReminderPageModule -->
<g id="edge1" class="edge">
<title>PaymentReminderPage&#45;&gt;PaymentReminderPageModule</title>
<path fill="none" stroke="black" d="M98,-84.91C98,-104.14 98,-131.8 98,-131.8 98,-131.8 388.39,-131.8 388.39,-131.8"/>
<polygon fill="black" stroke="black" points="388.39,-135.3 398.39,-131.8 388.39,-128.3 388.39,-135.3"/>
</g>
<!-- CommonModule -->
<g id="node3" class="node">
<title>CommonModule</title>
<polygon fill="#8dd3c7" stroke="black" points="780.67,-84.8 777.67,-88.8 756.67,-88.8 753.67,-84.8 669.33,-84.8 669.33,-48.8 780.67,-48.8 780.67,-84.8"/>
<text text-anchor="middle" x="725" y="-62.6" font-family="Times,serif" font-size="14.00">CommonModule</text>
</g>
<!-- CommonModule&#45;&gt;PaymentReminderPageModule -->
<g id="edge2" class="edge">
<title>CommonModule&#45;&gt;PaymentReminderPageModule</title>
<path fill="none" stroke="black" d="M725,-84.91C725,-104.14 725,-131.8 725,-131.8 725,-131.8 599.62,-131.8 599.62,-131.8"/>
<polygon fill="black" stroke="black" points="599.62,-128.3 589.62,-131.8 599.62,-135.3 599.62,-128.3"/>
</g>
<!-- FormsModule -->
<g id="node4" class="node">
<title>FormsModule</title>
<polygon fill="#8dd3c7" stroke="black" points="651.83,-84.8 648.83,-88.8 627.83,-88.8 624.83,-84.8 556.17,-84.8 556.17,-48.8 651.83,-48.8 651.83,-84.8"/>
<text text-anchor="middle" x="604" y="-62.6" font-family="Times,serif" font-size="14.00">FormsModule</text>
</g>
<!-- FormsModule&#45;&gt;PaymentReminderPageModule -->
<g id="edge3" class="edge">
<title>FormsModule&#45;&gt;PaymentReminderPageModule</title>
<path fill="none" stroke="black" d="M572.91,-84.91C572.91,-84.91 572.91,-103.79 572.91,-103.79"/>
<polygon fill="black" stroke="black" points="569.41,-103.79 572.91,-113.79 576.41,-103.79 569.41,-103.79"/>
</g>
<!-- IonicModule -->
<g id="node5" class="node">
<title>IonicModule</title>
<polygon fill="#8dd3c7" stroke="black" points="538.32,-84.8 535.32,-88.8 514.32,-88.8 511.32,-84.8 449.68,-84.8 449.68,-48.8 538.32,-48.8 538.32,-84.8"/>
<text text-anchor="middle" x="494" y="-62.6" font-family="Times,serif" font-size="14.00">IonicModule</text>
</g>
<!-- IonicModule&#45;&gt;PaymentReminderPageModule -->
<g id="edge4" class="edge">
<title>IonicModule&#45;&gt;PaymentReminderPageModule</title>
<path fill="none" stroke="black" d="M494,-84.91C494,-84.91 494,-103.79 494,-103.79"/>
<polygon fill="black" stroke="black" points="490.5,-103.79 494,-113.79 497.5,-103.79 490.5,-103.79"/>
</g>
<!-- PaymentReminderPageRoutingModule -->
<g id="node6" class="node">
<title>PaymentReminderPageRoutingModule</title>
<polygon fill="#8dd3c7" stroke="black" points="432.08,-84.8 429.08,-88.8 408.08,-88.8 405.08,-84.8 195.92,-84.8 195.92,-48.8 432.08,-48.8 432.08,-84.8"/>
<text text-anchor="middle" x="314" y="-62.6" font-family="Times,serif" font-size="14.00">PaymentReminderPageRoutingModule</text>
</g>
<!-- PaymentReminderPageRoutingModule&#45;&gt;PaymentReminderPageModule -->
<g id="edge5" class="edge">
<title>PaymentReminderPageRoutingModule&#45;&gt;PaymentReminderPageModule</title>
<path fill="none" stroke="black" d="M415.28,-84.91C415.28,-84.91 415.28,-103.79 415.28,-103.79"/>
<polygon fill="black" stroke="black" points="411.78,-103.79 415.28,-113.79 418.78,-103.79 411.78,-103.79"/>
</g>
</g>
</svg>
